<svg width="248" height="260" viewBox="0 0 248 260" fill="none" xmlns="http://www.w3.org/2000/svg">
<g opacity="0.08">
<path d="M78.4211 340C78.4211 340 78.2777 340 78.206 340C78.206 340 78.0627 340 77.991 340C76.0196 340 74.4066 338.414 74.4066 336.475C74.4066 334.519 76.0196 332.951 77.991 332.951H78.4211C80.3925 332.951 82.0055 334.519 82.0055 336.458C82.0055 338.414 80.4104 339.982 78.439 340H78.4211ZM55.9829 338.696C54.0115 338.449 52.6136 336.704 52.8645 334.766C53.0975 332.827 54.8717 331.453 56.8431 331.699C58.8145 331.928 60.2124 333.691 59.9615 335.629C59.7464 337.409 58.2052 338.713 56.413 338.713C56.2696 338.713 56.1263 338.713 55.9829 338.713V338.696ZM96.4506 335.576C96.1997 333.638 97.5977 331.875 99.5691 331.646C101.523 331.4 103.315 332.774 103.566 334.713C103.799 336.634 102.419 338.396 100.447 338.643C100.304 338.661 100.143 338.661 99.9992 338.661C98.2249 338.661 96.6656 337.356 96.4506 335.576ZM34.2794 334.731C32.3618 334.237 31.1968 332.334 31.6807 330.43C32.1646 328.562 34.1181 327.417 36.0358 327.893C37.9534 328.368 39.1183 330.289 38.6345 332.175C38.2222 333.761 36.7526 334.836 35.1576 334.836C34.8708 334.836 34.5662 334.801 34.2794 334.731ZM117.778 332.069C117.294 330.184 118.441 328.263 120.358 327.787C122.276 327.311 124.23 328.439 124.731 330.325C125.215 332.21 124.05 334.131 122.133 334.625C121.846 334.695 121.541 334.731 121.255 334.731C119.642 334.731 118.19 333.673 117.778 332.069ZM13.2569 328.034C11.4109 327.329 10.5149 325.267 11.2497 323.469C11.9845 321.654 14.0635 320.773 15.9094 321.495C17.7554 322.218 18.6514 324.262 17.9345 326.06C17.3789 327.452 16.0169 328.298 14.6011 328.298C14.153 328.298 13.705 328.21 13.2748 328.034H13.2569ZM138.478 325.919C137.743 324.121 138.639 322.059 140.467 321.337C142.313 320.614 144.41 321.495 145.145 323.31C145.861 325.108 144.983 327.17 143.137 327.875C142.707 328.051 142.259 328.139 141.811 328.139C140.395 328.139 139.033 327.293 138.478 325.919ZM-6.70817 318.693C-8.42867 317.741 -9.05585 315.591 -8.07014 313.899C-7.10236 312.19 -4.91593 311.591 -3.19543 312.542C-1.47492 313.494 -0.865555 315.644 -1.83334 317.336C-2.47853 318.499 -3.6972 319.151 -4.95174 319.151C-5.54317 319.151 -6.15259 318.993 -6.70817 318.693ZM158.174 317.16C157.206 315.45 157.815 313.3 159.536 312.349C161.274 311.397 163.461 311.996 164.429 313.688C165.396 315.38 164.787 317.53 163.067 318.482C162.511 318.799 161.902 318.94 161.31 318.94C160.056 318.94 158.837 318.305 158.174 317.16ZM-25.2215 306.815C-26.7986 305.634 -27.1033 303.431 -25.9204 301.862C-24.7376 300.312 -22.4795 300.012 -20.9023 301.175C-19.3252 302.356 -19.0026 304.559 -20.2033 306.11C-20.9023 307.026 -21.9776 307.52 -23.0708 307.52C-23.8056 307.52 -24.5763 307.291 -25.2215 306.815ZM176.508 305.881C175.307 304.33 175.612 302.127 177.189 300.946C178.766 299.765 181.024 300.065 182.225 301.616C183.408 303.167 183.103 305.387 181.526 306.568C180.881 307.044 180.11 307.273 179.357 307.273C178.282 307.273 177.207 306.797 176.508 305.881ZM-41.9247 292.575C-43.3226 291.2 -43.3406 288.98 -41.9247 287.587C-40.5268 286.213 -38.2686 286.195 -36.8528 287.57C-35.4549 288.944 -35.437 291.183 -36.835 292.557C-37.5339 293.245 -38.4658 293.597 -39.3798 293.597C-40.2939 293.597 -41.2078 293.262 -41.9068 292.575H-41.9247ZM193.139 292.293C191.724 290.901 191.742 288.68 193.139 287.305C194.537 285.931 196.814 285.931 198.211 287.305C199.609 288.698 199.609 290.918 198.193 292.293C197.495 292.98 196.581 293.315 195.667 293.315C194.753 293.315 193.838 292.98 193.139 292.293ZM-56.5312 276.273C-57.7319 274.74 -57.4273 272.519 -55.8681 271.338C-54.2909 270.14 -52.0507 270.44 -50.832 271.99C-49.6312 273.524 -49.9359 275.744 -51.4951 276.925C-52.1582 277.419 -52.9109 277.648 -53.6815 277.648C-54.7568 277.648 -55.8143 277.189 -56.5312 276.273ZM207.746 276.608C206.169 275.427 205.864 273.207 207.083 271.673C208.284 270.122 210.524 269.823 212.101 271.004C213.678 272.184 213.983 274.405 212.764 275.956C212.065 276.855 210.99 277.33 209.914 277.33C209.162 277.33 208.391 277.101 207.746 276.608ZM-68.7897 258.209C-69.7754 256.517 -69.184 254.349 -67.4635 253.38C-65.7609 252.411 -63.5566 252.992 -62.5708 254.684C-61.5851 256.376 -62.1765 258.526 -63.897 259.495C-64.4526 259.813 -65.062 259.971 -65.6713 259.971C-66.9258 259.971 -68.1266 259.337 -68.7897 258.209ZM220.112 259.143C218.391 258.174 217.782 256.023 218.768 254.332C219.754 252.64 221.94 252.058 223.661 253.027C225.381 253.997 225.973 256.147 224.987 257.821C224.324 258.967 223.123 259.601 221.886 259.601C221.277 259.601 220.668 259.46 220.112 259.143ZM-78.5213 238.699C-79.274 236.902 -78.4139 234.84 -76.5858 234.1C-74.7578 233.36 -72.6608 234.205 -71.9081 236.021C-71.1375 237.818 -72.0157 239.88 -73.8437 240.62C-74.2918 240.797 -74.7577 240.885 -75.2058 240.885C-76.6216 240.885 -77.9478 240.057 -78.5213 238.699ZM230.005 240.233C228.177 239.493 227.299 237.431 228.052 235.633C228.804 233.835 230.901 232.972 232.729 233.712C234.557 234.452 235.435 236.514 234.683 238.312C234.109 239.669 232.783 240.497 231.367 240.497C230.919 240.497 230.453 240.409 230.005 240.233ZM-85.6364 218.15C-86.1561 216.282 -85.027 214.344 -83.1273 213.833C-81.2096 213.321 -79.2383 214.432 -78.7185 216.3C-78.1988 218.186 -79.3278 220.124 -81.2455 220.635C-81.5502 220.723 -81.8728 220.759 -82.1954 220.759C-83.7725 220.759 -85.2063 219.719 -85.6364 218.15ZM237.353 220.23C235.435 219.719 234.306 217.798 234.826 215.912C235.328 214.026 237.299 212.916 239.217 213.427C241.134 213.938 242.264 215.859 241.744 217.745C241.314 219.314 239.862 220.353 238.285 220.353C237.98 220.353 237.658 220.318 237.353 220.23ZM-90.1169 196.914C-90.3857 194.993 -89.0415 193.195 -87.0701 192.913C-85.1166 192.649 -83.3065 193.971 -83.0197 195.909C-82.733 197.83 -84.0951 199.61 -86.0486 199.892C-86.2278 199.928 -86.3891 199.928 -86.5684 199.928C-88.3247 199.928 -89.848 198.676 -90.1169 196.914ZM242.102 199.487C240.149 199.205 238.787 197.425 239.073 195.504C239.342 193.565 241.152 192.226 243.124 192.508C245.077 192.79 246.439 194.57 246.171 196.491C245.92 198.253 244.396 199.522 242.64 199.522C242.479 199.522 242.299 199.505 242.12 199.487H242.102ZM-91.9987 175.325C-92.0524 173.369 -90.4932 171.747 -88.5038 171.695C-86.5324 171.642 -84.8836 173.175 -84.8299 175.114C-84.7761 177.07 -86.3353 178.691 -88.3067 178.744H-88.4143C-90.3498 178.744 -91.9449 177.228 -91.9987 175.325ZM244.325 178.339C242.335 178.286 240.776 176.664 240.83 174.708C240.884 172.77 242.532 171.236 244.504 171.289C246.493 171.342 248.052 172.946 247.999 174.902C247.945 176.823 246.35 178.339 244.414 178.339H244.325ZM-88.1096 157.472C-90.081 157.314 -91.5507 155.604 -91.3894 153.666C-91.2281 151.727 -89.4896 150.282 -87.5182 150.458C-85.5467 150.617 -84.0771 152.326 -84.2384 154.265C-84.3997 156.098 -85.959 157.49 -87.805 157.49C-87.9125 157.49 -88.02 157.49 -88.1096 157.49V157.472ZM240.203 153.859C240.023 151.921 241.493 150.211 243.464 150.035C245.436 149.876 247.174 151.304 247.335 153.243C247.515 155.181 246.045 156.891 244.074 157.067H243.769C241.923 157.067 240.364 155.692 240.203 153.859ZM-85.475 136.377C-87.4106 135.971 -88.6652 134.121 -88.253 132.218C-87.8587 130.297 -85.9589 129.081 -84.0234 129.468C-82.0878 129.856 -80.8333 131.707 -81.2455 133.628C-81.6039 135.284 -83.0915 136.447 -84.7582 136.447C-84.9912 136.447 -85.2421 136.412 -85.493 136.377H-85.475ZM237.138 133.222C236.744 131.319 237.998 129.451 239.934 129.063C241.869 128.658 243.769 129.891 244.163 131.795C244.558 133.698 243.321 135.566 241.385 135.954C241.135 136.007 240.884 136.042 240.651 136.042C238.984 136.042 237.496 134.896 237.138 133.222ZM-80.2598 115.722C-82.1416 115.105 -83.1452 113.096 -82.518 111.263C-81.8728 109.413 -79.8476 108.426 -77.9837 109.043C-76.1019 109.677 -75.0982 111.669 -75.7255 113.519C-76.2273 114.982 -77.6252 115.916 -79.1128 115.916C-79.507 115.916 -79.8834 115.845 -80.2598 115.722ZM231.582 113.131C230.955 111.281 231.941 109.289 233.822 108.655C235.686 108.02 237.729 109.007 238.374 110.858C239.002 112.708 237.998 114.7 236.134 115.334C235.758 115.458 235.364 115.51 234.969 115.51C233.482 115.51 232.084 114.594 231.582 113.131ZM-72.4816 95.8778C-74.2559 95.0318 -74.9908 92.917 -74.1305 91.1723C-73.2523 89.4275 -71.1196 88.705 -69.3275 89.5509C-67.5532 90.3968 -66.8183 92.5117 -67.6965 94.2564C-68.3058 95.5077 -69.5962 96.2479 -70.9045 96.2479C-71.4421 96.2479 -71.9798 96.1245 -72.4816 95.8778ZM223.499 93.9039C222.621 92.1592 223.356 90.0443 225.13 89.1808C226.904 88.3172 229.055 89.0398 229.933 90.7845C230.811 92.5293 230.077 94.6441 228.302 95.5077C227.783 95.7544 227.245 95.8778 226.707 95.8778C225.399 95.8778 224.127 95.1376 223.499 93.9039ZM-62.1407 77.1967C-63.7896 76.1041 -64.2376 73.9187 -63.1444 72.2974C-62.0511 70.676 -59.8108 70.2354 -58.162 71.3104C-56.5311 72.4031 -56.0831 74.5884 -57.1763 76.2098C-57.8753 77.232 -59.0043 77.7783 -60.1693 77.7783C-60.8503 77.7783 -61.5493 77.5844 -62.1587 77.1967H-62.1407ZM212.943 75.875C211.832 74.2536 212.28 72.0683 213.929 70.9932C215.578 69.9006 217.8 70.3412 218.893 71.9625C220.004 73.5839 219.556 75.7692 217.908 76.8443C217.298 77.2496 216.599 77.4435 215.918 77.4435C214.771 77.4435 213.624 76.8971 212.943 75.875ZM-49.3624 60.0137C-50.8499 58.7272 -50.9933 56.5066 -49.7029 55.0439C-48.3767 53.5811 -46.1185 53.4401 -44.631 54.7266C-43.1434 56.0132 -43.0001 58.2337 -44.3084 59.6965C-45.0253 60.4896 -46.011 60.8949 -46.9967 60.8949C-47.839 60.8949 -48.6813 60.5953 -49.3624 60.0137ZM200.039 59.4145C198.731 57.9518 198.875 55.7312 200.362 54.427C201.832 53.1405 204.108 53.2815 205.416 54.7443C206.724 56.207 206.581 58.4276 205.111 59.7141C204.412 60.3133 203.57 60.5953 202.728 60.5953C201.742 60.5953 200.756 60.1899 200.039 59.4145ZM-34.3617 44.6988C-35.67 43.2184 -35.5087 40.9978 -34.0033 39.7289C-32.5157 38.4424 -30.2396 38.601 -28.9493 40.0814C-27.6589 41.5442 -27.8202 43.7824 -29.3077 45.0513C-29.9888 45.6328 -30.8311 45.9148 -31.6555 45.9148C-32.6591 45.9148 -33.6628 45.5095 -34.3617 44.6988ZM185.021 44.8045C183.515 43.5356 183.354 41.3151 184.645 39.8347C185.935 38.3543 188.193 38.1957 189.698 39.4646C191.204 40.7335 191.365 42.9717 190.075 44.4344C189.358 45.2451 188.354 45.6681 187.351 45.6681C186.526 45.6681 185.702 45.3861 185.021 44.8045ZM-17.4075 31.5163C-18.5008 29.895 -18.0168 27.7096 -16.368 26.6346C-14.7013 25.5772 -12.4969 26.0354 -11.4037 27.6744C-10.3284 29.2958 -10.7943 31.4811 -12.4431 32.5385C-13.0525 32.9262 -13.7335 33.1201 -14.3966 33.1201C-15.5795 33.1201 -16.7265 32.5561 -17.4075 31.5163ZM168.103 32.327H168.121C166.454 31.2696 165.988 29.0843 167.063 27.4629C168.138 25.8239 170.361 25.3657 172.01 26.4231C173.676 27.4805 174.142 29.6659 173.067 31.3049C172.386 32.3446 171.239 32.9086 170.056 32.9086C169.393 32.9086 168.712 32.7147 168.103 32.327ZM1.21341 20.7131C0.371078 18.9507 1.12383 16.8359 2.91602 16.0076C4.69029 15.1793 6.84087 15.9194 7.68321 17.6818C8.54346 19.4265 7.77281 21.5414 5.99854 22.3697C5.49673 22.5988 4.97702 22.7222 4.45728 22.7222C3.11314 22.7222 1.82276 21.982 1.21341 20.7131ZM149.643 22.2111C147.851 21.3651 147.08 19.2679 147.922 17.5056C148.783 15.7608 150.915 15.003 152.708 15.8313C154.5 16.6596 155.253 18.7568 154.41 20.5192C153.801 21.8057 152.51 22.5459 151.166 22.5459C150.664 22.5459 150.127 22.4402 149.643 22.2111ZM21.1426 12.43C20.5333 10.5795 21.5548 8.58802 23.4545 7.98882C25.3184 7.38962 27.3436 8.41179 27.9529 10.2623C28.5623 12.1127 27.5228 14.1042 25.641 14.7034C25.2826 14.8092 24.9062 14.862 24.5477 14.862C23.0244 14.862 21.6265 13.928 21.1426 12.43ZM129.947 14.5801C128.065 13.9808 127.025 11.9894 127.617 10.1389C128.226 8.28842 130.251 7.26625 132.133 7.86545C134.015 8.44703 135.054 10.4385 134.445 12.289C133.961 13.787 132.545 14.7387 131.04 14.7387C130.682 14.7387 130.305 14.6858 129.947 14.5801ZM41.9859 6.77279C41.6274 4.86944 42.8998 3.01896 44.8533 2.66649C46.8068 2.31402 48.6707 3.56529 49.0292 5.48627C49.3876 7.40724 48.1151 9.2401 46.1616 9.59257C45.9465 9.64544 45.7135 9.66306 45.4985 9.66306C43.8138 9.66306 42.3084 8.46466 41.9859 6.77279ZM109.408 9.52207C107.473 9.1696 106.182 7.33675 106.541 5.41577C106.899 3.51242 108.763 2.24352 110.716 2.596C112.652 2.93084 113.942 4.78132 113.584 6.68467C113.261 8.39416 111.756 9.57494 110.071 9.57494C109.856 9.57494 109.641 9.55732 109.408 9.52207ZM63.3847 3.75915C63.2771 1.82056 64.7826 0.146318 66.754 0.0405768C68.7254 -0.0827884 70.428 1.39759 70.5534 3.33619C70.661 5.27478 69.1555 6.94903 67.1841 7.07239H66.9691C65.0872 7.07239 63.5101 5.62726 63.3847 3.75915ZM88.3857 7.03714C86.4143 6.9314 84.9089 5.25716 85.0165 3.31856C85.124 1.37997 86.8266 -0.100412 88.798 0.00532962C90.7873 0.111071 92.2928 1.78531 92.1673 3.72391C92.0598 5.59201 90.4827 7.05477 88.6008 7.05477C88.6008 7.05477 88.4574 7.03714 88.3857 7.03714Z" fill="url(#paint0_linear_2_145)"/>
<path d="M78.1894 320.913C78.1894 320.913 78.0639 320.93 77.9922 320.93C75.0351 320.93 72.6156 318.551 72.6156 315.643C72.6156 312.718 75.0351 310.356 77.9922 310.356H78.3865C81.3616 310.339 83.7631 312.7 83.7811 315.626C83.7811 318.551 81.3794 320.913 78.4223 320.93H78.3865C78.3865 320.93 78.2611 320.93 78.1894 320.913ZM55.7511 319.415C52.8119 319.027 50.7509 316.348 51.1631 313.458C51.5753 310.568 54.2995 308.541 57.2387 308.946C60.1779 309.352 62.2209 312.03 61.8267 314.921C61.4503 317.564 59.1383 319.468 56.5038 319.468C56.2529 319.468 56.002 319.45 55.7511 319.415ZM94.57 314.868C94.1578 311.978 96.2009 309.316 99.1401 308.893C102.079 308.488 104.803 310.497 105.216 313.387C105.646 316.278 103.603 318.956 100.663 319.362C100.395 319.397 100.144 319.415 99.8929 319.415C97.2583 319.415 94.9643 317.511 94.57 314.868ZM33.9043 314.833C31.0547 314.022 29.4238 311.079 30.2482 308.277C31.0905 305.474 34.0655 303.871 36.9151 304.681C39.7647 305.492 41.4135 308.435 40.5712 311.237C39.8901 313.546 37.7395 315.044 35.4096 315.044C34.9257 315.044 34.4061 314.974 33.9043 314.833ZM115.808 311.132C114.965 308.329 116.596 305.404 119.446 304.576C122.295 303.747 125.288 305.351 126.131 308.153C126.955 310.955 125.342 313.881 122.492 314.709C121.973 314.868 121.471 314.938 120.969 314.938C118.639 314.938 116.507 313.44 115.808 311.132ZM12.9714 307.131C10.2652 305.897 9.10025 302.76 10.3548 300.099C11.5914 297.456 14.7994 296.293 17.4877 297.526C20.176 298.76 21.3589 301.897 20.1043 304.54C19.1903 306.479 17.2548 307.607 15.2296 307.607C14.4769 307.607 13.7062 307.448 12.9714 307.131ZM136.256 304.399C135.002 301.738 136.167 298.601 138.855 297.368C141.543 296.134 144.751 297.279 146.006 299.923C147.261 302.566 146.096 305.721 143.407 306.955C142.673 307.29 141.884 307.448 141.131 307.448C139.106 307.448 137.17 306.32 136.256 304.399ZM-6.56354 296.381C-9.03677 294.759 -9.71774 291.481 -8.06892 289.049C-6.4201 286.617 -3.08667 285.965 -0.613441 287.569C1.85979 289.19 2.52295 292.468 0.892052 294.9C-0.147415 296.434 -1.85001 297.262 -3.58843 297.262C-4.62791 297.262 -5.64952 296.98 -6.56354 296.381ZM155.451 294.706C153.784 292.274 154.447 288.996 156.921 287.375C159.394 285.736 162.727 286.406 164.376 288.82C166.025 291.252 165.38 294.53 162.906 296.152C161.974 296.768 160.935 297.05 159.913 297.05C158.175 297.05 156.472 296.222 155.451 294.706ZM-24.1987 282.828C-26.3851 280.854 -26.5465 277.523 -24.5392 275.356C-22.5319 273.206 -19.1447 273.047 -16.9403 275.021C-14.7538 276.995 -14.6104 280.343 -16.5998 282.493C-17.6572 283.639 -19.1089 284.22 -20.5785 284.22C-21.8689 284.22 -23.1592 283.762 -24.1987 282.828ZM172.889 282.246C170.882 280.096 171.025 276.748 173.211 274.774C175.398 272.8 178.803 272.941 180.81 275.091C182.818 277.241 182.674 280.59 180.488 282.564C179.466 283.498 178.158 283.956 176.85 283.956C175.398 283.956 173.946 283.374 172.889 282.246ZM-39.5041 266.791C-41.368 264.517 -40.9916 261.186 -38.6796 259.353C-36.3677 257.521 -32.9805 257.891 -31.1166 260.164C-29.2707 262.438 -29.629 265.768 -31.941 267.601C-32.9446 268.394 -34.1274 268.764 -35.3103 268.764C-36.8874 268.764 -38.4467 268.095 -39.5041 266.791ZM188.194 267.302C185.882 265.486 185.506 262.156 187.352 259.865C189.216 257.591 192.585 257.221 194.915 259.036C197.227 260.869 197.603 264.182 195.757 266.473C194.7 267.778 193.123 268.465 191.546 268.465C190.381 268.465 189.198 268.077 188.194 267.302ZM-52.139 248.638C-53.6445 246.118 -52.7663 242.893 -50.1855 241.413C-47.6227 239.95 -44.343 240.813 -42.8375 243.351C-41.35 245.871 -42.2282 249.114 -44.7911 250.577C-45.6513 251.053 -46.5832 251.282 -47.4972 251.282C-49.3432 251.282 -51.1533 250.33 -52.139 248.638ZM201.008 250.224C198.446 248.762 197.55 245.537 199.037 242.999C200.525 240.479 203.804 239.597 206.385 241.06C208.948 242.523 209.844 245.748 208.356 248.286C207.371 249.978 205.543 250.929 203.697 250.929C202.783 250.929 201.851 250.7 201.008 250.224ZM-61.8886 228.865C-62.9639 226.151 -61.6197 223.066 -58.8598 221.991C-56.0998 220.934 -52.9813 222.256 -51.8881 224.97C-50.7949 227.684 -52.139 230.75 -54.899 231.825C-55.5621 232.09 -56.2253 232.213 -56.8884 232.213C-59.0211 232.213 -61.0462 230.944 -61.8886 228.865ZM211.063 231.455C208.303 230.398 206.941 227.331 208.016 224.6C209.109 221.886 212.228 220.546 214.988 221.621C217.765 222.679 219.11 225.763 218.034 228.477C217.21 230.556 215.167 231.825 213.034 231.825C212.371 231.825 211.708 231.702 211.063 231.455ZM-68.5914 207.928C-69.2724 205.073 -67.4802 202.235 -64.5948 201.548C-61.7094 200.878 -58.806 202.641 -58.125 205.478C-57.4261 208.315 -59.2182 211.17 -62.1036 211.84C-62.5338 211.928 -62.946 211.981 -63.3582 211.981C-65.7956 211.981 -67.9999 210.342 -68.5914 207.928ZM218.213 211.452C215.31 210.783 213.518 207.928 214.199 205.09C214.88 202.253 217.783 200.491 220.669 201.16C223.554 201.83 225.346 204.667 224.665 207.522C224.074 209.954 221.87 211.593 219.432 211.593C219.02 211.593 218.608 211.541 218.196 211.452H218.213ZM-72.2474 186.304C-72.5342 183.396 -70.3657 180.805 -67.4086 180.523C-64.4514 180.241 -61.8348 182.356 -61.5481 185.264C-61.2434 188.172 -63.4119 190.762 -66.3691 191.044C-66.5483 191.062 -66.7275 191.08 -66.9067 191.08C-69.6308 191.08 -71.9786 189.035 -72.2474 186.304ZM222.407 190.657C219.468 190.375 217.299 187.784 217.568 184.894C217.855 181.968 220.472 179.853 223.429 180.118C226.386 180.4 228.555 182.973 228.268 185.881C228.017 188.63 225.669 190.674 222.927 190.674C222.766 190.674 222.586 190.674 222.407 190.674V190.657ZM-67.7669 169.878C-70.724 169.79 -73.0539 167.358 -72.9643 164.433C-72.8747 161.507 -70.4014 159.216 -67.4264 159.322C-64.4514 159.41 -62.1215 161.842 -62.2112 164.768C-62.3008 167.623 -64.7023 169.878 -67.5877 169.878H-67.7669ZM218.196 164.38C218.106 161.454 220.418 159.005 223.393 158.916C226.35 158.811 228.841 161.102 228.949 164.01C229.038 166.935 226.726 169.385 223.751 169.473H223.572C220.687 169.473 218.285 167.235 218.196 164.38ZM-66.387 148.712C-69.3262 148.237 -71.2976 145.523 -70.8316 142.632C-70.3477 139.76 -67.5698 137.803 -64.6485 138.279C-61.7272 138.755 -59.738 141.469 -60.2218 144.359C-60.652 146.95 -62.9281 148.783 -65.5088 148.783C-65.7956 148.783 -66.1003 148.783 -66.387 148.712ZM216.135 143.972C215.651 141.081 217.64 138.367 220.561 137.892C223.483 137.398 226.26 139.354 226.744 142.227C227.246 145.117 225.257 147.831 222.336 148.307C222.031 148.36 221.726 148.378 221.44 148.378C218.859 148.378 216.583 146.545 216.135 143.972ZM-62.1753 127.917C-65.0069 127.053 -66.5841 124.075 -65.706 121.29C-64.8099 118.506 -61.799 116.955 -58.9673 117.818C-56.1356 118.682 -54.5585 121.643 -55.4367 124.445C-56.1536 126.701 -58.2684 128.163 -60.5624 128.163C-61.1 128.163 -61.6376 128.075 -62.1753 127.917ZM211.314 124.075C210.417 121.29 211.995 118.312 214.826 117.431C217.658 116.567 220.669 118.1 221.565 120.902C222.461 123.687 220.884 126.648 218.052 127.529C217.515 127.687 216.977 127.776 216.439 127.776C214.145 127.776 212.03 126.33 211.314 124.075ZM-55.0065 107.914C-57.6769 106.645 -58.806 103.49 -57.5156 100.847C-56.2252 98.2208 -52.9993 97.1105 -50.3289 98.3794C-47.6585 99.6483 -46.5295 102.803 -47.8199 105.429C-48.7339 107.332 -50.6694 108.425 -52.6587 108.425C-53.4473 108.425 -54.236 108.266 -54.9887 107.914H-55.0065ZM203.661 105.076C202.37 102.45 203.482 99.2958 206.152 98.0269C208.822 96.7404 212.03 97.8507 213.339 100.477C214.629 103.103 213.5 106.257 210.83 107.544C210.077 107.896 209.288 108.072 208.5 108.072C206.51 108.072 204.593 106.962 203.661 105.076ZM-44.9344 89.127C-47.3897 87.488 -48.017 84.1924 -46.3503 81.7956C-44.6656 79.3812 -41.3321 78.7467 -38.8767 80.4033C-36.4214 82.0423 -35.7942 85.3379 -37.461 87.7524C-38.5004 89.2504 -40.1851 90.0611 -41.9056 90.0611C-42.945 90.0611 -44.0024 89.7615 -44.9344 89.127ZM193.248 87.4351C191.564 85.0383 192.173 81.7427 194.628 80.0861C197.066 78.4295 200.417 79.0463 202.102 81.4607C203.786 83.8576 203.159 87.1532 200.722 88.8098C199.79 89.4266 198.714 89.7438 197.675 89.7438C195.954 89.7438 194.288 88.9332 193.248 87.4351ZM-32.1023 72.085C-34.2529 70.0935 -34.3784 66.745 -32.3532 64.6126C-30.3281 62.4801 -26.9228 62.3744 -24.7722 64.3658C-22.6036 66.3573 -22.4783 69.7058 -24.5214 71.8382C-25.5788 72.9485 -27.0124 73.5125 -28.4462 73.5125C-29.7545 73.5125 -31.0808 73.0367 -32.1203 72.085H-32.1023ZM180.237 71.5915C178.212 69.4591 178.301 66.1106 180.47 64.1015C182.638 62.11 186.044 62.2158 188.069 64.3306C190.112 66.463 190.004 69.8115 187.836 71.803C186.796 72.7723 185.488 73.2481 184.162 73.2481C182.728 73.2481 181.294 72.6842 180.237 71.5915ZM-16.7611 57.1754C-18.5892 54.8843 -18.1769 51.5535 -15.8292 49.7559C-13.4993 47.9583 -10.112 48.3636 -8.28397 50.6723C-6.45593 52.9634 -6.86817 56.2942 -9.21595 58.0918C-10.1837 58.8496 -11.3487 59.2021 -12.5136 59.2021C-14.1087 59.2021 -15.6858 58.5148 -16.7611 57.1754ZM164.914 57.8803C162.566 56.0827 162.154 52.7519 163.982 50.4608C165.81 48.1521 169.179 47.7292 171.527 49.5268C173.857 51.3244 174.287 54.6376 172.459 56.9463C171.401 58.2857 169.824 58.9906 168.211 58.9906C167.064 58.9906 165.899 58.6205 164.914 57.8803ZM0.730705 44.786C-0.72097 42.2306 0.211014 39.0055 2.79178 37.5956C5.39046 36.1681 8.67011 37.0669 10.1218 39.6223C11.5555 42.1777 10.6416 45.3852 8.04289 46.8127C7.21848 47.2709 6.30443 47.4824 5.42625 47.4824C3.54445 47.4824 1.71642 46.5131 0.730705 44.786ZM147.619 46.6365C145.02 45.2266 144.088 42.0015 145.54 39.4461C146.974 36.8906 150.254 35.9742 152.852 37.4017C155.433 38.8116 156.383 42.0367 154.931 44.5921C153.945 46.3193 152.117 47.3062 150.236 47.3062C149.339 47.3062 148.443 47.0947 147.619 46.6365ZM19.9431 35.1459C18.9036 32.4142 20.3194 29.3654 23.0973 28.3432C25.8752 27.321 28.9757 28.7133 30.0152 31.4449C31.0547 34.1766 29.6388 37.2255 26.8609 38.2477C26.2337 38.4768 25.6064 38.5825 24.9792 38.5825C22.8106 38.5825 20.7496 37.2784 19.9431 35.1459ZM128.765 38.1243C125.987 37.1021 124.571 34.0532 125.593 31.3216C126.632 28.5899 129.715 27.18 132.511 28.2022C135.289 29.2244 136.722 32.2556 135.683 35.0049C134.876 37.1374 132.815 38.4415 130.629 38.4415C130.02 38.4415 129.374 38.3358 128.765 38.1243ZM40.4099 28.4666C39.8006 25.6115 41.6465 22.8094 44.5499 22.1925C47.4532 21.5757 50.3028 23.4086 50.9301 26.2636C51.5574 29.1186 49.6935 31.9208 46.7901 32.5376C46.4138 32.6081 46.0374 32.661 45.661 32.661C43.1878 32.661 40.9476 30.9515 40.4099 28.4666ZM108.818 32.4495C105.915 31.8503 104.051 29.0481 104.66 26.1931C105.287 23.3381 108.137 21.5052 111.04 22.1044C113.944 22.7036 115.808 25.5234 115.198 28.3784C114.661 30.8634 112.42 32.5729 109.929 32.5729C109.571 32.5729 109.194 32.5376 108.818 32.4495ZM61.6474 24.7832C61.4502 21.8753 63.6906 19.3375 66.6477 19.1437C69.6048 18.9498 72.1676 21.1351 72.3826 24.0606C72.5798 26.9685 70.3575 29.4887 67.3824 29.7002H67.006C64.2102 29.7002 61.8445 27.5677 61.6474 24.7832ZM88.2077 29.665C85.2506 29.4711 83.0104 26.9509 83.2075 24.043C83.4047 21.1351 85.9675 18.9322 88.9426 19.126C91.8997 19.3199 94.1399 21.8225 93.9428 24.748C93.7456 27.5325 91.3799 29.6826 88.5841 29.6826C88.4587 29.6826 88.3332 29.6826 88.2077 29.6826V29.665Z" fill="url(#paint1_linear_2_145)"/>
<path d="M78.1714 301.862H77.9921C74.0314 301.862 70.8234 298.707 70.8234 294.812C70.8234 290.918 74.0314 287.763 77.9921 287.763H78.3327C82.2755 287.763 85.5014 290.9 85.5014 294.795C85.5014 298.69 82.3114 301.844 78.3506 301.862H78.1714ZM55.4464 300.082C51.5394 299.447 48.8869 295.835 49.5321 291.993C50.1594 288.151 53.8513 285.542 57.7583 286.159C61.6653 286.794 64.3177 290.424 63.6725 294.266C63.099 297.72 60.0702 300.17 56.6113 300.17C56.2349 300.17 55.8407 300.17 55.4464 300.082ZM92.6702 294.231C92.025 290.371 94.6596 286.741 98.5666 286.106C102.474 285.472 106.165 288.08 106.811 291.922C107.456 295.764 104.821 299.377 100.896 300.029C100.502 300.082 100.108 300.117 99.7315 300.117C96.2725 300.117 93.2437 297.667 92.6702 294.231ZM33.4561 294.654C29.7105 293.385 27.7212 289.367 29.0115 285.683C30.3019 282 34.3701 280.044 38.1158 281.313C41.8615 282.582 43.8509 286.6 42.5605 290.283C41.539 293.191 38.761 295.041 35.786 295.041C35.0153 295.041 34.2268 294.9 33.4561 294.654ZM113.764 290.195C112.474 286.512 114.445 282.493 118.173 281.207C121.919 279.938 126.005 281.877 127.313 285.56C128.604 289.226 126.632 293.244 122.887 294.53C122.116 294.795 121.309 294.918 120.539 294.918C117.564 294.918 114.786 293.103 113.764 290.195ZM12.6846 285.542C9.22562 283.657 7.98903 279.356 9.90668 275.955C11.8243 272.554 16.1973 271.338 19.6562 273.223C23.1152 275.109 24.3697 279.409 22.4341 282.811C21.1258 285.137 18.6884 286.441 16.1614 286.441C14.9786 286.441 13.7957 286.142 12.6846 285.542ZM133.855 282.67C131.919 279.268 133.156 274.968 136.615 273.065C140.074 271.179 144.429 272.377 146.364 275.779C148.3 279.18 147.081 283.463 143.622 285.384C142.511 285.983 141.31 286.265 140.11 286.265C137.619 286.265 135.181 284.978 133.855 282.67ZM-6.13348 272.977C-9.19814 270.509 -9.64618 266.068 -7.13711 263.055C-4.62804 260.041 -0.111698 259.6 2.95296 262.068C5.99969 264.535 6.44772 268.976 3.93864 271.99C2.52281 273.699 0.479767 274.58 -1.59918 274.58C-3.19423 274.58 -4.80728 274.052 -6.15142 272.977H-6.13348ZM152.297 271.796C149.77 268.8 150.218 264.359 153.264 261.874C156.329 259.407 160.845 259.829 163.354 262.843C165.881 265.839 165.433 270.28 162.387 272.765C161.042 273.84 159.429 274.369 157.834 274.369C155.755 274.369 153.712 273.488 152.297 271.796ZM-22.3528 257.309C-24.9336 254.349 -24.5572 249.907 -21.5463 247.387C-18.5354 244.849 -14.0191 245.22 -11.4383 248.18C-8.87547 251.141 -9.23393 255.582 -12.2448 258.12C-13.6069 259.248 -15.2558 259.794 -16.9046 259.794C-18.9298 259.794 -20.937 258.948 -22.3528 257.309ZM168.48 257.873C165.451 255.353 165.075 250.912 167.638 247.934C170.201 244.973 174.717 244.603 177.746 247.123C180.757 249.643 181.133 254.084 178.57 257.045C177.154 258.702 175.129 259.548 173.104 259.548C171.473 259.548 169.824 259.001 168.48 257.873ZM-35.5075 239.087C-37.4968 235.738 -36.3498 231.42 -32.9267 229.446C-29.5215 227.49 -25.1307 228.618 -23.1414 231.967C-21.1341 235.333 -22.2811 239.65 -25.7042 241.624C-26.8333 242.276 -28.0879 242.576 -29.3066 242.576C-31.7798 242.576 -34.1812 241.342 -35.5075 239.087ZM181.886 241.342C178.463 239.386 177.298 235.068 179.287 231.702C181.276 228.336 185.667 227.191 189.09 229.147C192.513 231.103 193.678 235.421 191.689 238.787C190.363 241.043 187.961 242.294 185.488 242.294C184.269 242.294 183.033 241.994 181.904 241.342H181.886ZM-45.2213 218.925H-45.2392C-46.6192 215.277 -44.7194 211.224 -41.0275 209.849C-37.3176 208.492 -33.1777 210.342 -31.7977 213.99C-30.4177 217.639 -32.2995 221.71 -36.0093 223.067C-36.8338 223.366 -37.6761 223.507 -38.5185 223.507C-41.4218 223.507 -44.1459 221.762 -45.2213 218.925ZM192.137 222.767C188.427 221.41 186.527 217.357 187.907 213.709C189.27 210.043 193.41 208.192 197.119 209.532C200.829 210.889 202.729 214.942 201.349 218.59C200.274 221.445 197.532 223.208 194.628 223.208C193.804 223.208 192.961 223.067 192.137 222.767ZM-51.3505 197.495C-52.1212 193.67 -49.5763 189.97 -45.6872 189.229C-41.7982 188.472 -38.0346 190.974 -37.2818 194.798C-36.5291 198.605 -39.0561 202.324 -42.9451 203.064C-43.4111 203.152 -43.8771 203.187 -44.3252 203.187C-47.6945 203.187 -50.6874 200.861 -51.3505 197.495ZM199.019 202.729C195.148 202.006 192.585 198.305 193.338 194.481C194.091 190.657 197.836 188.154 201.725 188.894C205.614 189.635 208.159 193.318 207.425 197.142C206.761 200.526 203.751 202.87 200.381 202.87C199.933 202.87 199.485 202.817 199.019 202.729ZM-53.9313 175.43C-54.0747 171.535 -50.9921 168.275 -47.0314 168.116C-43.0706 167.975 -39.7371 171.007 -39.5937 174.901C-39.4504 178.796 -42.5329 182.074 -46.4936 182.215H-46.7625C-50.5978 182.215 -53.7879 179.237 -53.9313 175.43ZM202.514 181.88C198.553 181.739 195.471 178.479 195.596 174.584C195.739 170.707 199.055 167.658 203.016 167.781C206.976 167.922 210.077 171.183 209.934 175.078C209.79 178.884 206.618 181.88 202.765 181.88H202.514ZM-46.7805 161.067C-50.7054 160.644 -53.537 157.154 -53.0889 153.277C-52.6588 149.418 -49.1103 146.633 -45.1674 147.056C-41.2425 147.497 -38.4109 150.986 -38.841 154.863C-39.2712 158.459 -42.3716 161.12 -45.956 161.12C-46.2248 161.12 -46.5116 161.12 -46.7805 161.067ZM194.807 154.546C194.359 150.669 197.173 147.179 201.116 146.739C205.041 146.298 208.589 149.065 209.055 152.942C209.503 156.802 206.672 160.291 202.747 160.732C202.46 160.767 202.191 160.785 201.922 160.785C198.32 160.785 195.22 158.141 194.807 154.546ZM-43.8233 140.13C-47.6407 139.09 -49.863 135.213 -48.8056 131.459C-47.7482 127.705 -43.7875 125.502 -39.9701 126.56C-36.1707 127.6 -33.9304 131.477 -34.9878 135.231C-35.8839 138.35 -38.7514 140.394 -41.9056 140.394C-42.5329 140.394 -43.1781 140.306 -43.8233 140.13ZM190.9 134.931C189.825 131.177 192.047 127.3 195.865 126.243C199.682 125.185 203.625 127.37 204.7 131.124C205.776 134.861 203.553 138.755 199.736 139.813C199.091 139.989 198.446 140.077 197.8 140.077C194.664 140.077 191.797 138.05 190.9 134.931ZM-37.4969 119.933C-41.0813 118.277 -42.6046 114.082 -40.9199 110.558C-39.2353 107.033 -34.9698 105.517 -31.3854 107.174C-27.8011 108.83 -26.2598 113.042 -27.9445 116.55C-29.1811 119.105 -31.7439 120.603 -34.4501 120.603C-35.4717 120.603 -36.5112 120.392 -37.4969 119.933ZM183.803 116.268C182.119 112.761 183.642 108.548 187.209 106.892C190.793 105.218 195.058 106.716 196.761 110.24C198.464 113.747 196.94 117.959 193.356 119.616C192.37 120.092 191.331 120.303 190.291 120.303C187.603 120.303 185.04 118.823 183.803 116.268ZM-27.7653 101.058C-31.0092 98.8202 -31.7797 94.4143 -29.4857 91.2421C-27.1917 88.0522 -22.7291 87.312 -19.4852 89.5502C-16.2593 91.806 -15.4887 96.1943 -17.7827 99.3842C-19.1807 101.323 -21.385 102.363 -23.6432 102.363C-25.059 102.363 -26.5108 101.94 -27.7653 101.058ZM173.588 99.1375C171.294 95.9652 172.047 91.5593 175.273 89.3035C178.498 87.0477 182.979 87.7879 185.273 90.9601C187.567 94.1324 186.814 98.5383 183.588 100.794C182.334 101.675 180.882 102.098 179.448 102.098C177.19 102.098 174.986 101.058 173.588 99.1375ZM-14.8435 84.175C-17.6214 81.3905 -17.5677 76.9317 -14.7539 74.2001C-11.9223 71.4684 -7.38795 71.5036 -4.61005 74.2882C-1.83215 77.0551 -1.86797 81.5315 -4.69964 84.2631C-6.09755 85.6025 -7.90776 86.2722 -9.71787 86.2722C-11.5818 86.2722 -13.4277 85.5673 -14.8435 84.175ZM160.487 84.0517C157.655 81.3376 157.601 76.8612 160.361 74.0767C163.121 71.2922 167.674 71.2393 170.505 73.971C173.337 76.685 173.391 81.1438 170.631 83.9459C169.215 85.3558 167.351 86.0607 165.487 86.0607C163.695 86.0607 161.885 85.391 160.487 84.0517ZM0.945709 69.8118C-1.27662 66.5867 -0.434288 62.216 2.84543 60.0307C6.12514 57.8277 10.5698 58.6737 12.7921 61.8988C15.0144 65.1063 14.1721 69.4946 10.9103 71.6799C9.67369 72.5082 8.25786 72.8959 6.87787 72.8959C4.58386 72.8959 2.3257 71.8209 0.945709 69.8118ZM144.841 71.5213C141.561 69.3359 140.701 64.9477 142.923 61.7225C145.128 58.4974 149.59 57.6515 152.87 59.8368C156.15 62.0222 157.01 66.3928 154.806 69.6179C153.408 71.6446 151.15 72.7197 148.856 72.7197C147.476 72.7197 146.078 72.332 144.841 71.5213ZM19.0827 58.4622C17.4697 54.9022 19.0827 50.743 22.703 49.1569C26.3232 47.5708 30.5707 49.1569 32.1836 52.7345C33.7966 56.2769 32.1837 60.4536 28.5456 62.0221C27.5957 62.4451 26.61 62.639 25.6243 62.639C22.8822 62.639 20.2656 61.0881 19.0827 58.4622ZM127.17 61.9164C123.55 60.3303 121.919 56.1711 123.514 52.6111C125.109 49.0512 129.339 47.4474 132.977 49.0159C136.597 50.5844 138.228 54.7612 136.633 58.3212C135.45 60.9471 132.815 62.5156 130.073 62.5156C129.106 62.5156 128.12 62.3218 127.17 61.9164ZM38.9582 50.4258C38.0083 46.6544 40.3381 42.83 44.1734 41.8784C48.0087 40.9267 51.9158 43.2178 52.8656 47.0068C53.8334 50.7783 51.5035 54.6026 47.6682 55.5543C47.0768 55.6953 46.4854 55.7658 45.9119 55.7658C42.7039 55.7658 39.7826 53.6333 38.9582 50.4258ZM108.029 55.4838C104.194 54.5497 101.846 50.7254 102.796 46.9363C103.746 43.1649 107.635 40.8562 111.488 41.7902C115.324 42.7419 117.671 46.5662 116.722 50.3377C115.897 53.5452 112.976 55.6953 109.768 55.6953C109.194 55.6953 108.621 55.6248 108.029 55.4838ZM59.9447 45.8613C59.6401 41.9841 62.5793 38.5828 66.5222 38.2832C70.465 37.9659 73.9239 40.8562 74.2465 44.7334C74.5691 48.6106 71.6119 52.0119 67.6691 52.3292C67.4899 52.3292 67.2928 52.3644 67.0957 52.3644C63.3858 52.3644 60.2494 49.5623 59.9447 45.8613ZM88.0106 52.3115C84.0677 52.0119 81.1106 48.6106 81.4153 44.7334C81.72 40.8562 85.1789 37.9483 89.1217 38.2479C93.0645 38.5475 96.0217 41.9489 95.717 45.8261C95.4302 49.527 92.276 52.3292 88.5661 52.3292C88.3869 52.3292 88.1898 52.3292 88.0106 52.3292V52.3115Z" fill="url(#paint2_linear_2_145)"/>
<path d="M78.2427 281.031H77.9918C74.0311 281.031 70.823 277.876 70.823 273.982C70.823 270.087 74.0311 266.932 77.9918 266.932H78.4578C82.4186 266.915 85.6445 270.052 85.6625 273.946C85.6804 277.841 82.4724 281.013 78.5116 281.031H78.2427ZM55.3743 278.899C51.5032 278.141 48.9583 274.44 49.729 270.616C50.4817 266.791 54.2631 264.306 58.1522 265.064C62.0233 265.804 64.5504 269.505 63.7977 273.33C63.1166 276.696 60.1237 279.022 56.7723 279.022C56.3063 279.022 55.8403 278.987 55.3743 278.899ZM92.6878 273.277C91.8993 269.452 94.4263 265.734 98.2974 264.976C102.186 264.201 105.968 266.668 106.739 270.492C107.527 274.316 105.018 278.017 101.129 278.793C100.645 278.881 100.179 278.934 99.7132 278.934C96.3618 278.934 93.3689 276.608 92.6878 273.277ZM33.5633 272.36C29.9252 270.845 28.2226 266.703 29.746 263.125C31.2872 259.53 35.4989 257.856 39.137 259.372C42.7931 260.87 44.4957 265.011 42.9724 268.606C41.8074 271.285 39.155 272.907 36.3592 272.907C35.4272 272.907 34.4774 272.73 33.5633 272.36ZM113.495 268.448C111.936 264.87 113.639 260.711 117.277 259.195C120.915 257.662 125.127 259.319 126.686 262.896C128.245 266.474 126.542 270.616 122.904 272.149C121.99 272.536 121.022 272.73 120.09 272.73C117.313 272.73 114.66 271.127 113.495 268.448ZM13.5803 261.486C10.3365 259.266 9.54791 254.86 11.8061 251.67C14.0822 248.48 18.5627 247.705 21.8065 249.943C25.0504 252.181 25.839 256.57 23.5629 259.759C22.165 261.716 19.9427 262.773 17.6845 262.773C16.2687 262.773 14.8169 262.35 13.5803 261.486ZM132.851 259.513C130.575 256.34 131.328 251.934 134.571 249.679C137.797 247.44 142.278 248.181 144.554 251.371C146.848 254.543 146.077 258.949 142.851 261.187C141.597 262.068 140.145 262.491 138.711 262.491C136.471 262.491 134.249 261.451 132.851 259.513ZM-3.64264 246.718C-6.33093 243.845 -6.15166 239.386 -3.2483 236.743C-0.344944 234.099 4.20718 234.276 6.89548 237.148H6.87753C9.56583 240.003 9.40458 244.462 6.48331 247.106C5.10332 248.357 3.36485 248.974 1.62642 248.974C-0.309151 248.974 -2.22681 248.216 -3.64264 246.718ZM149.859 246.771C146.938 244.145 146.74 239.686 149.411 236.813C152.081 233.941 156.615 233.747 159.519 236.373C162.44 238.999 162.637 243.458 159.967 246.33C158.551 247.846 156.615 248.621 154.68 248.621C152.959 248.621 151.221 248.004 149.841 246.771H149.859ZM-17.2812 228.707C-19.3064 225.34 -18.1774 221.023 -14.7722 219.049C-11.367 217.057 -6.97609 218.168 -4.9509 221.516C-2.94365 224.865 -4.05485 229.182 -7.46002 231.174C-8.60703 231.844 -9.87945 232.161 -11.1161 232.161C-13.5714 232.161 -15.955 230.927 -17.2812 228.707ZM163.73 230.769C160.325 228.795 159.178 224.477 161.186 221.128C163.193 217.762 167.584 216.634 170.989 218.608C174.412 220.582 175.541 224.9 173.552 228.248C172.208 230.487 169.824 231.738 167.351 231.738C166.132 231.738 164.877 231.421 163.73 230.769ZM-26.8336 208.351C-28.124 204.668 -26.1168 200.65 -22.3711 199.381C-18.6433 198.13 -14.5571 200.086 -13.2667 203.769C-11.9943 207.453 -13.9836 211.453 -17.7293 212.722C-18.4999 212.986 -19.2885 213.11 -20.0591 213.11C-23.0341 213.11 -25.8121 211.259 -26.8336 208.351ZM173.91 212.281C170.164 211.03 168.139 207.03 169.412 203.346C170.684 199.645 174.752 197.671 178.498 198.923C182.244 200.156 184.269 204.157 182.997 207.858C181.993 210.801 179.197 212.651 176.204 212.651C175.451 212.651 174.663 212.528 173.91 212.281ZM-32.0668 186.604C-32.6045 182.744 -29.8625 179.184 -25.9375 178.656C-22.0126 178.127 -18.4103 180.823 -17.8547 184.683C-17.2991 188.542 -20.0412 192.085 -23.9661 192.631C-24.3066 192.666 -24.6293 192.684 -24.9519 192.684C-28.4825 192.684 -31.5471 190.128 -32.0489 186.604H-32.0668ZM180.075 192.155C176.15 191.626 173.39 188.084 173.928 184.225C174.466 180.365 178.068 177.651 181.993 178.162C185.918 178.691 188.678 182.233 188.14 186.093C187.674 189.635 184.592 192.208 181.061 192.208C180.738 192.208 180.416 192.19 180.093 192.155H180.075ZM-26.2422 171.729C-30.2029 171.553 -33.2676 168.258 -33.1063 164.38C-32.9271 160.486 -29.5757 157.472 -25.6329 157.631C-21.6722 157.807 -18.6075 161.085 -18.7688 164.98C-18.948 168.769 -22.1202 171.729 -25.9196 171.729H-26.2422ZM174.752 164.521C174.555 160.644 177.62 157.331 181.563 157.155C185.524 156.961 188.875 159.975 189.072 163.869C189.251 167.747 186.205 171.06 182.244 171.236H181.903C178.104 171.236 174.932 168.31 174.752 164.521ZM-24.7009 150.757C-28.5541 149.876 -30.9557 146.087 -30.0596 142.298C-29.1635 138.491 -25.3103 136.147 -21.4571 137.029C-17.5859 137.91 -15.2023 141.699 -16.0984 145.488C-16.8691 148.748 -19.8082 150.934 -23.07 150.934C-23.6076 150.934 -24.1633 150.881 -24.7009 150.757ZM171.975 145.047C171.061 141.258 173.444 137.452 177.297 136.553C181.151 135.654 185.022 137.998 185.936 141.787C186.85 145.576 184.466 149.365 180.613 150.282C180.057 150.405 179.502 150.458 178.946 150.458C175.702 150.458 172.763 148.29 171.975 145.047ZM-19.1989 130.437C-22.7833 128.816 -24.3784 124.639 -22.7296 121.097C-21.0807 117.554 -16.8331 116.004 -13.2308 117.625C-9.62852 119.229 -8.05145 123.423 -9.70026 126.948H-9.68233C-10.901 129.556 -13.4997 131.072 -16.2239 131.072C-17.2096 131.072 -18.2311 130.878 -19.1989 130.437ZM165.487 126.543C163.838 123 165.397 118.823 169 117.184C172.584 115.545 176.849 117.096 178.498 120.621C180.165 124.163 178.606 128.34 175.003 129.979C174.036 130.42 173.014 130.631 172.01 130.631C169.304 130.631 166.705 129.116 165.487 126.543ZM-9.64645 111.615C-12.8366 109.307 -13.4997 104.883 -11.134 101.764C-8.78622 98.6267 -4.28777 97.9746 -1.11558 100.283C2.07452 102.61 2.73756 107.016 0.371861 110.153C-1.02605 112.021 -3.19453 113.008 -5.38101 113.008C-6.86853 113.008 -8.37399 112.549 -9.64645 111.615ZM155.343 109.782C152.977 106.681 153.622 102.257 156.795 99.9309C159.949 97.5869 164.447 98.2214 166.831 101.341C169.197 104.46 168.551 108.884 165.379 111.21C164.089 112.162 162.583 112.62 161.096 112.62C158.909 112.62 156.759 111.633 155.343 109.782ZM3.66954 95.1725C1.07086 92.247 1.35761 87.7882 4.33265 85.2151C7.32561 82.6597 11.8419 82.9593 14.4585 85.8848C17.0572 88.8104 16.7704 93.2691 13.7954 95.8246C12.4333 97.0053 10.7487 97.5693 9.06407 97.5693C7.07473 97.5693 5.08538 96.7586 3.66954 95.1725ZM141.866 95.5426C138.873 92.9871 138.55 88.5284 141.149 85.5852C143.747 82.6597 148.264 82.3425 151.257 84.8803C154.25 87.4357 154.572 91.8945 151.974 94.8376C150.558 96.4414 148.568 97.2697 146.561 97.2697C144.894 97.2697 143.21 96.6881 141.866 95.5426ZM20.2473 81.8843C18.3297 78.4829 19.5842 74.2004 23.0432 72.3147C26.5021 70.4289 30.8751 71.6626 32.7927 75.0639C34.7104 78.4653 33.4558 82.7655 29.979 84.6512C28.8857 85.2504 27.7029 85.5324 26.52 85.5324C23.993 85.5324 21.5557 84.2106 20.2473 81.8843ZM125.61 84.4221C122.134 82.554 120.861 78.2714 122.761 74.8525C124.661 71.4335 129.016 70.1822 132.493 72.0503C135.951 73.936 137.242 78.2186 135.342 81.6199C134.034 83.9639 131.579 85.2856 129.034 85.2856C127.887 85.2856 126.704 85.0213 125.61 84.4221ZM39.2984 72.3675C38.1514 68.6313 40.284 64.7013 44.0656 63.5557C47.8471 62.4278 51.8616 64.525 53.0086 68.2436C54.1735 71.9622 52.0409 75.9099 48.2594 77.0378C47.5783 77.2493 46.8614 77.355 46.1804 77.355C43.0978 77.355 40.2662 75.3988 39.3163 72.3675H39.2984ZM107.294 76.9144C103.513 75.7865 101.362 71.8564 102.491 68.1379C103.638 64.4017 107.635 62.2868 111.416 63.4147C115.216 64.525 117.366 68.4551 116.219 72.1913C115.287 75.2402 112.438 77.214 109.355 77.214C108.674 77.214 107.993 77.1083 107.294 76.9144ZM59.9444 66.9042C59.568 63.027 62.4535 59.5904 66.3964 59.2027C70.3392 58.8326 73.8339 61.67 74.2103 65.5472C74.6046 69.4244 71.7191 72.861 67.7763 73.2487C67.5433 73.2487 67.3104 73.2487 67.0774 73.2487C63.4213 73.2487 60.3028 70.5347 59.9444 66.8866V66.9042ZM87.7593 73.1958C83.8165 72.8434 80.9131 69.4068 81.2716 65.5296C81.6479 61.6524 85.1427 58.7973 89.0855 59.1674C93.0283 59.5199 95.9137 62.9565 95.5553 66.8337C95.2148 70.4818 92.0785 73.2311 88.4224 73.2311C88.2073 73.2311 87.9744 73.2311 87.7593 73.1958Z" fill="url(#paint3_linear_2_145)"/>
<path d="M72.6162 253.15C72.6162 250.225 75.0357 247.863 77.9928 247.863H78.3692C81.3263 247.846 83.7458 250.207 83.7637 253.133C83.7637 256.058 81.3801 258.42 78.4051 258.437H77.9928C75.0357 258.437 72.6162 256.076 72.6162 253.15ZM55.7158 255.812C52.8304 255.107 51.0741 252.234 51.7909 249.414C52.4899 246.577 55.4112 244.85 58.2966 245.537C61.182 246.242 62.9384 249.115 62.2215 251.934C61.6122 254.349 59.4258 255.97 57.0063 255.97C56.5762 255.97 56.146 255.917 55.7158 255.812ZM94.1585 251.881C93.4237 249.044 95.18 246.171 98.0475 245.449C100.933 244.744 103.854 246.453 104.589 249.291C105.306 252.128 103.568 255.001 100.682 255.706C100.234 255.812 99.8039 255.864 99.3559 255.864C96.9543 255.864 94.7678 254.278 94.1585 251.881ZM34.7114 247.775C32.1127 246.383 31.1449 243.175 32.5787 240.602C33.9945 238.047 37.2742 237.113 39.8729 238.505C42.4895 239.915 43.4394 243.123 42.0056 245.678C41.0378 247.44 39.1919 248.427 37.2921 248.427C36.414 248.427 35.5358 248.233 34.7114 247.775ZM114.321 245.519C112.887 242.964 113.837 239.756 116.435 238.347C119.034 236.919 122.296 237.853 123.748 240.409C125.181 242.964 124.232 246.189 121.633 247.599C120.808 248.04 119.912 248.251 119.034 248.251C117.152 248.251 115.306 247.264 114.321 245.519ZM16.5205 234.681C14.3878 232.654 14.3162 229.306 16.3593 227.191C18.4203 225.094 21.8255 225.023 23.9761 227.05C26.1089 229.077 26.1805 232.407 24.1194 234.522C23.062 235.597 21.6642 236.144 20.2483 236.144C18.9042 236.144 17.56 235.65 16.5205 234.681ZM132.153 234.293C130.092 232.196 130.146 228.847 132.278 226.803C134.411 224.776 137.816 224.829 139.877 226.926C141.956 229.024 141.885 232.372 139.752 234.399C138.695 235.403 137.35 235.897 136.006 235.897C134.59 235.897 133.192 235.351 132.135 234.293H132.153ZM2.45186 217.357C0.910571 214.854 1.735 211.612 4.26199 210.096C6.82483 208.58 10.1225 209.391 11.6458 211.894C13.1871 214.396 12.3627 217.639 9.8357 219.154C8.95752 219.666 8.00768 219.912 7.05781 219.912C5.22978 219.912 3.45549 218.996 2.45186 217.357ZM146.383 218.855C143.838 217.339 142.996 214.096 144.519 211.594C146.042 209.091 149.34 208.281 151.903 209.761C154.448 211.259 155.272 214.519 153.749 217.022C152.745 218.679 150.953 219.595 149.125 219.595C148.193 219.595 147.243 219.348 146.383 218.855ZM-6.63458 197.125C-7.49484 194.323 -5.86392 191.38 -3.03225 190.534C-0.182664 189.705 2.81028 191.292 3.67054 194.094C4.51287 196.896 2.89986 199.839 0.0502691 200.667C-0.451546 200.826 -0.971256 200.896 -1.49099 200.896C-3.80292 200.896 -5.93563 199.416 -6.63458 197.125ZM156.061 200.332C153.229 199.504 151.598 196.561 152.441 193.759C153.265 190.957 156.258 189.353 159.108 190.181C161.957 191.01 163.588 193.953 162.746 196.737C162.065 199.046 159.914 200.544 157.584 200.544C157.082 200.544 156.581 200.473 156.061 200.332ZM-10.452 175.413C-10.6133 172.487 -8.35509 170.002 -5.39796 169.844C-2.42292 169.667 0.121965 171.906 0.283263 174.813C0.444561 177.739 -1.83156 180.242 -4.78868 180.4H-5.09332C-7.92499 180.4 -10.2907 178.232 -10.452 175.413ZM160.828 180.03C157.871 179.871 155.577 177.386 155.738 174.479C155.9 171.553 158.427 169.315 161.384 169.473C164.341 169.614 166.635 172.099 166.473 175.025C166.33 177.845 163.947 180.03 161.115 180.03H160.828ZM-4.82445 159.551C-7.76365 159.076 -9.7351 156.344 -9.23329 153.471C-8.73147 150.581 -5.95353 148.642 -3.03225 149.136C-0.110976 149.629 1.86035 152.343 1.35854 155.234C0.92841 157.807 -1.34759 159.64 -3.92835 159.64C-4.23303 159.64 -4.51978 159.604 -4.82445 159.551ZM154.573 154.881C154.054 152.008 156.025 149.277 158.946 148.766C161.868 148.272 164.663 150.193 165.165 153.084C165.667 155.956 163.714 158.688 160.792 159.199C160.47 159.252 160.165 159.269 159.86 159.269C157.297 159.269 155.021 157.454 154.573 154.881ZM-0.0751982 139.267C-2.79933 138.086 -4.03593 134.966 -2.85308 132.288C-1.65231 129.626 1.50198 128.393 4.22612 129.574C6.95025 130.737 8.18685 133.856 7.004 136.535C6.12582 138.509 4.13648 139.707 2.07546 139.707C1.35858 139.707 0.623758 139.566 -0.0751982 139.267ZM148.856 136.218H148.838C147.638 133.539 148.874 130.42 151.598 129.239C154.305 128.058 157.477 129.239 158.677 131.935C159.878 134.614 158.677 137.733 155.935 138.914C155.236 139.214 154.502 139.372 153.767 139.372C151.706 139.355 149.734 138.192 148.856 136.218ZM9.62064 120.727C7.29079 118.911 6.91435 115.58 8.76031 113.307C10.6063 111.016 13.9936 110.628 16.3055 112.443C18.6353 114.276 19.0296 117.59 17.1837 119.881C16.1083 121.202 14.5492 121.872 12.9541 121.872C11.7892 121.872 10.6063 121.502 9.62064 120.727ZM138.605 119.616C136.741 117.343 137.117 114.012 139.429 112.179C141.741 110.346 145.128 110.716 146.992 112.99C148.856 115.281 148.48 118.594 146.168 120.427C145.164 121.22 143.982 121.59 142.799 121.59C141.222 121.59 139.662 120.92 138.605 119.616ZM23.8685 105.306C22.0942 102.962 22.614 99.6487 25.0155 97.9216C27.3992 96.1945 30.7685 96.688 32.5248 99.0495C34.2812 101.393 33.7614 104.707 31.3778 106.434C30.41 107.139 29.2989 107.474 28.2057 107.474C26.539 107.474 24.908 106.716 23.8685 105.306ZM124.339 106.24C121.938 104.53 121.418 101.217 123.156 98.8557C124.913 96.4941 128.264 95.9654 130.665 97.6925C133.067 99.402 133.605 102.715 131.866 105.077C130.809 106.504 129.16 107.262 127.511 107.262C126.4 107.262 125.307 106.927 124.339 106.24ZM41.7188 94.0973C40.6435 91.3833 42.0056 88.3168 44.7835 87.2593C47.5435 86.2019 50.6619 87.5413 51.7372 90.273C52.8125 92.987 51.4325 96.0535 48.6725 97.1109C48.0273 97.3577 47.3821 97.481 46.7369 97.481C44.5684 97.481 42.5432 96.1945 41.7188 94.0973ZM106.991 96.9876C104.231 95.9478 102.833 92.8813 103.908 90.1672C104.965 87.4356 108.084 86.0786 110.844 87.1184C113.622 88.1582 115.002 91.2247 113.944 93.9563C113.12 96.0535 111.095 97.3401 108.926 97.3401C108.281 97.3401 107.636 97.2343 106.991 96.9876ZM61.8989 87.8057C61.5405 84.8978 63.6553 82.2719 66.5945 81.9194C69.5516 81.5669 72.222 83.6289 72.5805 86.5368C72.9389 89.427 70.8241 92.0706 67.8849 92.4054C67.6699 92.4407 67.4547 92.4583 67.2396 92.4583C64.5514 92.4583 62.2395 90.4845 61.8989 87.8057ZM87.7603 92.3702C84.8211 92.0353 82.7063 89.4094 83.0468 86.5192C83.3873 83.6113 86.0577 81.5317 89.0149 81.8665C91.9541 82.2014 94.0689 84.8273 93.7283 87.7352C93.4058 90.4316 91.0758 92.4054 88.3875 92.4054C88.1904 92.4054 87.9754 92.4054 87.7603 92.3702Z" fill="url(#paint4_linear_2_145)"/>
<path d="M78.1358 235.845H77.9924C76.021 235.845 74.408 234.276 74.408 232.32C74.408 230.381 76.021 228.795 77.9924 228.795H78.2792C80.2507 228.795 81.8636 230.364 81.8636 232.302C81.8816 234.259 80.2865 235.845 78.2972 235.845H78.1358ZM55.1419 232.038C53.2781 231.386 52.2924 229.377 52.9555 227.544C53.6186 225.711 55.6617 224.742 57.5256 225.394C59.3895 226.046 60.3573 228.073 59.6942 229.906C59.1745 231.351 57.7945 232.249 56.3249 232.249C55.9127 232.249 55.5183 232.179 55.124 232.038H55.1419ZM96.5597 229.817C95.8965 227.985 96.8643 225.958 98.7281 225.306C100.592 224.636 102.653 225.588 103.334 227.421C103.997 229.253 103.029 231.28 101.166 231.932C100.771 232.073 100.359 232.144 99.9468 232.144C98.4772 232.144 97.1151 231.245 96.5775 229.817H96.5597ZM34.9798 220.618C33.4743 219.367 33.2951 217.128 34.5855 215.648C35.858 214.168 38.1341 213.991 39.6395 215.26C41.145 216.512 41.3241 218.75 40.0338 220.23C39.3348 221.041 38.3132 221.464 37.3096 221.464C36.4852 221.464 35.6608 221.182 34.9798 220.618ZM116.202 220.054C114.894 218.574 115.073 216.353 116.578 215.084C118.066 213.815 120.342 213.974 121.632 215.454C122.923 216.935 122.744 219.155 121.256 220.424C120.575 221.006 119.733 221.27 118.908 221.27C117.905 221.27 116.901 220.865 116.202 220.054ZM20.3196 202.871C19.3697 201.161 20.0149 199.011 21.7533 198.077C23.4918 197.143 25.6604 197.778 26.6102 199.487C27.5601 201.197 26.9329 203.329 25.1944 204.263C24.6389 204.563 24.0474 204.704 23.4739 204.704C22.2014 204.704 20.9827 204.034 20.3196 202.871ZM130.952 204.016C129.213 203.1 128.568 200.95 129.5 199.24C130.45 197.531 132.619 196.897 134.375 197.813C136.113 198.747 136.759 200.879 135.809 202.607C135.163 203.77 133.927 204.439 132.654 204.439C132.081 204.439 131.507 204.316 130.952 204.016ZM12.8999 181.264C12.5773 179.343 13.9215 177.528 15.875 177.229C17.8285 176.929 19.6565 178.233 19.9791 180.154C20.3017 182.075 18.9755 183.89 17.0041 184.19C16.8249 184.225 16.6277 184.225 16.4485 184.225C14.7101 184.225 13.1867 182.992 12.9178 181.264H12.8999ZM139.07 183.908C137.099 183.608 135.755 181.811 136.06 179.89C136.364 177.969 138.21 176.647 140.164 176.947C142.117 177.246 143.461 179.044 143.157 180.965C142.888 182.71 141.347 183.943 139.608 183.943C139.429 183.943 139.25 183.943 139.07 183.908ZM15.8571 162.566C13.9036 162.266 12.5595 160.469 12.8641 158.548C13.1688 156.627 15.0147 155.305 16.9682 155.604C18.9217 155.904 20.248 157.702 19.9433 159.623C19.6745 161.367 18.1511 162.619 16.4126 162.619C16.2334 162.619 16.0363 162.601 15.8571 162.566ZM136.006 159.358C135.683 157.437 137.027 155.622 138.981 155.322C140.934 155.005 142.762 156.327 143.085 158.248C143.39 160.169 142.063 161.967 140.11 162.284C139.913 162.319 139.734 162.319 139.536 162.319C137.816 162.319 136.293 161.085 136.006 159.358ZM21.6638 141.699C19.9253 140.765 19.2802 138.633 20.23 136.923C21.1799 135.196 23.3485 134.562 25.0869 135.496C26.8253 136.43 27.4705 138.562 26.5386 140.272C25.8755 141.453 24.6568 142.122 23.3843 142.122C22.7929 142.122 22.2193 141.981 21.6638 141.699ZM129.321 140.043C128.371 138.333 129.016 136.201 130.755 135.249C132.475 134.315 134.662 134.932 135.612 136.641C136.561 138.351 135.934 140.501 134.196 141.435C133.64 141.735 133.049 141.876 132.475 141.876C131.203 141.876 129.984 141.206 129.321 140.043ZM34.4601 124.093C33.1697 122.613 33.3488 120.392 34.8543 119.124C36.3597 117.855 38.6179 118.031 39.9083 119.511C41.1987 120.992 41.0195 123.212 39.5141 124.481C38.833 125.045 38.0086 125.327 37.1842 125.327C36.1627 125.327 35.159 124.904 34.4601 124.093ZM116.274 124.305C114.768 123.054 114.571 120.815 115.862 119.335C117.134 117.855 119.392 117.661 120.916 118.93C122.421 120.181 122.6 122.402 121.328 123.9C120.629 124.71 119.607 125.133 118.586 125.133C117.779 125.133 116.955 124.869 116.274 124.305ZM52.8121 112.18C52.149 110.347 53.1168 108.338 54.9807 107.686H54.9986C56.8625 107.034 58.9056 107.985 59.5687 109.818C60.2318 111.651 59.264 113.66 57.4001 114.33C57.0058 114.453 56.5937 114.524 56.1994 114.524C54.7298 114.524 53.3318 113.625 52.8121 112.18ZM98.3339 114.224C96.47 113.59 95.4843 111.581 96.1474 109.73C96.7926 107.897 98.8356 106.928 100.717 107.58C102.581 108.215 103.567 110.241 102.904 112.074C102.384 113.519 101.004 114.436 99.5167 114.436C99.1224 114.436 98.7282 114.365 98.3339 114.224ZM77.8491 110.893C75.8777 110.893 74.2647 109.325 74.2647 107.369C74.2647 105.43 75.8598 103.844 77.8491 103.844H77.8312C79.8205 103.844 81.4335 105.412 81.4335 107.351C81.4335 109.307 79.8384 110.893 77.867 110.893H77.8491Z" fill="url(#paint5_linear_2_145)"/>
<path d="M78.1003 213.25H77.9928C77.0071 213.25 76.2006 212.474 76.2006 211.487C76.2006 210.518 77.0071 209.725 77.9928 209.725H78.19C79.1757 209.725 79.9822 210.518 79.9822 211.487C79.9822 212.456 79.1936 213.25 78.2079 213.25H78.1003ZM55.9847 207.592C55.1245 207.117 54.8198 206.024 55.3216 205.196C55.8234 204.35 56.9166 204.05 57.7769 204.543C58.6372 205.019 58.9239 206.094 58.4221 206.94C58.0995 207.504 57.4901 207.821 56.8808 207.821C56.5761 207.821 56.2715 207.751 55.9847 207.592ZM97.7428 206.852C97.241 206.024 97.5277 204.931 98.388 204.455C99.2303 203.962 100.341 204.244 100.825 205.09C101.327 205.918 101.04 207.011 100.18 207.487C99.9114 207.663 99.5888 207.733 99.2841 207.733C98.6747 207.733 98.0654 207.416 97.7428 206.852ZM40.07 191.573C39.604 190.709 39.9266 189.652 40.7868 189.176C41.665 188.717 42.7404 189.017 43.2243 189.881C43.6903 190.727 43.3855 191.802 42.5074 192.277C42.2385 192.418 41.9518 192.489 41.6471 192.489C41.0199 192.489 40.4105 192.154 40.07 191.573ZM113.586 192.119C112.708 191.643 112.385 190.586 112.869 189.722C113.335 188.858 114.428 188.541 115.288 188.999C116.167 189.475 116.489 190.55 116.023 191.396C115.683 191.995 115.073 192.33 114.428 192.33C114.141 192.33 113.855 192.26 113.586 192.119ZM34.5859 169.878C34.5859 168.909 35.3924 168.115 36.3781 168.115C37.3817 168.115 38.1703 168.891 38.1703 169.878C38.1703 170.847 37.3817 171.64 36.3781 171.64C35.3924 171.64 34.5859 170.847 34.5859 169.878ZM117.815 169.702C117.815 168.715 118.622 167.922 119.608 167.922C120.593 167.922 121.4 168.715 121.4 169.684C121.4 170.653 120.611 171.446 119.626 171.446C118.622 171.446 117.815 170.671 117.815 169.702ZM40.7331 150.562C39.8729 150.087 39.5502 149.029 40.0162 148.166C40.4822 147.32 41.5755 147.002 42.4537 147.461C43.3139 147.919 43.6364 148.994 43.1705 149.857C42.8479 150.439 42.2206 150.774 41.5933 150.774C41.3066 150.774 41.0019 150.703 40.7331 150.562ZM112.743 149.699C112.26 148.835 112.582 147.76 113.442 147.302C114.321 146.826 115.414 147.143 115.88 147.989C116.364 148.853 116.041 149.928 115.181 150.386C114.894 150.545 114.607 150.615 114.321 150.615C113.675 150.615 113.066 150.28 112.743 149.699ZM55.2319 134.525C54.748 133.679 55.0349 132.604 55.8951 132.11C56.7554 131.635 57.8486 131.917 58.3325 132.763C58.8343 133.608 58.5476 134.684 57.6873 135.177C57.4006 135.336 57.0959 135.406 56.7912 135.406C56.1639 135.406 55.5724 135.089 55.2319 134.525ZM98.155 135.089C97.2947 134.595 96.9901 133.52 97.474 132.674C97.9758 131.828 99.069 131.529 99.9293 132.022C100.79 132.498 101.076 133.573 100.592 134.419C100.27 135.001 99.6604 135.318 99.0332 135.318C98.7285 135.318 98.4238 135.23 98.155 135.089ZM76.111 128.198C76.111 127.229 76.8996 126.436 77.8853 126.436C78.871 126.436 79.6775 127.211 79.6775 128.18C79.6775 129.167 78.871 129.96 77.8853 129.96C76.8996 129.96 76.0931 129.167 76.0931 128.198H76.111Z" fill="url(#paint6_linear_2_145)"/>
</g>
<defs>
<linearGradient id="paint0_linear_2_145" x1="78.009" y1="0.00532962" x2="78.009" y2="340" gradientUnits="userSpaceOnUse">
<stop stop-color="#00BDB5"/>
<stop offset="0.07" stop-color="#02A6A4"/>
<stop offset="0.2" stop-color="#068188"/>
<stop offset="0.33" stop-color="#096271"/>
<stop offset="0.48" stop-color="#0B4B5F"/>
<stop offset="0.63" stop-color="#0D3A52"/>
<stop offset="0.79" stop-color="#0E304B"/>
<stop offset="1" stop-color="#0F2D49"/>
</linearGradient>
<linearGradient id="paint1_linear_2_145" x1="11.466" y1="33.4717" x2="141.419" y2="307.903" gradientUnits="userSpaceOnUse">
<stop stop-color="#00BDB5"/>
<stop offset="0.07" stop-color="#02A6A4"/>
<stop offset="0.2" stop-color="#068188"/>
<stop offset="0.33" stop-color="#096271"/>
<stop offset="0.48" stop-color="#0B4B5F"/>
<stop offset="0.63" stop-color="#0D3A52"/>
<stop offset="0.79" stop-color="#0E304B"/>
<stop offset="1" stop-color="#0F2D49"/>
</linearGradient>
<linearGradient id="paint2_linear_2_145" x1="-26.7616" y1="87.876" x2="179.878" y2="255.457" gradientUnits="userSpaceOnUse">
<stop stop-color="#00BDB5"/>
<stop offset="0.07" stop-color="#02A6A4"/>
<stop offset="0.2" stop-color="#068188"/>
<stop offset="0.33" stop-color="#096271"/>
<stop offset="0.48" stop-color="#0B4B5F"/>
<stop offset="0.63" stop-color="#0D3A52"/>
<stop offset="0.79" stop-color="#0E304B"/>
<stop offset="1" stop-color="#0F2D49"/>
</linearGradient>
<linearGradient id="paint3_linear_2_145" x1="-30.8123" y1="145.523" x2="185.892" y2="195.813" gradientUnits="userSpaceOnUse">
<stop stop-color="#00BDB5"/>
<stop offset="0.07" stop-color="#02A6A4"/>
<stop offset="0.2" stop-color="#068188"/>
<stop offset="0.33" stop-color="#096271"/>
<stop offset="0.48" stop-color="#0B4B5F"/>
<stop offset="0.63" stop-color="#0D3A52"/>
<stop offset="0.79" stop-color="#0E304B"/>
<stop offset="1" stop-color="#0F2D49"/>
</linearGradient>
<linearGradient id="paint4_linear_2_145" x1="-8.42679" y1="189.459" x2="164.318" y2="149.376" gradientUnits="userSpaceOnUse">
<stop stop-color="#00BDB5"/>
<stop offset="0.07" stop-color="#02A6A4"/>
<stop offset="0.2" stop-color="#068188"/>
<stop offset="0.33" stop-color="#096271"/>
<stop offset="0.48" stop-color="#0B4B5F"/>
<stop offset="0.63" stop-color="#0D3A52"/>
<stop offset="0.79" stop-color="#0E304B"/>
<stop offset="1" stop-color="#0F2D49"/>
</linearGradient>
<linearGradient id="paint5_linear_2_145" x1="26.3235" y1="210.343" x2="128.343" y2="127.605" gradientUnits="userSpaceOnUse">
<stop stop-color="#00BDB5"/>
<stop offset="0.07" stop-color="#02A6A4"/>
<stop offset="0.2" stop-color="#068188"/>
<stop offset="0.33" stop-color="#096271"/>
<stop offset="0.48" stop-color="#0B4B5F"/>
<stop offset="0.63" stop-color="#0D3A52"/>
<stop offset="0.79" stop-color="#0E304B"/>
<stop offset="1" stop-color="#0F2D49"/>
</linearGradient>
<linearGradient id="paint6_linear_2_145" x1="58.8343" y1="208.949" x2="96.118" y2="130.211" gradientUnits="userSpaceOnUse">
<stop stop-color="#00BDB5"/>
<stop offset="0.07" stop-color="#02A6A4"/>
<stop offset="0.2" stop-color="#068188"/>
<stop offset="0.33" stop-color="#096271"/>
<stop offset="0.48" stop-color="#0B4B5F"/>
<stop offset="0.63" stop-color="#0D3A52"/>
<stop offset="0.79" stop-color="#0E304B"/>
<stop offset="1" stop-color="#0F2D49"/>
</linearGradient>
</defs>
</svg>
