<svg width="396" height="403" viewBox="0 0 396 403" fill="none" xmlns="http://www.w3.org/2000/svg">
<path d="M81.9395 105.926C58.6707 125.514 42.1995 152.938 33.8331 184.279C25.4668 215.36 25.2054 250.619 38.8007 280.915C52.6573 311.212 80.1093 337.069 112.79 349.083C145.471 361.358 183.12 359.791 226.781 353.001C270.182 346.21 319.334 334.196 343.91 302.854C368.486 271.252 368.486 220.061 360.381 169.653C352.538 119.246 336.851 69.0995 302.863 51.6005C269.136 33.8404 217.108 48.4664 176.061 61.5253C135.275 74.8454 105.208 86.3373 81.9395 105.926Z" fill="#B2D0D5"/>
<g clip-path="url(#clip0_2_164)">
<path d="M167.377 5.6583C189.191 5.44874 209.956 20.9567 216.038 41.9133C219.184 52.6012 218.555 64.1274 220.443 75.0248C222.331 86.1319 227.994 97.658 238.481 101.64C245.403 104.155 253.163 103.107 259.875 105.831C266.167 108.346 270.992 114.214 272.25 120.92C273.508 127.626 271.201 134.751 266.377 139.571C274.557 146.697 276.864 159.69 271.411 169.12C266.167 178.551 253.792 183.371 243.515 180.018C247.5 186.095 246.032 194.687 241.627 200.346C237.013 206.004 229.881 209.147 222.54 209.986C215.199 210.824 208.068 209.567 200.936 208.1C184.996 204.537 169.055 198.879 157.1 187.981C143.886 175.826 136.964 158.642 131.72 141.457C121.653 108.765 116.409 73.7674 124.589 40.6559" fill="#263238"/>
<path d="M240.578 187.143L258.197 225.703L296.79 140.619C298.678 133.703 300.566 125.949 300.985 124.483C301.614 122.177 301.824 119.662 301.614 117.148C301.405 114.214 300.985 110.232 299.936 108.136C298.888 105.622 301.405 102.897 303.502 104.155C305.809 105.412 309.165 112.328 308.956 121.549C308.956 130.56 339.998 109.184 345.032 114.214L341.256 144.182C337.9 147.325 328.252 155.917 322.799 160.738L286.303 251.48C282.947 260.701 275.186 268.036 265.748 270.76C251.905 274.742 237.013 268.664 230.091 256.09L206.6 214.596L240.578 187.143Z" fill="#FFBE9D"/>
<path d="M322.589 86.551C321.96 86.3414 321.331 86.7605 321.121 87.3892L300.985 146.906C300.566 147.954 300.985 149.211 302.034 149.84L325.945 163.252C326.994 163.881 328.042 163.252 328.462 162.204L350.905 100.382C351.324 99.125 350.905 97.8676 349.856 97.4484L322.589 86.551Z" fill="#263238"/>
<path d="M321.75 90.9519L303.292 143.972L326.994 156.546L347.339 101.011L321.75 90.9519Z" fill="#F5F5F5"/>
<path d="M342.725 104.574C342.095 106.46 340.837 109.394 339.998 111.07C339.578 111.909 338.53 112.328 337.691 112.118L325.106 106.879L320.701 107.508L321.96 105.202L320.492 104.574C319.653 104.155 319.233 103.107 319.443 102.268L322.379 96.4006C322.799 95.5623 323.847 95.1432 324.686 95.5623L341.886 102.478C342.725 102.688 343.144 103.735 342.725 104.574Z" fill="#E0E0E0"/>
<path d="M332.028 136.009C331.398 137.895 330.14 140.829 329.301 142.505C328.881 143.344 327.833 143.763 326.994 143.553L314.409 138.314L310.004 138.943L311.263 136.637L309.794 136.009C308.956 135.59 308.536 134.542 308.746 133.703L311.682 127.836C312.102 126.997 313.15 126.578 313.989 126.997L330.979 133.703C332.028 134.123 332.447 135.17 332.028 136.009Z" fill="#E0E0E0"/>
<path d="M317.555 112.118C316.716 113.795 315.458 116.729 314.619 118.615C314.199 119.453 314.619 120.501 315.458 120.92L328.042 126.159L330.559 129.722L331.398 127.207L332.867 127.836C333.706 128.255 334.754 127.836 335.174 126.997L337.691 120.92C338.11 120.082 337.691 119.034 336.852 118.615L319.862 111.28C318.814 110.861 317.975 111.28 317.555 112.118Z" fill="#E0E0E0"/>
<path d="M345.451 115.681C341.466 116.309 336.432 116.729 332.447 117.357C331.398 117.567 330.14 117.776 329.091 118.405C328.252 119.034 327.623 120.501 328.252 121.549C328.881 122.806 330.559 122.806 331.818 122.806C334.754 122.806 338.11 123.435 341.047 123.225C337.271 123.644 333.706 123.854 329.511 124.483C327.833 124.692 325.945 126.159 325.945 128.045C325.945 129.512 327.413 130.77 328.881 130.979C330.35 131.189 333.496 130.979 333.496 130.979C333.496 130.979 339.578 130.979 339.998 131.817C336.222 131.817 331.189 132.656 327.203 132.865C326.155 132.865 325.735 134.332 325.525 135.38C325.316 136.428 325.735 137.685 326.574 138.104C326.994 138.314 327.413 138.314 328.042 138.314C333.076 138.104 335.593 138.523 340.627 138.314" fill="#FFBE9D"/>
<path d="M253.373 253.366C253.792 253.366 252.324 246.869 253.792 238.906C255.261 231.152 259.036 225.494 258.617 225.284C258.617 225.284 257.358 226.541 256.1 228.847C254.841 231.152 253.373 234.715 252.534 238.696C251.695 242.678 251.905 246.45 252.114 249.175C252.744 251.899 253.163 253.366 253.373 253.366Z" fill="#EB996E"/>
<path d="M326.155 133.494C326.155 133.703 330.14 133.494 334.754 133.075C337.061 132.865 339.369 132.446 340.837 132.446C342.305 132.446 342.934 133.284 343.144 133.075C343.144 133.075 343.144 132.865 342.725 132.446C342.305 132.027 341.676 131.817 340.837 131.608C339.159 131.398 337.061 131.817 334.545 132.027C329.93 132.446 326.155 133.075 326.155 133.494Z" fill="#EB996E"/>
<path d="M327.623 124.692C327.623 124.902 331.398 124.692 336.222 124.273C338.53 124.063 340.627 123.644 342.095 123.644C343.564 123.644 344.193 124.483 344.403 124.273C344.612 124.273 343.983 123.016 342.305 122.806C341.466 122.596 340.417 122.806 339.578 122.806C338.53 123.016 337.481 123.016 336.222 123.225C331.398 123.644 327.623 124.483 327.623 124.692Z" fill="#EB996E"/>
<path d="M207.858 304.291C207.858 304.291 335.593 294.651 372.508 323.571C409.424 352.491 391.805 399.015 391.805 399.015H183.108L175.138 302.824L207.858 304.291Z" fill="#263238"/>
<path d="M183.947 370.514C183.947 370.514 184.576 370.514 185.835 370.304C187.093 370.095 188.771 369.885 191.078 369.675C195.693 369.047 202.405 368.208 210.585 366.741C226.945 364.017 249.597 359.197 273.928 352.072C286.093 348.509 297.629 344.737 308.326 342.222C319.023 339.707 328.672 338.031 337.061 337.612C345.242 337.193 351.953 337.821 356.568 338.66C358.875 338.869 360.553 339.498 361.811 339.707C363.07 339.917 363.699 340.127 363.699 340.127C363.699 340.127 363.07 339.917 362.021 339.498C360.763 339.288 359.085 338.66 356.778 338.24C352.163 337.193 345.451 336.564 337.061 336.773C328.672 336.983 318.814 338.66 308.117 341.174C297.419 343.689 285.883 347.461 273.718 351.024C249.388 358.149 226.945 362.969 210.585 365.903C202.405 367.37 195.693 368.418 191.288 369.256C188.981 369.675 187.303 369.885 186.044 370.095C184.576 370.304 183.947 370.514 183.947 370.514Z" fill="#455A64"/>
<path d="M304.341 341.803C304.551 342.013 308.955 337.402 315.877 333.84C322.799 330.277 329.091 329.229 329.091 329.019C329.091 328.81 327.413 329.019 324.896 329.439C322.379 329.858 319.023 331.115 315.458 332.792C311.892 334.678 309.165 336.773 307.278 338.66C305.18 340.336 304.341 341.593 304.341 341.803Z" fill="#455A64"/>
<path d="M115.57 292.136C115.57 292.136 232.398 295.279 269.314 324.199C306.229 353.12 288.61 399.643 288.61 399.643L69.6356 402.996V374.705L97.9513 371.562L98.161 370.304C87.0445 358.149 95.4343 316.236 113.892 294.022L115.57 292.136Z" fill="#263238"/>
<path d="M82.8496 373.657C82.8496 373.657 83.4788 373.657 84.7373 373.448C85.9958 373.238 87.6738 373.028 89.981 372.819C94.5954 372.19 101.307 371.352 109.487 369.885C125.847 367.161 148.5 362.341 172.83 355.215C184.996 351.653 196.532 347.88 207.229 345.366C217.926 342.851 227.574 341.174 235.964 340.755C244.144 340.336 250.856 340.965 255.47 341.803C257.778 342.013 259.455 342.641 260.714 342.851C261.972 343.06 262.602 343.27 262.602 343.27C262.602 343.27 261.972 343.06 260.924 342.641C259.665 342.432 257.987 341.803 255.68 341.384C251.066 340.336 244.354 339.707 235.964 339.917C227.574 340.126 217.716 341.803 207.019 344.318C196.322 346.833 184.786 350.605 172.621 354.167C148.29 361.293 125.847 366.113 109.487 369.047C101.307 370.514 94.5953 371.561 90.1907 372.4C87.8835 372.819 86.2055 373.028 84.947 373.238C83.4788 373.448 82.6398 373.448 82.8496 373.657Z" fill="#455A64"/>
<path d="M203.244 344.737C203.453 344.947 207.858 340.336 214.78 336.773C221.701 333.211 227.994 332.163 227.994 331.953C227.994 331.744 226.316 331.953 223.799 332.373C221.282 332.792 217.926 334.049 214.36 335.726C210.795 337.612 208.068 339.707 206.18 341.593C204.083 343.48 203.034 344.737 203.244 344.737Z" fill="#455A64"/>
<path d="M175.977 297.165C175.977 297.165 176.606 297.375 177.864 297.375C179.123 297.584 180.801 297.794 183.108 298.004C187.513 298.632 194.015 299.68 201.985 301.357C209.956 303.033 219.394 304.919 229.881 307.434C240.369 309.949 251.485 313.931 262.182 320.218C267.426 323.361 272.25 327.133 276.235 331.325C280.22 335.516 283.367 340.127 285.883 344.947C290.917 354.377 292.595 364.227 292.805 372.19C292.805 380.363 291.337 386.86 290.078 391.051C289.449 393.147 288.82 394.823 288.4 396.081C287.981 397.129 287.771 397.757 287.771 397.757C287.771 397.757 288.191 397.129 288.61 396.081C289.03 395.033 289.869 393.356 290.498 391.261C291.966 386.86 293.644 380.363 293.644 372.19C293.644 364.017 291.966 354.167 286.932 344.527C284.415 339.707 281.269 334.887 277.074 330.696C273.089 326.295 268.055 322.523 262.811 319.379C252.114 312.883 240.788 308.901 230.301 306.386C219.814 303.871 210.375 301.985 202.195 300.518C194.225 299.051 187.722 298.004 183.108 297.585C180.801 297.375 179.123 297.165 177.864 296.956C176.606 297.165 175.977 296.956 175.977 297.165Z" fill="#455A64"/>
<path d="M69.4259 376.172L49.5001 374.915L36.2861 382.669L10.9068 385.393C-1.25843 386.022 -3.14613 399.015 4.19496 399.015C10.0678 399.015 45.7246 401.32 45.7246 401.32L69.4259 401.949V376.172Z" fill="#E0E0E0"/>
<path d="M37.125 382.669C37.125 382.878 38.1737 383.507 40.2712 384.135C42.3687 384.764 45.3051 384.764 48.4513 383.716C51.5975 382.459 53.695 380.363 54.7437 378.687C56.0022 377.01 56.2119 375.543 56.0021 375.543C55.7924 375.543 55.3729 376.591 54.1144 378.268C52.856 379.735 50.7585 381.83 48.0318 382.878C45.3051 383.926 42.3687 383.926 40.481 383.716C38.3835 383.088 37.125 382.459 37.125 382.669Z" fill="#455A64"/>
<path d="M5.45339 398.805C5.45339 399.015 6.50212 399.224 7.97034 398.386C9.43856 397.757 10.697 395.662 11.3263 393.566C11.9555 391.261 11.7457 388.956 10.9068 387.698C10.0678 386.231 9.22881 386.022 9.01906 386.022C8.80932 386.231 9.6483 386.65 10.0678 388.117C10.697 389.375 10.697 391.261 10.2776 393.356C9.85806 395.452 8.80933 397.129 7.55085 397.757C6.29238 398.596 5.45339 398.596 5.45339 398.805Z" fill="#455A64"/>
<path d="M201.985 133.494C201.985 133.494 226.945 188.191 225.477 197.412C224.008 206.633 216.877 243.726 216.877 243.726L211.633 304.081C211.633 304.081 117.667 292.764 115.57 292.764C113.682 292.764 118.506 242.888 118.506 242.888L104.244 147.116C104.244 147.116 110.746 134.123 140.32 129.512C158.148 126.578 201.985 133.494 201.985 133.494Z" fill="#054954"/>
<path d="M133.398 207.052C132.35 215.225 130.042 224.655 124.589 234.924C122.701 238.277 121.023 242.678 118.087 244.983C113.472 248.546 106.761 245.193 102.566 241.211C98.3708 237.229 94.1759 232.2 88.303 231.99C84.5276 231.781 81.1716 233.876 77.6059 234.505C74.0403 235.343 69.2161 234.086 68.3771 230.523C67.9576 228.428 68.7966 226.332 69.8453 224.446C78.8644 206.213 85.3665 188.819 90.1907 168.911C91.2394 164.929 95.4343 156.756 97.5318 153.193C99.6292 149.631 105.083 144.601 110.326 140.2" fill="#054954"/>
<path d="M184.366 129.722C210.165 130.56 229.672 147.744 235.125 160.109C241.627 174.569 246.661 191.963 254.212 206.004C255.68 208.728 257.568 211.453 258.197 214.387C258.826 217.53 257.987 221.093 255.261 222.56C251.275 224.865 245.612 221.931 242.047 224.655C240.159 226.122 239.53 228.847 237.852 230.733C235.754 233.038 232.398 233.457 229.462 233.667C223.589 234.295 217.716 234.924 212.053 235.553" fill="#054954"/>
<path d="M139.061 183.161C139.061 183.161 139.481 182.532 140.11 181.065C140.739 179.599 141.369 177.712 141.578 174.988C142.417 169.749 141.788 161.995 137.593 154.87C133.398 147.744 126.686 143.553 121.652 141.877C119.136 141.038 117.038 140.619 115.57 140.41C114.102 140.2 113.263 140.2 113.263 140.41C113.263 140.619 116.619 140.829 121.443 142.715C126.267 144.601 132.559 148.792 136.544 155.708C140.53 162.624 141.369 170.168 140.739 175.198C140.32 180.018 138.852 183.161 139.061 183.161Z" fill="#263238"/>
<path d="M210.165 161.785C210.165 161.785 210.585 162.833 211.424 164.51C211.843 165.348 212.472 166.396 213.102 167.653C213.731 168.911 214.36 170.378 214.989 171.845C216.458 174.988 217.716 178.97 219.184 183.371C220.443 187.772 221.491 192.801 222.121 198.04C222.75 203.28 222.75 208.309 222.54 212.92C222.33 217.53 221.701 221.721 221.072 225.074C220.862 226.751 220.443 228.218 220.023 229.685C219.814 230.942 219.394 232.2 219.184 233.038C218.765 234.924 218.345 235.972 218.555 235.972C218.555 235.972 218.975 234.924 219.604 233.038C220.023 232.2 220.233 230.942 220.653 229.685C221.072 228.428 221.491 226.751 221.701 225.074C222.54 221.721 222.96 217.53 223.379 212.92C223.589 208.309 223.589 203.07 222.96 197.831C222.33 192.592 221.282 187.562 220.023 182.952C218.765 178.551 217.087 174.569 215.619 171.425C214.989 169.749 214.15 168.492 213.521 167.234C212.892 165.977 212.263 164.929 211.633 164.091C211.004 162.624 210.375 161.785 210.165 161.785Z" fill="#263238"/>
<path d="M69.6356 223.188C69.6356 223.188 69.6356 223.398 69.8454 223.817C70.0551 224.236 70.4746 224.655 71.1038 225.284C72.3623 226.332 74.8792 227.17 77.6059 226.751C80.5424 226.332 83.4788 224.655 87.0445 224.027C90.6102 223.188 94.5954 224.865 97.7415 227.589C101.097 230.314 103.614 233.457 106.97 235.553C108.439 236.601 110.117 237.439 111.795 237.858C113.472 238.277 115.15 238.277 116.409 238.068C119.345 237.858 121.443 237.02 122.911 236.181C123.54 235.762 123.96 235.343 124.169 234.924C124.379 234.505 124.589 234.295 124.379 234.295C124.379 234.295 123.75 234.924 122.492 235.762C121.233 236.601 118.926 237.229 116.199 237.229C114.731 237.229 113.263 237.229 111.795 236.81C110.326 236.391 108.648 235.553 107.18 234.505C104.244 232.409 101.517 229.266 98.161 226.541C96.4831 225.284 94.5954 224.027 92.4979 223.398C90.6102 222.769 88.303 222.56 86.4153 222.979C82.6398 223.817 79.7034 225.494 76.9767 225.913C74.25 226.332 71.9428 225.703 70.6843 224.865C70.0551 223.817 69.8453 222.979 69.6356 223.188Z" fill="#FAFAFA"/>
<path d="M75.7182 210.824C75.7182 210.824 75.7182 211.034 75.9279 211.453C76.1377 211.872 76.3474 212.291 76.9767 212.92C78.0254 213.967 80.3326 214.806 83.0593 214.177C85.786 213.758 88.5127 211.872 91.8686 211.872C95.2246 211.662 98.7902 213.129 102.146 215.225C105.502 217.32 108.229 220.045 111.165 221.931C114.102 224.027 117.038 225.284 119.765 225.494C122.492 225.913 124.589 225.284 126.057 224.655C127.316 224.027 127.945 223.398 127.945 223.398C127.945 223.398 127.316 223.817 125.847 224.236C124.589 224.655 122.491 225.074 119.975 224.655C117.458 224.236 114.521 222.979 111.794 221.093C109.068 219.207 106.131 216.482 102.775 214.177C99.4195 211.872 95.644 210.405 91.8686 210.614C89.9809 210.614 88.5127 211.243 87.0445 211.872C85.5762 212.5 84.3178 212.92 83.0593 213.339C80.5424 213.967 78.4449 213.339 77.3962 212.5C75.928 211.662 75.9279 210.824 75.7182 210.824Z" fill="#FAFAFA"/>
<path d="M222.75 226.751C222.75 226.751 223.169 227.38 224.218 227.589C225.267 227.799 227.155 227.589 228.623 226.332C230.301 225.074 231.35 222.979 232.608 220.674C233.657 218.578 235.335 216.063 237.852 215.434C240.578 214.806 243.305 215.434 245.822 215.854C248.339 216.273 250.856 216.482 252.744 215.644C254.631 214.806 255.68 213.548 256.1 212.5C256.519 211.453 256.309 210.824 256.309 210.824C256.1 210.824 256.309 211.453 255.68 212.291C255.261 213.129 254.212 214.387 252.534 215.015C250.856 215.644 248.549 215.434 246.032 215.015C243.515 214.596 240.788 213.758 237.642 214.596C236.174 215.015 234.705 215.854 233.867 217.111C233.028 218.159 232.189 219.416 231.769 220.674C230.72 222.979 229.672 225.074 228.203 226.122C226.735 227.38 225.267 227.589 224.218 227.589C223.169 226.961 222.75 226.751 222.75 226.751Z" fill="#FAFAFA"/>
<path d="M225.896 214.387C225.896 214.387 226.316 214.596 227.155 214.387C227.994 214.177 229.042 213.339 229.672 212.081C230.511 210.824 231.14 209.357 232.398 208.519C233.867 207.68 235.754 207.89 237.852 208.1C239.949 208.519 242.047 208.519 243.934 208.1C245.822 207.68 247.29 206.842 248.549 206.004C250.856 204.327 251.695 202.651 251.695 202.651C251.485 202.441 250.436 203.908 248.129 205.375C245.822 206.842 242.047 207.89 238.061 207.052C235.964 206.842 233.657 206.423 231.979 207.68C230.301 208.938 229.672 210.614 229.042 211.872C228.413 213.129 227.574 213.758 226.945 214.177C226.316 214.387 225.896 214.387 225.896 214.387Z" fill="#FAFAFA"/>
<path d="M127.316 225.284C127.316 225.284 128.574 225.074 131.091 224.446C133.398 223.817 136.964 223.188 141.159 222.35C143.256 221.931 145.564 221.512 148.08 221.302C150.597 221.093 153.324 220.674 156.051 220.883C158.778 221.093 161.714 222.35 164.441 223.607C167.167 225.074 169.894 226.751 173.04 228.218C175.977 229.685 179.333 230.733 182.479 230.942C185.625 231.152 188.771 230.523 191.498 229.894C197.161 228.428 201.985 226.751 206.39 226.332C210.585 225.703 214.15 226.332 216.458 227.38C218.765 228.218 219.814 229.266 219.814 229.056C219.814 229.056 219.604 228.847 219.184 228.428C218.765 228.008 217.926 227.589 216.667 226.961C214.36 225.913 210.794 225.284 206.39 225.703C201.985 226.122 196.951 227.799 191.498 229.056C188.771 229.685 185.835 230.104 182.689 229.894C179.542 229.685 176.606 228.637 173.669 227.17C170.733 225.703 168.006 224.027 165.07 222.56C162.133 221.093 159.407 220.045 156.261 219.835C153.324 219.626 150.597 220.045 148.08 220.254C145.564 220.674 143.256 221.093 140.949 221.512C136.754 222.35 133.189 223.398 130.881 224.027C129.623 224.446 128.784 224.655 128.155 224.865C127.525 225.074 127.316 225.284 127.316 225.284Z" fill="#FAFAFA"/>
<path d="M125.218 235.762C125.218 235.762 126.477 235.343 128.784 234.295C131.091 233.457 134.237 231.99 138.432 230.733C140.53 230.104 142.837 229.475 145.354 229.266C147.871 229.056 150.597 229.266 153.114 230.314C158.568 232.2 163.602 235.972 169.894 238.487C173.04 239.744 176.396 240.163 179.542 240.163C182.689 240.163 185.835 239.744 188.561 239.115C194.225 238.068 199.258 237.02 203.453 236.81C207.648 236.601 211.214 237.229 213.521 238.068C215.828 238.906 216.877 239.744 216.877 239.535C216.877 239.535 216.667 239.325 216.038 238.906C215.409 238.487 214.57 238.068 213.521 237.648C211.214 236.601 207.648 235.972 203.244 235.972C198.839 235.972 193.805 237.02 188.142 238.068C182.479 238.906 176.186 239.744 170.104 237.229C164.021 234.924 158.987 230.942 153.324 229.056C150.597 228.218 147.661 227.799 145.144 228.008C142.627 228.428 140.32 229.056 138.222 229.685C134.028 231.152 130.881 232.409 128.574 233.457C127.525 234.086 126.686 234.505 126.057 234.715C125.428 235.553 125.008 235.762 125.218 235.762Z" fill="#FAFAFA"/>
<path d="M153.114 231.99C153.114 231.99 153.744 232.2 154.583 232.2C155.631 232.409 157.1 232.2 158.778 231.99C160.455 231.781 162.553 231.361 164.86 230.523C167.167 229.685 169.475 228.637 171.572 226.961C173.879 225.284 175.767 223.608 177.235 221.721C178.703 219.835 179.962 218.159 180.801 216.482C181.64 214.806 182.059 213.548 182.269 212.5C182.479 211.453 182.689 211.034 182.479 211.034C182.269 211.034 181.64 213.129 179.962 216.063C179.123 217.53 177.864 219.207 176.396 220.883C174.928 222.56 173.04 224.236 170.943 225.703C168.845 227.17 166.538 228.428 164.441 229.266C162.343 230.104 160.246 230.523 158.568 230.942C155.422 231.99 153.114 231.781 153.114 231.99Z" fill="#263238"/>
<g opacity="0.3">
<path d="M182.689 213.758C181.22 221.512 178.284 229.266 172.621 234.924C166.958 240.373 158.148 243.307 150.807 240.373C149.339 239.744 147.661 238.696 147.242 237.02C146.822 235.134 148.29 233.248 150.178 232.619C151.856 231.781 153.953 231.99 155.841 231.781C166.748 231.152 177.235 224.446 182.269 214.596" fill="black"/>
</g>
<path d="M121.233 244.774C121.233 244.774 121.653 244.145 122.072 242.678C122.492 241.421 123.331 239.535 124.169 237.02C125.847 232.2 127.945 225.494 130.252 218.159C132.35 210.824 134.237 203.908 135.286 199.088C135.915 196.573 136.335 194.687 136.545 193.22C136.754 191.753 136.964 191.125 136.964 191.125C136.964 191.125 136.544 191.753 136.335 193.22C135.915 194.897 135.286 196.783 134.657 199.088C133.398 203.908 131.511 210.614 129.203 218.159C127.106 225.494 125.008 232.2 123.54 237.02C122.911 239.325 122.282 241.211 121.862 242.678C121.233 243.935 121.023 244.774 121.233 244.774Z" fill="#263238"/>
<path d="M215.828 304.71C215.828 304.71 197.79 285.22 181.85 281.448C165.909 277.676 109.278 257.557 109.278 257.557L112.843 246.241C109.278 246.031 105.922 243.935 103.405 241.421L99.6292 237.858C94.5953 232.409 88.7224 229.475 79.9131 232.409L74.4597 234.086L68.7966 250.851C63.1335 267.407 74.0402 285.22 91.4491 287.525L215.828 304.71Z" fill="#FFBE9D"/>
<path d="M85.5762 260.072C85.786 260.491 90.6101 257.976 97.1123 257.348C103.614 256.719 108.858 257.976 108.858 257.767C109.068 257.557 103.614 255.671 96.9025 256.3C90.1906 256.929 85.5762 259.863 85.5762 260.072Z" fill="#EB996E"/>
<path d="M213.102 39.6081C214.78 13.2027 180.381 -5.23916 156.89 1.2574C134.867 7.5444 125.428 18.4419 121.862 33.1115C118.297 47.7812 118.506 63.7082 124.169 77.7492C127.106 84.6649 132.14 91.5806 139.481 92.6284" fill="#263238"/>
<path d="M142.837 23.4715C139.061 23.8906 136.125 27.2437 136.125 31.0159L140.32 131.817C140.53 143.763 157.939 150.469 170.733 150.259C183.528 150.05 184.157 143.763 184.157 132.236C184.367 113.376 184.367 106.25 184.367 106.25C184.367 106.25 200.727 103.526 204.083 82.3597C205.761 71.8813 205.131 54.4873 204.292 40.2368C203.453 27.4532 195.064 11.9453 182.269 13.2027L142.837 23.4715Z" fill="#FFBE9D"/>
<path d="M199.049 54.0682C199.049 55.5351 198 56.7925 196.322 56.7925C194.854 56.7925 193.595 55.7447 193.595 54.2777C193.595 52.8108 194.644 51.5534 196.322 51.5534C197.79 51.5534 199.049 52.8108 199.049 54.0682Z" fill="#263238"/>
<path d="M200.727 49.4577C200.307 49.8768 198.42 48.2003 195.483 48.2003C192.547 48.2003 190.449 49.6673 190.03 49.2481C189.82 49.0386 190.239 48.4099 191.078 47.7812C191.917 47.1525 193.595 46.5238 195.483 46.5238C197.371 46.5238 198.839 47.1525 199.678 47.9907C200.727 48.6194 200.936 49.2481 200.727 49.4577Z" fill="#263238"/>
<path d="M170.314 54.0682C170.314 55.5351 169.265 56.7925 167.587 56.7925C166.119 56.7925 164.86 55.7447 164.86 54.2777C164.86 52.8108 165.909 51.5534 167.587 51.5534C169.055 51.5534 170.314 52.8108 170.314 54.0682Z" fill="#263238"/>
<path d="M171.992 49.8768C171.572 50.296 169.684 48.6194 166.748 48.6194C163.811 48.6194 161.714 50.0864 161.295 49.6673C161.085 49.4577 161.504 48.829 162.343 48.2003C163.182 47.5716 164.86 46.9429 166.748 46.9429C168.636 46.9429 170.104 47.5716 170.943 48.4099C171.782 49.2481 172.201 49.8768 171.992 49.8768Z" fill="#263238"/>
<path d="M182.479 71.6718C182.479 71.4622 184.367 71.2526 187.303 70.8335C188.142 70.8335 188.771 70.6239 188.981 69.9952C189.191 69.3665 188.771 68.7378 188.561 67.69C187.932 65.8039 187.093 63.9178 186.254 62.0317C183.108 53.8586 181.011 47.1525 181.22 47.1525C181.64 46.9429 184.367 53.4395 187.303 61.6126C188.142 63.7082 188.771 65.5943 189.4 67.2709C189.61 68.1091 190.239 69.157 189.82 70.2048C189.61 70.8335 188.981 71.2526 188.561 71.2526C188.142 71.4622 187.722 71.4622 187.303 71.4622C184.367 71.8813 182.689 71.8813 182.479 71.6718Z" fill="#263238"/>
<path d="M184.576 106.46C184.576 106.46 170.314 107.298 156.051 98.9154C156.051 98.9154 162.972 113.585 184.157 111.489L184.576 106.46Z" fill="#EB996E"/>
<path d="M181.43 78.797C180.381 77.33 178.494 76.7014 176.606 76.9109C175.347 77.1205 174.089 77.7492 173.25 78.797C172.411 79.8448 172.411 81.3118 173.04 82.3596C173.879 83.4075 175.557 83.8266 176.816 83.4075C178.284 82.9883 179.333 82.1501 180.591 81.1023C181.011 80.8927 181.22 80.6831 181.43 80.264C181.64 79.6353 181.64 79.2161 181.43 78.797Z" fill="#EB996E"/>
<path d="M173.879 73.7674C174.299 73.7674 174.299 76.9109 177.025 79.2162C179.752 81.5214 183.108 81.1023 183.108 81.5214C183.108 81.731 182.269 82.1501 181.011 82.1501C179.542 82.1501 177.655 81.731 175.977 80.264C174.299 78.797 173.669 77.1205 173.46 75.6535C173.46 74.3961 173.669 73.7674 173.879 73.7674Z" fill="#263238"/>
<path d="M173.25 44.8472C173.04 45.6855 170.104 45.2664 166.538 45.6855C163.182 46.1046 160.246 46.9429 159.826 46.3142C159.617 45.8951 160.036 45.2664 161.294 44.4281C162.343 43.5898 164.231 42.9611 166.328 42.7516C168.426 42.542 170.314 42.7516 171.572 43.3803C172.83 43.7994 173.46 44.4281 173.25 44.8472Z" fill="#263238"/>
<path d="M199.678 40.8655C199.258 41.4942 197.161 40.8655 194.644 40.8655C192.127 40.6559 190.239 41.2846 189.61 40.6559C189.4 40.2368 189.82 39.6081 190.659 38.9794C191.498 38.3507 192.966 37.9315 194.644 37.9315C196.322 37.9315 197.79 38.5602 198.629 39.1889C199.678 39.8176 199.888 40.6559 199.678 40.8655Z" fill="#263238"/>
<path d="M171.991 6.287C179.752 6.49657 185.625 8.8018 192.337 12.574C199.049 16.3462 204.922 22.4236 207.019 29.968C207.439 31.6446 207.648 33.3211 206.809 34.7881C205.761 36.6742 203.034 36.8837 200.936 36.0455C199.049 35.2072 197.58 33.3211 196.112 31.6446C195.064 35.6263 191.288 38.5602 187.303 38.5602C183.318 38.5602 179.542 35.4168 178.494 31.6446C178.494 35.6263 174.299 39.1889 170.314 38.9794C166.328 38.7698 162.553 35.6263 161.294 31.8541C160.455 35.4168 159.826 39.1889 157.519 42.1229C155.422 45.0568 151.436 47.1525 147.871 46.1046C148.29 49.2481 148.919 52.6012 147.661 55.5351C146.612 58.4691 141.369 123.644 138.222 122.596C135.286 121.549 135.915 55.5351 135.286 52.3916C134.028 46.5238 132.769 40.6559 132.979 34.5785C133.189 28.5011 134.867 22.4236 138.432 17.8132C142.208 12.9931 148.08 9.84963 153.953 8.1731C160.036 6.49657 166.328 6.49657 172.411 6.49657" fill="#263238"/>
<path d="M246.032 90.3232C246.032 90.3232 246.242 89.904 246.871 89.2753C247.5 88.6466 248.549 88.0179 250.017 87.5988C251.485 87.3892 253.583 87.3893 255.47 88.8562C257.148 90.1136 258.197 92.838 257.987 95.5623C257.778 97.0293 257.358 98.2867 256.309 99.5441C255.47 100.802 254.212 101.849 252.534 102.478C249.597 103.945 245.612 103.945 242.256 102.478C238.691 101.011 235.754 98.2867 233.237 95.1432C230.72 91.7902 228.833 88.0179 227.364 83.8266C224.638 75.444 223.799 66.8517 222.75 59.3073C221.701 51.7629 219.814 44.8472 217.297 39.3985C214.989 33.9498 211.634 30.3872 209.117 28.0819C207.858 27.0341 206.809 26.1958 205.97 25.9863C205.131 25.5671 204.922 25.3576 204.712 25.3576C204.712 25.5671 206.18 26.4054 208.697 28.5011C211.004 30.5967 214.15 34.3689 216.458 39.8176C218.765 45.0568 220.443 51.7629 221.492 59.5169C222.54 67.0613 223.379 75.6535 226.106 84.2458C227.574 88.4371 229.462 92.4188 232.189 95.9815C234.706 99.3345 238.061 102.268 241.627 103.735C245.193 105.202 249.388 105.202 252.744 103.735C254.422 102.897 255.68 101.849 256.729 100.592C257.778 99.125 258.197 97.658 258.407 96.191C258.826 93.2571 257.568 90.3232 255.47 88.8562C253.373 87.3893 251.275 87.3893 249.597 87.8084C247.92 88.2275 246.871 89.0658 246.242 89.6945C246.032 89.904 246.032 90.3232 246.032 90.3232Z" fill="#263238"/>
<path d="M133.189 125.321C133.189 125.111 131.93 124.692 129.833 123.225C127.735 121.758 125.008 119.243 122.701 115.681C120.184 111.909 118.297 106.879 117.248 101.221C116.409 95.3528 116.828 88.8562 118.087 82.1501C119.345 75.4439 121.233 69.1569 122.911 63.4987C124.589 57.8404 126.057 52.6012 126.896 48.2003C127.735 43.7994 128.155 40.0272 128.155 37.5124C128.155 36.255 128.155 35.2072 128.155 34.5785C128.155 33.9498 128.155 33.5306 127.945 33.5306C127.945 33.5306 127.945 34.9976 127.735 37.5124C127.525 40.0272 127.106 43.5898 126.267 47.9907C125.428 52.3916 123.96 57.6308 122.072 63.2891C120.394 68.9474 118.297 75.2344 117.038 82.1501C115.78 88.8562 115.36 95.5623 116.199 101.64C117.248 107.508 119.345 112.747 121.862 116.519C124.379 120.291 127.316 122.806 129.413 124.063C130.462 124.692 131.301 125.111 131.93 125.53C132.979 125.111 133.189 125.321 133.189 125.321Z" fill="#263238"/>
<path d="M129.413 111.699C129.413 111.699 129.623 111.909 130.252 112.118C130.672 112.328 131.511 112.537 132.559 112.747C134.657 112.956 137.803 112.747 141.159 111.07C144.515 109.394 147.661 105.831 149.339 101.221C151.227 96.6102 151.436 90.9519 151.017 85.5031C150.597 79.8448 149.549 74.6057 149.129 69.7857C148.71 64.9656 148.29 60.5647 148.29 57.0021C148.29 53.4395 148.29 50.296 148.29 48.4099C148.29 46.3142 148.29 45.2664 148.29 45.2664C148.29 45.2664 148.081 46.3142 147.871 48.4099C147.661 50.5055 147.451 53.4395 147.451 57.0021C147.451 60.7743 147.661 64.9656 148.081 69.7857C148.5 74.6057 149.549 79.8448 149.968 85.5031C150.388 90.9519 150.178 96.4006 148.5 100.802C146.822 105.202 143.886 108.765 140.949 110.442C137.803 112.328 134.867 112.537 132.769 112.537C130.462 111.909 129.413 111.489 129.413 111.699Z" fill="#263238"/>
<path d="M266.587 130.77C266.587 130.77 266.587 130.141 266.167 128.674C265.748 127.416 264.699 125.53 262.602 124.063C260.504 122.596 257.568 121.339 254.002 121.129C250.436 120.71 246.242 121.339 241.837 121.129C237.432 120.71 232.608 119.243 228.203 116.519C223.799 113.795 219.604 109.813 216.458 104.993C213.102 100.173 210.794 94.3049 209.536 88.0179C208.068 81.7309 207.648 75.0248 207.858 68.3187C208.068 61.403 208.907 54.9064 209.117 48.4099C209.536 41.9133 209.536 35.6263 207.858 29.7585C206.39 23.8906 203.244 18.861 199.049 15.2984C195.064 11.7357 190.239 9.64006 185.835 8.59223C181.43 7.75396 177.235 7.96353 173.669 9.01136C170.104 9.84963 167.377 11.3166 165.28 12.7836C163.182 14.2505 161.714 15.5079 160.875 16.5558C160.455 16.9749 160.036 17.394 159.826 17.6036C159.617 17.8132 159.407 18.0227 159.617 18.0227C159.826 18.2323 161.504 15.9271 165.699 13.2027C167.797 11.9453 170.523 10.4783 174.089 9.64006C177.445 8.8018 181.64 8.59223 186.044 9.4305C190.449 10.0592 194.854 12.1549 198.839 15.5079C202.824 18.861 205.761 23.8906 207.229 29.5489C208.697 35.2072 208.697 41.4942 208.278 47.9907C207.858 54.4873 207.019 61.1934 206.809 67.8996C206.6 74.8153 207.019 81.5214 208.487 88.0179C209.955 94.3049 212.263 100.382 215.619 105.412C218.975 110.442 223.169 114.423 227.784 117.148C232.398 119.872 237.222 121.549 241.837 121.758C246.451 121.968 250.436 121.339 254.002 121.758C257.568 121.968 260.504 123.016 262.392 124.483C264.489 125.949 265.538 127.626 265.958 128.883C266.587 130.141 266.587 130.77 266.587 130.77Z" fill="#455A64"/>
<path d="M161.504 1.8861C161.504 1.67654 160.455 2.30524 159.407 3.56264C158.358 4.82003 157.1 6.9157 156.89 9.64006C156.68 12.3644 157.519 14.6697 158.358 16.1366C159.197 17.6036 160.036 18.2323 160.246 18.0227C160.455 17.8132 159.826 17.1845 158.987 15.7175C158.358 14.2505 157.729 12.1549 157.939 9.84963C158.148 7.5444 159.197 5.44873 160.036 4.19133C160.875 2.72437 161.504 1.8861 161.504 1.8861Z" fill="#455A64"/>
<path d="M119.555 56.1638C119.555 56.1638 119.765 55.3256 120.184 53.649C120.604 51.9725 121.023 49.6673 121.653 46.7333C122.282 43.7994 123.121 40.2368 124.169 36.4646C124.799 34.5785 125.218 32.4828 126.057 30.5967C126.686 28.5011 127.735 26.615 128.994 24.7289C131.72 21.1662 135.286 18.4419 138.852 16.9749C142.417 15.5079 146.193 15.5079 149.129 15.9271C152.066 16.5558 154.163 17.6036 155.631 18.4419C157.1 19.2801 157.729 20.1184 157.729 19.9088C157.729 19.9088 157.519 19.6993 157.309 19.2801C157.1 18.861 156.47 18.4419 155.841 18.0227C154.583 16.9749 152.275 15.7175 149.339 15.0888C146.403 14.4601 142.417 14.4601 138.642 15.9271C134.867 17.394 131.091 20.1184 128.155 24.1002C126.686 25.9863 125.638 28.0819 125.008 30.1776C124.379 32.2733 123.75 34.3689 123.121 36.255C122.072 40.2368 121.443 43.5898 120.814 46.7333C120.184 49.6673 119.975 52.1821 119.765 53.8586C119.555 55.3256 119.555 56.1638 119.555 56.1638Z" fill="#455A64"/>
<path d="M159.197 18.6514C159.197 18.861 161.924 18.2323 165.909 16.9749C168.006 16.3462 170.314 15.5079 173.04 15.2984C175.767 14.8792 178.913 15.0888 181.85 16.3462C184.786 17.394 187.303 19.2801 188.981 21.3758C190.659 23.4715 191.708 25.7767 192.337 27.6628C193.595 31.6446 192.966 34.3689 193.176 34.3689C193.176 34.3689 193.386 33.7402 193.595 32.4828C193.595 31.2254 193.595 29.5489 193.176 27.4532C192.756 25.3576 191.708 22.8428 189.82 20.5375C187.932 18.2323 185.415 16.3462 182.269 15.0888C179.123 13.8314 175.767 13.6218 173.04 14.2505C170.104 14.6697 167.797 15.5079 165.699 16.3462C161.714 17.8132 159.197 18.6514 159.197 18.6514Z" fill="#455A64"/>
</g>
<defs>
<clipPath id="clip0_2_164">
<rect width="396" height="402.996" fill="white" transform="matrix(-1 0 0 1 396 0)"/>
</clipPath>
</defs>
</svg>
