<svg width="278" height="49" viewBox="0 0 278 49" fill="none" xmlns="http://www.w3.org/2000/svg">
<g clip-path="url(#clip0_2_355)">
<mask id="mask0_2_355" style="mask-type:luminance" maskUnits="userSpaceOnUse" x="0" y="0" width="278" height="49">
<path d="M277.887 0H0V48.9797H277.887V0Z" fill="white"/>
</mask>
<g mask="url(#mask0_2_355)">
<path d="M24.7803 43.2089C25.1751 43.6963 24.8931 44.2422 24.3291 44.2422H23.4855C22.9215 44.2422 22.6418 43.9985 22.3034 43.511L7.60446 23.7968L2.08441 29.5777V43.2673C2.08441 43.8766 1.74602 44.2397 1.24078 44.2397H0.789586C0.281995 44.2397 0 43.8741 0 43.2673V5.66676C0 5.05743 0.281995 4.69438 0.789586 4.69438H1.24078C1.74837 4.69438 2.08441 5.05997 2.08441 5.66676V27.0237L22.4703 5.42303C22.9215 4.93557 23.2035 4.69184 23.7651 4.69184H24.5524C25.0599 4.69184 25.3396 5.24023 24.9472 5.66422L9.12489 22.3978L24.7827 43.2063L24.7803 43.2089ZM73.4973 5.66676L59.8675 29.0928V43.2698C59.8675 43.8791 59.5291 44.2422 59.0239 44.2422H58.5727C58.0651 44.2422 57.7855 43.8766 57.7855 43.2698V29.2147L43.9865 5.66676C43.7609 5.24023 43.9865 4.69438 44.4941 4.69438H45.2273C45.7349 4.69438 46.0709 4.93811 46.3529 5.4865L58.8006 26.9653L71.246 5.4865C71.528 4.93811 71.8664 4.69438 72.3716 4.69438H72.992C73.556 4.69438 73.7793 5.24277 73.4996 5.66676H73.4973ZM97.0956 43.2698V5.54489C97.0956 4.9965 97.3775 4.69438 97.8851 4.69438H109.543C116.92 4.69438 121.314 9.13738 121.314 16.1954C121.314 23.2534 116.866 27.7574 109.543 27.7574H99.18V43.2724C99.18 43.8817 98.8416 44.2447 98.3363 44.2447H97.8851C97.3775 44.2447 97.0956 43.8791 97.0956 43.2724V43.2698ZM109.992 25.7466C115.625 25.7466 119.227 22.0348 119.227 16.2538C119.227 10.4728 115.623 6.70008 109.992 6.70008H99.18V25.7441H109.992V25.7466ZM141.308 38.281C140.969 37.6716 140.8 37.1867 141.364 36.7602L141.59 36.5774C142.041 36.2118 142.436 36.0899 142.941 36.8211C145.192 40.7767 149.699 42.9068 154.035 42.9068C159.668 42.9068 163.665 39.3168 163.665 34.4498C163.665 28.2448 157.64 26.7215 152.12 24.2893C147.615 22.2811 142.995 19.9072 142.995 13.885C142.995 8.22593 147.389 3.96826 153.976 3.96826C157.976 3.96826 161.578 5.48904 164.114 8.71339C164.509 9.26178 164.734 9.86857 164.17 10.2951L164.001 10.417C163.494 10.7216 163.101 10.9044 162.537 10.1732C160.227 7.37541 157.299 6.03489 153.976 6.03489C148.625 6.03489 145.133 9.38111 145.133 13.7632C145.133 18.1453 148.569 20.2119 153.13 22.2201C158.986 24.8377 165.745 26.6631 165.745 34.267C165.745 40.6548 160.902 44.9759 154.2 44.9759C149.131 44.9759 144.005 42.7849 141.303 38.2835L141.308 38.281ZM277.887 5.66676V43.8791C277.887 44.3057 277.549 44.6078 277.156 44.6078H277.044C276.592 44.6078 276.256 44.1203 275.918 43.6963L251.814 8.83272V43.2724C251.814 43.8817 251.476 44.2447 250.971 44.2447H250.576C250.068 44.2447 249.786 43.8791 249.786 43.2724V5.11837C249.786 4.6309 250.125 4.38971 250.463 4.38971H250.576C251.027 4.38971 251.363 4.81624 251.702 5.24023L275.807 40.1064V5.66676C275.807 5.05743 276.146 4.69438 276.651 4.69438H277.046C277.553 4.69438 277.89 5.05997 277.89 5.66676H277.887Z" fill="#077D85" stroke="#077D85"/>
<path d="M206.246 48.9797C206.246 48.9797 206.227 48.9797 206.218 48.9797C206.218 48.9797 206.199 48.9797 206.19 48.9797C205.931 48.9797 205.72 48.7512 205.72 48.472C205.72 48.1901 205.931 47.9642 206.19 47.9642H206.246C206.505 47.9642 206.716 48.1901 206.716 48.4694C206.716 48.7512 206.507 48.9772 206.249 48.9797H206.246ZM203.304 48.7918C203.046 48.7563 202.862 48.505 202.895 48.2257C202.926 47.9464 203.158 47.7484 203.417 47.7839C203.675 47.8169 203.859 48.0708 203.826 48.3501C203.798 48.6065 203.595 48.7944 203.361 48.7944C203.342 48.7944 203.323 48.7944 203.304 48.7944V48.7918ZM208.61 48.3425C208.577 48.0632 208.761 47.8093 209.019 47.7763C209.275 47.7408 209.51 47.9388 209.543 48.2181C209.574 48.4948 209.393 48.7487 209.134 48.7842C209.116 48.7868 209.094 48.7868 209.076 48.7868C208.843 48.7868 208.639 48.5989 208.61 48.3425ZM200.458 48.2206C200.207 48.1495 200.054 47.8753 200.118 47.6011C200.181 47.332 200.437 47.167 200.689 47.2355C200.94 47.3041 201.093 47.5808 201.029 47.8525C200.975 48.081 200.783 48.2358 200.573 48.2358C200.536 48.2358 200.496 48.2308 200.458 48.2206ZM211.407 47.8372C211.343 47.5656 211.494 47.2888 211.745 47.2203C211.997 47.1517 212.253 47.3142 212.319 47.5859C212.382 47.8575 212.229 48.1343 211.978 48.2054C211.94 48.2155 211.9 48.2206 211.863 48.2206C211.651 48.2206 211.461 48.0683 211.407 47.8372ZM197.702 47.2558C197.46 47.1543 197.342 46.8572 197.439 46.5983C197.535 46.3368 197.808 46.2098 198.05 46.3139C198.292 46.418 198.409 46.7125 198.315 46.9715C198.242 47.1721 198.064 47.2939 197.878 47.2939C197.819 47.2939 197.761 47.2812 197.704 47.2558H197.702ZM214.121 46.9512C214.025 46.6922 214.142 46.3952 214.382 46.2911C214.624 46.187 214.899 46.3139 214.995 46.5754C215.089 46.8344 214.974 47.1314 214.732 47.233C214.676 47.2584 214.617 47.2711 214.558 47.2711C214.372 47.2711 214.194 47.1492 214.121 46.9512ZM195.084 45.9102C194.858 45.7731 194.776 45.4634 194.905 45.2197C195.032 44.9734 195.319 44.8871 195.545 45.0242C195.77 45.1613 195.85 45.471 195.723 45.7147C195.639 45.8823 195.479 45.9763 195.314 45.9763C195.237 45.9763 195.157 45.9534 195.084 45.9102ZM216.704 45.6894C216.577 45.4431 216.657 45.1334 216.882 44.9963C217.11 44.8592 217.397 44.9455 217.524 45.1892C217.651 45.4329 217.571 45.7427 217.345 45.8798C217.272 45.9255 217.192 45.9458 217.115 45.9458C216.95 45.9458 216.791 45.8544 216.704 45.6894ZM192.656 44.1991C192.45 44.0289 192.41 43.7116 192.565 43.4856C192.72 43.2622 193.016 43.2191 193.223 43.3866C193.43 43.5567 193.472 43.8741 193.314 44.0975C193.223 44.2295 193.082 44.3006 192.938 44.3006C192.842 44.3006 192.741 44.2676 192.656 44.1991ZM219.108 44.0645C218.95 43.8411 218.99 43.5237 219.197 43.3536C219.404 43.1835 219.7 43.2267 219.857 43.4501C220.012 43.6735 219.972 43.9934 219.766 44.1635C219.681 44.2321 219.58 44.2651 219.481 44.2651C219.34 44.2651 219.199 44.1965 219.108 44.0645ZM190.466 42.1477C190.283 41.9496 190.281 41.6297 190.466 41.4292C190.65 41.2311 190.946 41.2286 191.131 41.4266C191.315 41.6246 191.317 41.9471 191.134 42.1451C191.042 42.2441 190.92 42.2949 190.8 42.2949C190.68 42.2949 190.56 42.2467 190.469 42.1477H190.466ZM221.288 42.107C221.103 41.9065 221.105 41.5866 221.288 41.3885C221.472 41.1905 221.77 41.1905 221.953 41.3885C222.137 41.5891 222.137 41.909 221.951 42.107C221.859 42.206 221.74 42.2543 221.62 42.2543C221.5 42.2543 221.38 42.206 221.288 42.107ZM188.551 39.7992C188.394 39.5783 188.434 39.2584 188.638 39.0883C188.845 38.9157 189.139 38.9588 189.298 39.1823C189.456 39.4031 189.416 39.723 189.211 39.8931C189.124 39.9642 189.026 39.9972 188.925 39.9972C188.784 39.9972 188.645 39.9312 188.551 39.7992ZM223.204 39.8474C222.997 39.6773 222.957 39.3574 223.117 39.1366C223.274 38.9131 223.568 38.87 223.775 39.0401C223.981 39.2102 224.021 39.5301 223.862 39.7535C223.77 39.883 223.629 39.9515 223.488 39.9515C223.389 39.9515 223.288 39.9185 223.204 39.8474ZM186.944 37.1969C186.814 36.9531 186.892 36.6409 187.118 36.5012C187.341 36.3616 187.63 36.4454 187.759 36.6891C187.888 36.9328 187.811 37.2426 187.585 37.3822C187.512 37.4279 187.432 37.4508 187.353 37.4508C187.188 37.4508 187.031 37.3594 186.944 37.1969ZM224.825 37.3314C224.599 37.1918 224.52 36.8821 224.649 36.6383C224.778 36.3946 225.065 36.3108 225.29 36.4505C225.516 36.5901 225.593 36.8998 225.464 37.141C225.377 37.306 225.22 37.3974 225.058 37.3974C224.978 37.3974 224.898 37.3771 224.825 37.3314ZM185.668 34.3864C185.569 34.1274 185.682 33.8303 185.921 33.7237C186.161 33.6171 186.436 33.7389 186.535 34.0005C186.636 34.2594 186.521 34.5565 186.281 34.6631C186.222 34.6885 186.161 34.7012 186.102 34.7012C185.917 34.7012 185.743 34.5818 185.668 34.3864ZM226.122 34.6072C225.882 34.5006 225.767 34.2036 225.866 33.9446C225.965 33.6856 226.24 33.5612 226.479 33.6679C226.719 33.7745 226.834 34.0715 226.736 34.3305C226.66 34.526 226.486 34.6453 226.301 34.6453C226.242 34.6453 226.181 34.6326 226.122 34.6072ZM184.735 31.426C184.667 31.1569 184.815 30.8777 185.064 30.804C185.315 30.7304 185.574 30.8903 185.642 31.1595C185.71 31.4311 185.562 31.7104 185.31 31.784C185.271 31.7967 185.228 31.8018 185.186 31.8018C184.979 31.8018 184.791 31.652 184.735 31.426ZM227.086 31.7256C226.834 31.652 226.686 31.3753 226.754 31.1036C226.82 30.832 227.079 30.672 227.33 30.7456C227.582 30.8193 227.73 31.096 227.661 31.3677C227.605 31.5936 227.415 31.7434 227.208 31.7434C227.168 31.7434 227.126 31.7383 227.086 31.7256ZM184.147 28.3667C184.112 28.09 184.288 27.831 184.547 27.7904C184.803 27.7523 185.04 27.9427 185.078 28.222C185.115 28.4987 184.937 28.7552 184.681 28.7958C184.657 28.8009 184.636 28.8009 184.613 28.8009C184.382 28.8009 184.182 28.6206 184.147 28.3667ZM227.708 28.7374C227.452 28.6968 227.274 28.4403 227.311 28.1636C227.347 27.8843 227.584 27.6914 227.842 27.732C228.099 27.7726 228.277 28.0291 228.242 28.3058C228.209 28.5597 228.009 28.7425 227.779 28.7425C227.758 28.7425 227.734 28.7399 227.711 28.7374H227.708ZM183.901 25.2566C183.893 24.9748 184.098 24.7412 184.359 24.7336C184.617 24.726 184.833 24.9469 184.84 25.2261C184.848 25.508 184.643 25.7415 184.385 25.7492H184.37C184.117 25.7492 183.908 25.5308 183.901 25.2566ZM228 25.6908C227.739 25.6831 227.535 25.4496 227.542 25.1678C227.549 24.8885 227.765 24.6676 228.023 24.6752C228.284 24.6828 228.489 24.9139 228.482 25.1957C228.475 25.4724 228.265 25.6908 228.012 25.6908H228ZM184.41 22.6847C184.152 22.6619 183.959 22.4156 183.98 22.1364C184.002 21.8571 184.23 21.6489 184.488 21.6743C184.746 21.6971 184.939 21.9434 184.918 22.2227C184.897 22.4867 184.692 22.6873 184.45 22.6873C184.436 22.6873 184.422 22.6873 184.41 22.6873V22.6847ZM227.459 22.1643C227.436 21.885 227.629 21.6387 227.887 21.6133C228.146 21.5905 228.373 21.7961 228.395 22.0754C228.418 22.3547 228.225 22.601 227.967 22.6264H227.927C227.685 22.6264 227.48 22.4283 227.459 22.1643ZM184.756 19.6457C184.502 19.5873 184.338 19.3208 184.392 19.0466C184.443 18.7698 184.692 18.5946 184.946 18.6505C185.2 18.7064 185.365 18.9729 185.31 19.2497C185.263 19.4883 185.068 19.6559 184.85 19.6559C184.819 19.6559 184.786 19.6508 184.754 19.6457H184.756ZM227.057 19.1913C227.006 18.9171 227.17 18.648 227.424 18.5921C227.678 18.5337 227.927 18.7114 227.979 18.9856C228.03 19.2598 227.868 19.5289 227.614 19.5848C227.582 19.5924 227.549 19.5975 227.518 19.5975C227.3 19.5975 227.104 19.4325 227.057 19.1913ZM185.44 16.6702C185.193 16.5813 185.061 16.2919 185.144 16.0279C185.228 15.7613 185.494 15.6191 185.738 15.708C185.985 15.7994 186.117 16.0863 186.034 16.3528C185.968 16.5636 185.785 16.6981 185.59 16.6981C185.538 16.6981 185.489 16.688 185.44 16.6702ZM226.329 16.297C226.247 16.0304 226.376 15.7435 226.623 15.6521C226.867 15.5607 227.135 15.7029 227.22 15.9695C227.302 16.236 227.17 16.5229 226.926 16.6143C226.877 16.6321 226.825 16.6397 226.773 16.6397C226.578 16.6397 226.395 16.5077 226.329 16.297ZM186.46 13.8114C186.227 13.6896 186.131 13.3849 186.243 13.1336C186.359 12.8822 186.638 12.7781 186.873 12.9C187.106 13.0218 187.202 13.3265 187.087 13.5779C187.007 13.7581 186.838 13.8647 186.666 13.8647C186.596 13.8647 186.525 13.847 186.46 13.8114ZM225.269 13.5271C225.154 13.2757 225.25 12.9711 225.483 12.8467C225.716 12.7223 225.998 12.8264 226.113 13.0777C226.228 13.3291 226.132 13.6337 225.899 13.7581C225.831 13.7937 225.76 13.8114 225.69 13.8114C225.518 13.8114 225.351 13.7048 225.269 13.5271ZM187.816 11.1202C187.599 10.9628 187.541 10.648 187.684 10.4144C187.827 10.1809 188.121 10.1174 188.337 10.2723C188.551 10.4297 188.61 10.7445 188.466 10.9781C188.375 11.1253 188.227 11.204 188.074 11.204C187.985 11.204 187.893 11.1761 187.813 11.1202H187.816ZM223.885 10.9298C223.739 10.6963 223.798 10.3814 224.014 10.2266C224.23 10.0692 224.522 10.1326 224.665 10.3662C224.811 10.5998 224.752 10.9146 224.536 11.0695C224.456 11.1279 224.364 11.1558 224.275 11.1558C224.125 11.1558 223.974 11.0771 223.885 10.9298ZM189.491 8.64485C189.296 8.45952 189.277 8.13962 189.446 7.92889C189.62 7.71817 189.916 7.69786 190.111 7.8832C190.306 8.06853 190.325 8.38843 190.154 8.59915C190.06 8.7134 189.93 8.7718 189.801 8.7718C189.691 8.7718 189.58 8.72864 189.491 8.64485ZM222.193 8.55853C222.022 8.34781 222.04 8.02791 222.235 7.84003C222.428 7.6547 222.727 7.67501 222.898 7.88573C223.07 8.09646 223.051 8.41636 222.858 8.60169C222.766 8.68801 222.656 8.72864 222.546 8.72864C222.416 8.72864 222.287 8.67024 222.193 8.55853ZM191.458 6.43858C191.286 6.22532 191.308 5.90542 191.505 5.72263C191.7 5.53729 191.998 5.56014 192.168 5.7734C192.337 5.98413 192.316 6.30656 192.121 6.48936C192.031 6.57314 191.921 6.61377 191.813 6.61377C191.681 6.61377 191.55 6.55537 191.458 6.43858ZM220.224 6.45382C220.026 6.27102 220.005 5.95112 220.174 5.73786C220.344 5.52459 220.64 5.50174 220.837 5.68454C221.035 5.86734 221.056 6.18978 220.886 6.4005C220.792 6.51729 220.661 6.57822 220.529 6.57822C220.421 6.57822 220.313 6.5376 220.224 6.45382ZM193.681 4.53952C193.538 4.30594 193.601 3.99112 193.817 3.83625C194.036 3.68392 194.325 3.74993 194.468 3.98605C194.609 4.21962 194.548 4.53444 194.332 4.68677C194.252 4.74263 194.163 4.77055 194.076 4.77055C193.921 4.77055 193.77 4.68931 193.681 4.53952ZM218.005 4.6563H218.008C217.789 4.50397 217.728 4.18915 217.869 3.95558C218.01 3.71946 218.302 3.65345 218.518 3.80579C218.736 3.95812 218.797 4.27294 218.656 4.50905C218.567 4.65884 218.417 4.74009 218.262 4.74009C218.175 4.74009 218.085 4.71216 218.005 4.6563ZM196.123 2.9832C196.012 2.72931 196.111 2.42465 196.346 2.30532C196.579 2.18599 196.861 2.29263 196.971 2.54651C197.084 2.79786 196.983 3.10252 196.75 3.22185C196.684 3.25485 196.616 3.27263 196.548 3.27263C196.372 3.27263 196.203 3.16599 196.123 2.9832ZM215.585 3.199C215.35 3.07713 215.249 2.77501 215.359 2.52112C215.472 2.26978 215.752 2.1606 215.987 2.27993C216.222 2.39926 216.321 2.70138 216.21 2.95527C216.13 3.1406 215.961 3.24724 215.785 3.24724C215.719 3.24724 215.648 3.232 215.585 3.199ZM198.736 1.78993C198.656 1.52335 198.79 1.23646 199.039 1.15014C199.283 1.06382 199.549 1.21107 199.629 1.47765C199.709 1.74423 199.572 2.03112 199.326 2.11744C199.279 2.13268 199.229 2.14029 199.182 2.14029C198.983 2.14029 198.799 2.00573 198.736 1.78993ZM213.002 2.09967C212.756 2.01335 212.619 1.72646 212.697 1.45988C212.777 1.1933 213.042 1.04605 213.289 1.13237C213.536 1.21615 213.672 1.50304 213.592 1.76962C213.529 1.98542 213.343 2.12252 213.146 2.12252C213.099 2.12252 213.049 2.11491 213.002 2.09967ZM201.469 0.974957C201.422 0.70076 201.589 0.43418 201.845 0.383402C202.101 0.332625 202.345 0.512884 202.392 0.78962C202.439 1.06636 202.272 1.3304 202.016 1.38117C201.988 1.38879 201.958 1.39133 201.929 1.39133C201.708 1.39133 201.511 1.21869 201.469 0.974957ZM210.309 1.37102C210.056 1.32024 209.886 1.0562 209.933 0.779465C209.98 0.505268 210.225 0.32247 210.481 0.373247C210.735 0.421485 210.904 0.688066 210.857 0.962263C210.815 1.20853 210.617 1.37864 210.396 1.37864C210.368 1.37864 210.34 1.3761 210.309 1.37102ZM204.275 0.540812C204.261 0.261537 204.458 0.0203462 204.716 0.00511309C204.975 -0.0126589 205.198 0.200605 205.215 0.479879C205.229 0.759154 205.031 1.00035 204.773 1.01812H204.745C204.498 1.01812 204.291 0.809931 204.275 0.540812ZM207.553 1.01304C207.294 0.997807 207.097 0.756615 207.111 0.47734C207.125 0.198066 207.348 -0.0151978 207.607 3.53637e-05C207.868 0.0152685 208.065 0.256459 208.049 0.535734C208.035 0.804853 207.828 1.01558 207.581 1.01558C207.581 1.01558 207.562 1.01304 207.553 1.01304Z" fill="url(#paint0_linear_2_355)"/>
<path d="M206.216 46.23C206.216 46.23 206.199 46.2326 206.19 46.2326C205.802 46.2326 205.485 45.8898 205.485 45.4709C205.485 45.0495 205.802 44.7093 206.19 44.7093H206.242C206.632 44.7067 206.947 45.0469 206.949 45.4684C206.949 45.8898 206.634 46.2301 206.246 46.2326H206.242C206.242 46.2326 206.225 46.2326 206.216 46.23ZM203.274 46.0142C202.888 45.9584 202.618 45.5725 202.672 45.1561C202.726 44.7397 203.083 44.4478 203.469 44.5062C203.854 44.5646 204.122 44.9505 204.07 45.3668C204.021 45.7477 203.718 46.0219 203.372 46.0219C203.34 46.0219 203.307 46.0193 203.274 46.0142ZM208.364 45.3592C208.31 44.9428 208.578 44.5595 208.963 44.4986C209.348 44.4402 209.706 44.7296 209.76 45.146C209.816 45.5623 209.548 45.9482 209.163 46.0066C209.127 46.0117 209.095 46.0142 209.062 46.0142C208.716 46.0142 208.415 45.7401 208.364 45.3592ZM200.409 45.3541C200.036 45.2374 199.822 44.8134 199.93 44.4097C200.04 44.006 200.43 43.775 200.804 43.8918C201.178 44.0085 201.394 44.4325 201.283 44.8362C201.194 45.1688 200.912 45.3846 200.607 45.3846C200.543 45.3846 200.475 45.3745 200.409 45.3541ZM211.148 44.821C211.038 44.4173 211.252 43.9959 211.625 43.8765C211.999 43.7572 212.392 43.9882 212.502 44.3919C212.61 44.7956 212.399 45.217 212.025 45.3364C211.957 45.3592 211.891 45.3694 211.825 45.3694C211.52 45.3694 211.24 45.1536 211.148 44.821ZM197.664 44.2447C197.31 44.0669 197.157 43.615 197.321 43.2317C197.483 42.8508 197.904 42.6833 198.257 42.861C198.609 43.0387 198.764 43.4906 198.6 43.8715C198.48 44.1507 198.226 44.3132 197.961 44.3132C197.862 44.3132 197.761 44.2904 197.664 44.2447ZM213.83 43.8511C213.665 43.4678 213.818 43.0159 214.171 42.8381C214.523 42.6604 214.944 42.8254 215.108 43.2063C215.273 43.5871 215.12 44.0416 214.767 44.2193C214.671 44.2675 214.568 44.2904 214.469 44.2904C214.203 44.2904 213.95 44.1279 213.83 43.8511ZM195.103 42.696C194.779 42.4624 194.689 41.9902 194.906 41.6398C195.122 41.2894 195.559 41.1955 195.883 41.4265C196.207 41.6601 196.294 42.1323 196.081 42.4827C195.944 42.7036 195.721 42.8229 195.493 42.8229C195.357 42.8229 195.223 42.7823 195.103 42.696ZM216.347 42.4548C216.128 42.1044 216.215 41.6322 216.539 41.3986C216.864 41.1625 217.301 41.259 217.517 41.6068C217.733 41.9571 217.648 42.4294 217.324 42.663C217.202 42.7518 217.066 42.7924 216.932 42.7924C216.704 42.7924 216.481 42.6731 216.347 42.4548ZM192.791 40.7436C192.504 40.4592 192.483 39.9794 192.746 39.6671C193.009 39.3574 193.453 39.3345 193.742 39.6189C194.029 39.9032 194.048 40.3856 193.787 40.6953C193.648 40.8604 193.458 40.9441 193.265 40.9441C193.096 40.9441 192.927 40.8781 192.791 40.7436ZM218.633 40.6598C218.37 40.35 218.389 39.8677 218.675 39.5833C218.962 39.299 219.409 39.3193 219.672 39.629C219.935 39.9388 219.916 40.4211 219.629 40.7055C219.496 40.84 219.324 40.9061 219.152 40.9061C218.962 40.9061 218.772 40.8223 218.633 40.6598ZM190.784 38.4332C190.539 38.1057 190.589 37.6259 190.892 37.3618C191.195 37.0978 191.639 37.1511 191.884 37.4786C192.126 37.8061 192.079 38.286 191.775 38.55C191.644 38.6642 191.489 38.7176 191.334 38.7176C191.127 38.7176 190.922 38.6211 190.784 38.4332ZM220.64 38.5068C220.337 38.2453 220.287 37.7655 220.529 37.4354C220.774 37.1079 221.216 37.0546 221.521 37.3161C221.824 37.5802 221.874 38.0575 221.632 38.3875C221.493 38.5754 221.286 38.6744 221.079 38.6744C220.927 38.6744 220.772 38.6185 220.64 38.5068ZM189.127 35.8182C188.93 35.4551 189.045 34.9905 189.383 34.7773C189.719 34.5665 190.149 34.6909 190.347 35.0565C190.542 35.4196 190.427 35.8867 190.09 36.0975C189.978 36.166 189.855 36.199 189.736 36.199C189.494 36.199 189.256 36.0619 189.127 35.8182ZM222.32 36.0467C221.984 35.836 221.867 35.3713 222.062 35.0058C222.257 34.6427 222.687 34.5158 223.025 34.7265C223.361 34.9372 223.479 35.4018 223.284 35.7674C223.154 36.0111 222.915 36.1482 222.673 36.1482C222.553 36.1482 222.431 36.1152 222.32 36.0467ZM187.849 32.9696C187.708 32.5786 187.884 32.1343 188.246 31.9794C188.608 31.8271 189.017 32.0175 189.16 32.4085C189.303 32.7995 189.127 33.2412 188.765 33.3961C188.678 33.4342 188.591 33.452 188.504 33.452C188.225 33.452 187.959 33.2692 187.849 32.9696ZM223.638 33.3428C223.277 33.1905 223.098 32.7487 223.239 32.3552C223.382 31.9642 223.791 31.7712 224.153 31.9261C224.517 32.0784 224.694 32.5227 224.553 32.9137C224.445 33.2133 224.177 33.3961 223.897 33.3961C223.81 33.3961 223.723 33.3783 223.638 33.3428ZM186.97 29.9534C186.88 29.5421 187.115 29.1334 187.494 29.0344C187.872 28.9379 188.253 29.1918 188.342 29.6005C188.434 30.0093 188.199 30.4206 187.82 30.517C187.764 30.5297 187.71 30.5374 187.656 30.5374C187.336 30.5374 187.047 30.3012 186.97 29.9534ZM224.576 30.4612C224.195 30.3647 223.96 29.9534 224.05 29.5447C224.139 29.1359 224.52 28.882 224.898 28.9785C225.276 29.075 225.511 29.4837 225.422 29.895C225.345 30.2454 225.056 30.4815 224.736 30.4815C224.682 30.4815 224.628 30.4739 224.574 30.4612H224.576ZM186.49 26.8382C186.453 26.4193 186.737 26.0461 187.125 26.0055C187.513 25.9649 187.856 26.2695 187.893 26.6884C187.933 27.1074 187.649 27.4806 187.261 27.5212C187.238 27.5237 187.214 27.5263 187.191 27.5263C186.833 27.5263 186.526 27.2318 186.49 26.8382ZM225.126 27.4653C224.741 27.4247 224.456 27.0515 224.492 26.6351C224.529 26.2137 224.872 25.909 225.26 25.9471C225.648 25.9877 225.932 26.3584 225.894 26.7773C225.862 27.1734 225.554 27.4679 225.194 27.4679C225.173 27.4679 225.15 27.4679 225.126 27.4679V27.4653ZM187.078 24.472C186.69 24.4593 186.385 24.109 186.396 23.6875C186.408 23.2661 186.732 22.936 187.122 22.9512C187.513 22.9639 187.818 23.3143 187.806 23.7358C187.795 24.147 187.48 24.472 187.101 24.472H187.078ZM224.574 23.6799C224.562 23.2584 224.865 22.9055 225.255 22.8928C225.643 22.8776 225.97 23.2077 225.984 23.6266C225.995 24.048 225.692 24.4009 225.302 24.4136H225.279C224.9 24.4136 224.586 24.0912 224.574 23.6799ZM187.259 21.4228C186.873 21.3543 186.615 20.9633 186.676 20.5469C186.739 20.1331 187.104 19.8513 187.487 19.9198C187.87 19.9884 188.131 20.3794 188.067 20.7958C188.011 21.169 187.712 21.433 187.374 21.433C187.336 21.433 187.296 21.433 187.259 21.4228ZM224.304 20.7399C224.24 20.3235 224.501 19.9325 224.884 19.864C225.267 19.7929 225.631 20.0747 225.695 20.4885C225.76 20.9049 225.5 21.2959 225.117 21.3645C225.077 21.3721 225.037 21.3746 224.999 21.3746C224.661 21.3746 224.362 21.1106 224.304 20.7399ZM187.811 18.427C187.44 18.3026 187.233 17.8735 187.348 17.4724C187.466 17.0712 187.86 16.8478 188.232 16.9722C188.603 17.0966 188.81 17.5232 188.695 17.9268C188.601 18.2518 188.323 18.4625 188.023 18.4625C187.952 18.4625 187.882 18.4498 187.811 18.427ZM223.671 17.8735C223.554 17.4724 223.761 17.0433 224.132 16.9164C224.503 16.792 224.898 17.0128 225.016 17.4165C225.133 17.8177 224.926 18.2442 224.555 18.3711C224.484 18.394 224.414 18.4067 224.343 18.4067C224.043 18.4067 223.765 18.1985 223.671 17.8735ZM188.751 15.5454C188.401 15.3626 188.253 14.9081 188.422 14.5273C188.591 14.149 189.014 13.9891 189.364 14.1719C189.714 14.3547 189.863 14.8091 189.693 15.1874C189.573 15.4616 189.32 15.619 189.059 15.619C188.955 15.619 188.852 15.5962 188.753 15.5454H188.751ZM222.668 15.1366C222.499 14.7583 222.644 14.3039 222.995 14.1211C223.345 13.9358 223.765 14.0957 223.937 14.474C224.106 14.8523 223.958 15.3067 223.608 15.4921C223.509 15.5428 223.406 15.5682 223.302 15.5682C223.042 15.5682 222.79 15.4083 222.668 15.1366ZM190.072 12.839C189.75 12.6028 189.667 12.1281 189.886 11.7828C190.107 11.435 190.544 11.3436 190.866 11.5822C191.188 11.8183 191.27 12.2931 191.052 12.6409C190.915 12.8567 190.694 12.9735 190.469 12.9735C190.333 12.9735 190.194 12.9304 190.072 12.839ZM221.303 12.5952C221.082 12.2499 221.162 11.7752 221.484 11.5365C221.803 11.2979 222.243 11.3867 222.463 11.7346C222.684 12.0798 222.602 12.5546 222.283 12.7933C222.16 12.8821 222.019 12.9278 221.883 12.9278C221.657 12.9278 221.439 12.811 221.303 12.5952ZM191.754 10.3839C191.472 10.097 191.456 9.61461 191.721 9.30741C191.987 9.00021 192.433 8.98497 192.715 9.27186C193 9.55875 193.016 10.0411 192.748 10.3483C192.61 10.5083 192.422 10.5895 192.234 10.5895C192.062 10.5895 191.888 10.521 191.752 10.3839H191.754ZM219.597 10.3128C219.331 10.0056 219.343 9.52321 219.627 9.23378C219.911 8.94689 220.358 8.96212 220.623 9.26679C220.891 9.57399 220.877 10.0564 220.593 10.3433C220.457 10.4829 220.285 10.5514 220.111 10.5514C219.923 10.5514 219.735 10.4702 219.597 10.3128ZM193.766 8.23601C193.526 7.90596 193.58 7.42611 193.888 7.16715C194.194 6.90818 194.638 6.96658 194.877 7.29917C195.117 7.62922 195.063 8.10907 194.755 8.36803C194.628 8.4772 194.476 8.52798 194.323 8.52798C194.114 8.52798 193.907 8.42896 193.766 8.23601ZM217.587 8.33756C217.279 8.0786 217.225 7.59875 217.465 7.2687C217.705 6.93611 218.147 6.87518 218.454 7.13414C218.76 7.39311 218.816 7.87041 218.577 8.203C218.438 8.39596 218.231 8.49751 218.02 8.49751C217.869 8.49751 217.717 8.4442 217.587 8.33756ZM196.059 6.45119C195.869 6.08306 195.991 5.61844 196.33 5.41534C196.67 5.20969 197.1 5.33917 197.291 5.7073C197.479 6.07544 197.359 6.53751 197.018 6.74316C196.91 6.80917 196.79 6.83964 196.675 6.83964C196.428 6.83964 196.189 6.7 196.059 6.45119ZM215.32 6.71777C214.979 6.51466 214.857 6.05005 215.047 5.68192C215.235 5.31378 215.665 5.18176 216.006 5.38741C216.344 5.59052 216.469 6.05513 216.278 6.42326C216.149 6.67207 215.909 6.81425 215.663 6.81425C215.545 6.81425 215.428 6.78378 215.32 6.71777ZM198.579 5.06243C198.442 4.66891 198.628 4.22969 198.992 4.08243C199.356 3.93518 199.763 4.13575 199.899 4.52927C200.036 4.9228 199.85 5.36202 199.486 5.50927C199.403 5.54228 199.321 5.55751 199.239 5.55751C198.955 5.55751 198.684 5.36964 198.579 5.06243ZM212.847 5.4915C212.483 5.34425 212.298 4.90502 212.432 4.5115C212.568 4.11798 212.972 3.91487 213.339 4.06212C213.703 4.20938 213.891 4.64606 213.755 5.04212C213.649 5.34932 213.379 5.5372 213.092 5.5372C213.012 5.5372 212.927 5.52197 212.847 5.4915ZM201.262 4.10021C201.182 3.68891 201.424 3.28523 201.805 3.19637C202.186 3.10751 202.559 3.37155 202.642 3.78285C202.724 4.19414 202.479 4.59782 202.099 4.68668C202.049 4.69684 202 4.70445 201.951 4.70445C201.626 4.70445 201.333 4.45818 201.262 4.10021ZM210.232 4.67399C209.851 4.58767 209.607 4.18399 209.687 3.77269C209.769 3.3614 210.143 3.09736 210.523 3.18368C210.904 3.27 211.148 3.67622 211.069 4.08751C210.998 4.44549 210.704 4.69176 210.378 4.69176C210.331 4.69176 210.281 4.68668 210.232 4.67399ZM204.047 3.56958C204.021 3.15067 204.315 2.78508 204.703 2.75715C205.09 2.72922 205.426 3.04404 205.455 3.46549C205.48 3.8844 205.189 4.24746 204.799 4.27793H204.75C204.383 4.27793 204.073 3.97072 204.047 3.56958ZM207.53 4.27285C207.142 4.24492 206.848 3.88186 206.874 3.46295C206.9 3.04404 207.236 2.72668 207.626 2.75461C208.014 2.78254 208.307 3.14306 208.282 3.56451C208.256 3.96565 207.945 4.27539 207.579 4.27539C207.562 4.27539 207.546 4.27539 207.53 4.27539V4.27285Z" fill="url(#paint1_linear_2_355)"/>
<path d="M206.214 43.4855H206.19C205.671 43.4855 205.25 43.0311 205.25 42.47C205.25 41.9089 205.671 41.4544 206.19 41.4544H206.235C206.752 41.4544 207.175 41.9063 207.175 42.4674C207.175 43.0285 206.756 43.483 206.237 43.4855H206.214ZM203.234 43.2291C202.722 43.1377 202.374 42.6172 202.458 42.0638C202.541 41.5103 203.025 41.1345 203.537 41.2234C204.049 41.3148 204.397 41.8378 204.312 42.3913C204.237 42.8889 203.84 43.2418 203.387 43.2418C203.337 43.2418 203.286 43.2418 203.234 43.2291ZM208.115 42.3862C208.03 41.8302 208.376 41.3072 208.888 41.2158C209.4 41.1244 209.884 41.5001 209.969 42.0536C210.053 42.6071 209.708 43.1275 209.193 43.2215C209.142 43.2291 209.09 43.2342 209.041 43.2342C208.587 43.2342 208.19 42.8813 208.115 42.3862ZM200.35 42.4471C199.859 42.2643 199.598 41.6855 199.768 41.1548C199.937 40.6242 200.47 40.3424 200.961 40.5252C201.453 40.708 201.713 41.2869 201.544 41.8175C201.41 42.2364 201.046 42.503 200.656 42.503C200.555 42.503 200.451 42.4827 200.35 42.4471ZM210.881 41.8048C210.711 41.2742 210.97 40.6953 211.459 40.51C211.95 40.3272 212.486 40.6064 212.657 41.1371C212.826 41.6652 212.568 42.244 212.077 42.4294C211.976 42.4674 211.87 42.4852 211.769 42.4852C211.379 42.4852 211.015 42.2237 210.881 41.8048ZM197.627 41.1345C197.173 40.8629 197.011 40.2434 197.263 39.7534C197.514 39.2634 198.087 39.0882 198.541 39.3599C198.994 39.6315 199.159 40.251 198.905 40.741C198.734 41.0761 198.414 41.264 198.083 41.264C197.928 41.264 197.773 41.2209 197.627 41.1345ZM213.515 40.7207C213.261 40.2307 213.423 39.6112 213.877 39.337C214.33 39.0654 214.901 39.238 215.155 39.728C215.409 40.218 215.249 40.8349 214.796 41.1117C214.65 41.198 214.492 41.2386 214.335 41.2386C214.008 41.2386 213.689 41.0533 213.515 40.7207ZM195.159 39.3243C194.758 38.9689 194.699 38.3291 195.028 37.8949C195.357 37.4608 195.949 37.3973 196.351 37.7528C196.75 38.1082 196.809 38.748 196.48 39.1822C196.294 39.4284 196.026 39.5554 195.754 39.5554C195.545 39.5554 195.333 39.4792 195.157 39.3243H195.159ZM215.933 39.1542C215.602 38.7226 215.66 38.0828 216.06 37.7248C216.462 37.3694 217.054 37.4303 217.383 37.8645C217.714 38.2961 217.656 38.9359 217.256 39.2939C217.08 39.4487 216.868 39.5249 216.659 39.5249C216.387 39.5249 216.119 39.398 215.933 39.1542ZM193.033 37.0673C192.694 36.6408 192.744 36.001 193.138 35.6379C193.533 35.2723 194.125 35.3256 194.464 35.7522C194.8 36.1787 194.753 36.8185 194.358 37.1841C194.179 37.3466 193.963 37.4253 193.747 37.4253C193.481 37.4253 193.218 37.3034 193.033 37.0673ZM218.055 37.1485C217.658 36.7855 217.609 36.1457 217.945 35.7166C218.281 35.2901 218.873 35.2368 219.27 35.5998C219.665 35.9629 219.714 36.6027 219.378 37.0292C219.192 37.2679 218.927 37.3897 218.661 37.3897C218.447 37.3897 218.231 37.311 218.055 37.1485ZM191.308 34.4421C191.047 33.9597 191.197 33.3377 191.646 33.0533C192.093 32.7715 192.668 32.934 192.929 33.4164C193.192 33.9013 193.042 34.5233 192.593 34.8077C192.445 34.9016 192.281 34.9448 192.121 34.9448C191.797 34.9448 191.482 34.7671 191.308 34.4421ZM219.813 34.7671C219.364 34.4853 219.211 33.8632 219.472 33.3783C219.733 32.8934 220.309 32.7284 220.757 33.0102C221.206 33.292 221.359 33.914 221.098 34.3989C220.924 34.7239 220.609 34.9042 220.285 34.9042C220.125 34.9042 219.963 34.861 219.815 34.7671H219.813ZM190.034 31.5376H190.032C189.851 31.0121 190.1 30.4282 190.584 30.2301C191.07 30.0346 191.613 30.3012 191.794 30.8268C191.975 31.3523 191.728 31.9388 191.242 32.1343C191.134 32.1774 191.023 32.1977 190.913 32.1977C190.532 32.1977 190.175 31.9464 190.034 31.5376ZM221.157 32.0911C220.67 31.8956 220.421 31.3117 220.602 30.7861C220.781 30.2581 221.324 29.9915 221.81 30.1844C222.297 30.3799 222.546 30.9639 222.365 31.4894C222.224 31.9007 221.864 32.1546 221.484 32.1546C221.375 32.1546 221.265 32.1343 221.157 32.0911ZM189.23 28.4504C189.129 27.8995 189.463 27.3663 189.973 27.2597C190.483 27.1505 190.976 27.511 191.075 28.0619C191.174 28.6103 190.842 29.146 190.333 29.2527C190.271 29.2654 190.21 29.2704 190.152 29.2704C189.71 29.2704 189.317 28.9353 189.23 28.4504ZM222.059 29.2044C221.552 29.1003 221.216 28.5672 221.314 28.0162C221.413 27.4653 221.904 27.1048 222.414 27.2114C222.924 27.3181 223.258 27.8487 223.161 28.3996C223.075 28.8871 222.68 29.2247 222.238 29.2247C222.179 29.2247 222.12 29.2171 222.059 29.2044ZM188.892 25.2717C188.873 24.7106 189.277 24.241 189.797 24.2181C190.316 24.1978 190.753 24.6345 190.772 25.1956C190.791 25.7567 190.387 26.2289 189.867 26.2492H189.832C189.329 26.2492 188.911 25.8201 188.892 25.2717ZM222.518 26.201C221.998 26.1806 221.594 25.711 221.61 25.1499C221.629 24.5913 222.064 24.1521 222.583 24.1699C223.103 24.1902 223.509 24.6599 223.49 25.221C223.472 25.7694 223.056 26.201 222.55 26.201H222.518ZM189.83 23.2026C189.315 23.1416 188.944 22.6389 189.002 22.0804C189.059 21.5244 189.524 21.1232 190.041 21.1842C190.556 21.2476 190.927 21.7503 190.871 22.3089C190.814 22.8268 190.408 23.2102 189.938 23.2102C189.903 23.2102 189.865 23.2102 189.83 23.2026ZM221.507 22.2632C221.448 21.7046 221.817 21.2019 222.334 21.1385C222.849 21.075 223.314 21.4736 223.375 22.0322C223.434 22.5882 223.063 23.0909 222.548 23.1543C222.511 23.1594 222.475 23.1619 222.44 23.1619C221.968 23.1619 221.561 22.7811 221.507 22.2632ZM190.217 20.1864C189.717 20.0366 189.425 19.4781 189.564 18.9373C189.703 18.3965 190.222 18.0791 190.723 18.2315C191.221 18.3813 191.515 18.9398 191.376 19.4806C191.258 19.93 190.882 20.2245 190.469 20.2245C190.387 20.2245 190.302 20.2118 190.217 20.1864ZM220.995 19.4374C220.854 18.8967 221.145 18.3381 221.646 18.1858C222.146 18.0334 222.663 18.3483 222.804 18.889C222.945 19.4273 222.654 19.9884 222.153 20.1407C222.069 20.1661 221.984 20.1788 221.9 20.1788C221.488 20.1788 221.112 19.8868 220.995 19.4374ZM191.047 17.2769C190.577 17.0382 190.377 16.434 190.598 15.9262C190.819 15.4184 191.378 15.2001 191.848 15.4387C192.318 15.6774 192.52 16.2842 192.299 16.7894C192.137 17.1575 191.801 17.3733 191.446 17.3733C191.312 17.3733 191.176 17.3429 191.047 17.2769ZM220.064 16.7488C219.843 16.2436 220.043 15.6368 220.511 15.3981C220.981 15.1569 221.54 15.3727 221.763 15.8805C221.986 16.3857 221.787 16.9925 221.317 17.2312C221.187 17.2997 221.051 17.3302 220.915 17.3302C220.562 17.3302 220.226 17.1169 220.064 16.7488ZM192.323 14.5577C191.898 14.2353 191.797 13.6006 192.097 13.1436C192.398 12.6841 192.983 12.5774 193.409 12.8999C193.832 13.2248 193.933 13.857 193.632 14.3166C193.449 14.5958 193.16 14.7456 192.863 14.7456C192.678 14.7456 192.487 14.6847 192.323 14.5577ZM218.725 14.281C218.424 13.824 218.523 13.1893 218.946 12.8643C219.369 12.5394 219.956 12.646 220.257 13.103C220.558 13.56 220.459 14.1947 220.036 14.5197C219.872 14.6466 219.681 14.7075 219.493 14.7075C219.197 14.7075 218.908 14.5577 218.725 14.281ZM194.017 12.1255C193.653 11.7244 193.66 11.082 194.029 10.6885C194.4 10.295 194.995 10.3001 195.359 10.7012C195.723 11.0998 195.719 11.7447 195.347 12.1382C195.164 12.3312 194.927 12.4276 194.689 12.4276C194.445 12.4276 194.203 12.3261 194.017 12.1255ZM217.007 12.1077C216.636 11.7168 216.629 11.0719 216.99 10.6708C217.352 10.2696 217.949 10.262 218.321 10.6555C218.692 11.0465 218.699 11.6888 218.337 12.0925C218.151 12.2956 217.907 12.3972 217.663 12.3972C217.428 12.3972 217.19 12.3007 217.007 12.1077ZM196.088 10.0564C195.796 9.59174 195.907 8.9621 196.337 8.64728C196.767 8.32993 197.35 8.45179 197.641 8.9164C197.932 9.37847 197.822 10.0107 197.394 10.3255C197.232 10.4448 197.046 10.5007 196.865 10.5007C196.565 10.5007 196.269 10.3458 196.088 10.0564ZM214.955 10.3026C214.525 9.9878 214.413 9.35562 214.704 8.89101C214.993 8.4264 215.578 8.30454 216.008 8.61936C216.438 8.93417 216.551 9.56381 216.262 10.0284C216.079 10.3204 215.783 10.4753 215.482 10.4753C215.301 10.4753 215.118 10.4194 214.955 10.3026ZM198.466 8.42132C198.254 7.90847 198.466 7.3093 198.94 7.08081C199.415 6.85231 199.972 7.08081 200.184 7.59619C200.395 8.10651 200.184 8.70822 199.707 8.93417C199.582 8.99511 199.453 9.02303 199.323 9.02303C198.964 9.02303 198.621 8.79961 198.466 8.42132ZM212.638 8.91894C212.164 8.69044 211.95 8.09127 212.159 7.57842C212.368 7.06557 212.923 6.83454 213.4 7.0605C213.874 7.28645 214.088 7.88816 213.879 8.40101C213.724 8.7793 213.379 9.00526 213.019 9.00526C212.892 9.00526 212.763 8.97733 212.638 8.91894ZM201.072 7.2636C200.947 6.72029 201.253 6.16936 201.756 6.03226C202.259 5.89516 202.771 6.22521 202.895 6.77107C203.022 7.31438 202.717 7.86531 202.214 8.00241C202.136 8.02272 202.059 8.03288 201.984 8.03288C201.563 8.03288 201.18 7.72568 201.072 7.2636ZM210.129 7.99226C209.626 7.8577 209.318 7.30676 209.442 6.76091C209.567 6.21759 210.077 5.885 210.582 6.01956C211.085 6.15666 211.393 6.70759 211.268 7.25091C211.16 7.71298 210.777 8.02272 210.357 8.02272C210.281 8.02272 210.206 8.01257 210.129 7.99226ZM203.824 6.60604C203.784 6.04749 204.169 5.55749 204.686 5.51433C205.203 5.46863 205.657 5.885 205.699 6.44355C205.741 7.0021 205.353 7.4921 204.836 7.5378C204.813 7.5378 204.787 7.54288 204.761 7.54288C204.275 7.54288 203.864 7.1392 203.824 6.60604ZM207.504 7.53526C206.987 7.4921 206.599 7.0021 206.639 6.44355C206.679 5.885 207.132 5.46609 207.649 5.50925C208.166 5.55241 208.554 6.04241 208.514 6.60096C208.477 7.13412 208.063 7.5378 207.577 7.5378C207.553 7.5378 207.527 7.5378 207.504 7.5378V7.53526Z" fill="url(#paint2_linear_2_355)"/>
<path d="M206.223 40.4847H206.19C205.671 40.4847 205.25 40.0302 205.25 39.4691C205.25 38.908 205.671 38.4536 206.19 38.4536H206.251C206.77 38.451 207.193 38.903 207.196 39.4641C207.198 40.0251 206.777 40.4821 206.258 40.4847H206.223ZM203.224 40.1775C202.717 40.0683 202.383 39.5351 202.484 38.9842C202.583 38.4333 203.079 38.0753 203.589 38.1845C204.096 38.2911 204.427 38.8243 204.329 39.3752C204.239 39.8601 203.847 40.1952 203.408 40.1952C203.347 40.1952 203.285 40.1902 203.224 40.1775ZM208.117 39.3676C208.014 38.8166 208.345 38.2809 208.852 38.1718C209.362 38.0601 209.858 38.4155 209.959 38.9664C210.063 39.5174 209.734 40.0505 209.224 40.1622C209.16 40.1749 209.099 40.1825 209.038 40.1825C208.599 40.1825 208.206 39.8474 208.117 39.3676ZM200.364 39.2355C199.887 39.0172 199.664 38.4206 199.864 37.9052C200.066 37.3873 200.618 37.1461 201.095 37.3644C201.575 37.5802 201.798 38.1768 201.598 38.6948C201.445 39.0807 201.098 39.3143 200.731 39.3143C200.609 39.3143 200.484 39.2889 200.364 39.2355ZM210.845 38.6719C210.641 38.1565 210.864 37.5574 211.341 37.339C211.818 37.1181 212.37 37.3568 212.575 37.8722C212.779 38.3876 212.556 38.9842 212.079 39.2051C211.959 39.2609 211.832 39.2889 211.71 39.2889C211.346 39.2889 210.998 39.0578 210.845 38.6719ZM197.744 37.6691C197.319 37.3492 197.215 36.7145 197.512 36.2549C197.81 35.7954 198.397 35.6837 198.823 36.0061C199.248 36.3286 199.352 36.9607 199.053 37.4203C198.87 37.7021 198.578 37.8544 198.282 37.8544C198.097 37.8544 197.906 37.7935 197.744 37.6691ZM213.383 37.3847C213.085 36.9277 213.183 36.293 213.609 35.968C214.032 35.6456 214.619 35.7522 214.918 36.2118C215.218 36.6688 215.117 37.3035 214.694 37.6259C214.53 37.7529 214.34 37.8138 214.152 37.8138C213.858 37.8138 213.566 37.664 213.383 37.3847ZM195.486 35.5415C195.133 35.1277 195.157 34.4853 195.538 34.1045C195.918 33.7237 196.515 33.7491 196.868 34.1629H196.865C197.218 34.5742 197.197 35.2165 196.814 35.5974C196.633 35.7776 196.405 35.8665 196.177 35.8665C195.923 35.8665 195.672 35.7573 195.486 35.5415ZM215.613 35.5491C215.23 35.1708 215.204 34.5285 215.555 34.1147C215.905 33.7008 216.499 33.6729 216.88 34.0512C217.263 34.4295 217.289 35.0718 216.939 35.4857C216.753 35.704 216.499 35.8157 216.245 35.8157C216.02 35.8157 215.792 35.7268 215.611 35.5491H215.613ZM193.698 32.9468C193.432 32.4619 193.58 31.8399 194.027 31.5555C194.473 31.2686 195.049 31.4286 195.314 31.9109C195.578 32.3933 195.432 33.0153 194.985 33.3022C194.835 33.3987 194.668 33.4444 194.506 33.4444C194.184 33.4444 193.871 33.2667 193.698 32.9468ZM217.432 33.2438C216.986 32.9595 216.835 32.3375 217.098 31.8551C217.362 31.3702 217.937 31.2077 218.384 31.492C218.833 31.7764 218.981 32.3984 218.72 32.8808C218.544 33.2032 218.231 33.3835 217.907 33.3835C217.747 33.3835 217.583 33.3378 217.432 33.2438ZM192.445 30.0144C192.276 29.4838 192.539 28.9049 193.03 28.7221C193.519 28.5419 194.055 28.8237 194.224 29.3543C194.391 29.8849 194.13 30.4613 193.639 30.644C193.538 30.6821 193.434 30.6999 193.333 30.6999C192.943 30.6999 192.579 30.4333 192.445 30.0144ZM218.767 30.5806C218.276 30.4003 218.01 29.824 218.177 29.2934C218.344 28.7602 218.877 28.4759 219.369 28.6561C219.86 28.8338 220.125 29.4102 219.958 29.9433C219.827 30.3673 219.46 30.6339 219.068 30.6339C218.969 30.6339 218.866 30.6161 218.767 30.5806ZM191.759 26.8815C191.688 26.3254 192.048 25.8126 192.563 25.7364C193.077 25.6603 193.55 26.0487 193.622 26.6047C193.695 27.1607 193.336 27.671 192.821 27.7498C192.776 27.7548 192.734 27.7574 192.692 27.7574C192.229 27.7574 191.827 27.3892 191.761 26.8815H191.759ZM219.575 27.6812C219.061 27.605 218.699 27.0947 218.769 26.5387C218.84 25.9827 219.312 25.5917 219.827 25.6653C220.341 25.7415 220.703 26.2518 220.633 26.8078C220.572 27.3181 220.167 27.6888 219.705 27.6888C219.662 27.6888 219.62 27.6863 219.578 27.6812H219.575ZM192.523 24.7387C192.003 24.7133 191.601 24.2385 191.623 23.68C191.646 23.1189 192.086 22.6847 192.602 22.7076C193.122 22.733 193.524 23.2052 193.503 23.7663C193.479 24.3121 193.063 24.7387 192.565 24.7387H192.523ZM218.877 23.7003C218.852 23.1417 219.253 22.6644 219.77 22.639C220.29 22.6111 220.729 23.0452 220.755 23.6063C220.778 24.1649 220.379 24.6422 219.86 24.6676H219.815C219.317 24.6676 218.901 24.2461 218.877 23.7003ZM192.725 21.7174C192.219 21.5905 191.905 21.0446 192.022 20.4988C192.14 19.9504 192.645 19.6127 193.15 19.7396C193.658 19.8666 193.97 20.4124 193.853 20.9583C193.752 21.428 193.366 21.7428 192.939 21.7428C192.868 21.7428 192.795 21.7352 192.725 21.7174ZM218.513 20.8948C218.393 20.349 218.706 19.8006 219.211 19.6711C219.716 19.5416 220.224 19.8793 220.344 20.4251C220.464 20.971 220.151 21.5168 219.646 21.6489C219.573 21.6666 219.5 21.6743 219.427 21.6743C219.002 21.6743 218.617 21.362 218.513 20.8948ZM193.446 18.7901C192.976 18.5565 192.767 17.9548 192.983 17.4445C193.199 16.9342 193.756 16.7108 194.229 16.9444C194.701 17.1754 194.908 17.7796 194.692 18.2874H194.694C194.534 18.6632 194.193 18.8815 193.836 18.8815C193.707 18.8815 193.573 18.8536 193.446 18.7901ZM217.662 18.229C217.446 17.7187 217.651 17.117 218.123 16.8809C218.593 16.6448 219.152 16.8682 219.369 17.376C219.587 17.8863 219.383 18.488 218.91 18.7241C218.783 18.7876 218.649 18.818 218.518 18.818C218.163 18.818 217.822 18.5997 217.662 18.229ZM194.699 16.0786C194.28 15.746 194.193 15.1088 194.504 14.6594C194.811 14.2075 195.401 14.1135 195.817 14.4461C196.236 14.7813 196.322 15.416 196.012 15.8679C195.829 16.137 195.545 16.2792 195.258 16.2792C195.063 16.2792 194.866 16.2132 194.699 16.0786ZM216.332 15.8146C216.022 15.3677 216.107 14.7305 216.523 14.3953C216.936 14.0577 217.526 14.1491 217.839 14.5985C218.149 15.0478 218.064 15.6851 217.648 16.0202C217.479 16.1573 217.282 16.2233 217.087 16.2233C216.8 16.2233 216.518 16.0811 216.332 15.8146ZM196.445 13.7099C196.104 13.2884 196.142 12.6461 196.532 12.2754C196.924 11.9073 197.516 11.9504 197.859 12.3719C198.2 12.7933 198.162 13.4357 197.772 13.8038C197.594 13.9739 197.373 14.0551 197.152 14.0551C196.891 14.0551 196.63 13.9383 196.445 13.7099ZM214.565 13.7632C214.173 13.395 214.13 12.7527 214.471 12.3287C214.812 11.9073 215.404 11.8616 215.797 12.2272C216.189 12.5953 216.231 13.2376 215.891 13.6616C215.705 13.8927 215.444 14.012 215.181 14.012C214.962 14.012 214.741 13.9282 214.565 13.7632ZM198.618 11.7956C198.367 11.3056 198.531 10.6886 198.985 10.417C199.439 10.1453 200.012 10.323 200.263 10.813C200.515 11.303 200.35 11.9225 199.894 12.1942C199.751 12.2805 199.596 12.3211 199.441 12.3211C199.11 12.3211 198.79 12.1307 198.618 11.7956ZM212.434 12.1611C211.978 11.892 211.811 11.2751 212.06 10.7825C212.309 10.29 212.88 10.1097 213.336 10.3789C213.79 10.6505 213.959 11.2675 213.71 11.7575C213.538 12.0951 213.216 12.2856 212.883 12.2856C212.732 12.2856 212.577 12.2475 212.434 12.1611ZM201.116 10.4246C200.966 9.88633 201.246 9.32016 201.741 9.15514C202.237 8.99265 202.764 9.29477 202.914 9.83047C203.067 10.3662 202.787 10.9349 202.291 11.0974C202.202 11.1278 202.108 11.1431 202.019 11.1431C201.615 11.1431 201.243 10.8613 201.119 10.4246H201.116ZM210.032 11.0796C209.536 10.9171 209.254 10.3509 209.402 9.81524C209.553 9.277 210.077 8.97234 210.573 9.13483C211.071 9.29477 211.353 9.86094 211.202 10.3992C211.08 10.8384 210.707 11.1228 210.302 11.1228C210.213 11.1228 210.124 11.1075 210.032 11.0796ZM203.824 9.63752C203.774 9.07897 204.153 8.58389 204.67 8.52804C205.187 8.47472 205.645 8.88348 205.694 9.44203C205.746 10.0006 205.367 10.4957 204.85 10.5515C204.82 10.5515 204.789 10.5515 204.759 10.5515C204.279 10.5515 203.871 10.1605 203.824 9.63498V9.63752ZM207.471 10.5439C206.954 10.4931 206.573 9.99804 206.62 9.43949C206.669 8.88094 207.128 8.46964 207.645 8.52296C208.162 8.57374 208.54 9.06882 208.493 9.62736C208.448 10.1529 208.037 10.549 207.558 10.549C207.529 10.549 207.499 10.549 207.471 10.5439Z" fill="url(#paint3_linear_2_355)"/>
<path d="M205.485 36.4681C205.485 36.0466 205.802 35.7064 206.19 35.7064H206.239C206.627 35.7039 206.944 36.0441 206.947 36.4655C206.947 36.887 206.634 37.2272 206.244 37.2297H206.19C205.802 37.2297 205.485 36.8895 205.485 36.4681ZM203.269 36.8514C202.891 36.7499 202.66 36.336 202.754 35.9298C202.846 35.5211 203.229 35.2723 203.607 35.3713C203.986 35.4728 204.216 35.8867 204.122 36.2929C204.042 36.6407 203.755 36.8743 203.438 36.8743C203.382 36.8743 203.325 36.8667 203.269 36.8514ZM208.31 36.2853C208.213 35.8765 208.444 35.4627 208.82 35.3586C209.198 35.257 209.581 35.5033 209.677 35.912C209.771 36.3208 209.543 36.7346 209.165 36.8362C209.106 36.8514 209.05 36.859 208.991 36.859C208.676 36.859 208.389 36.6305 208.31 36.2853ZM200.515 35.6937C200.174 35.4931 200.047 35.0311 200.235 34.6604C200.421 34.2923 200.851 34.1577 201.192 34.3583C201.535 34.5614 201.659 35.0234 201.471 35.3916C201.344 35.6455 201.102 35.7876 200.853 35.7876C200.738 35.7876 200.623 35.7597 200.515 35.6937ZM210.953 35.3687C210.765 35.0006 210.89 34.5385 211.231 34.3354C211.571 34.1298 211.999 34.2643 212.189 34.6325C212.377 35.0006 212.253 35.4652 211.912 35.6683C211.804 35.7318 211.686 35.7623 211.571 35.7623C211.325 35.7623 211.083 35.6201 210.953 35.3687ZM198.13 33.8073C197.85 33.5154 197.841 33.033 198.108 32.7283C198.379 32.4262 198.825 32.416 199.107 32.708C199.387 33 199.396 33.4798 199.126 33.7845C198.987 33.9394 198.804 34.0181 198.618 34.0181C198.442 34.0181 198.266 33.947 198.13 33.8073ZM213.292 33.7515C213.021 33.4494 213.028 32.967 213.308 32.6725C213.588 32.3805 214.034 32.3881 214.304 32.6902C214.577 32.9924 214.568 33.4747 214.288 33.7667C214.149 33.9114 213.973 33.9825 213.797 33.9825C213.611 33.9825 213.428 33.9038 213.289 33.7515H213.292ZM196.285 31.3116C196.083 30.9511 196.191 30.484 196.522 30.2656C196.858 30.0473 197.291 30.1641 197.49 30.5246C197.692 30.8851 197.584 31.3523 197.253 31.5706C197.138 31.6442 197.013 31.6798 196.889 31.6798C196.649 31.6798 196.416 31.5477 196.285 31.3116ZM215.157 31.5274C214.824 31.3091 214.713 30.8419 214.913 30.4814C215.113 30.1209 215.545 30.0041 215.881 30.2174C216.215 30.4332 216.323 30.9029 216.123 31.2634C215.992 31.502 215.757 31.6341 215.517 31.6341C215.395 31.6341 215.27 31.5985 215.157 31.5274ZM195.093 28.397C194.981 27.9933 195.194 27.5694 195.566 27.4475C195.939 27.3282 196.332 27.5567 196.445 27.9603C196.555 28.364 196.344 28.788 195.97 28.9073C195.904 28.9302 195.836 28.9403 195.768 28.9403C195.465 28.9403 195.185 28.7271 195.093 28.397ZM216.426 28.8591C216.055 28.7398 215.841 28.3158 215.952 27.9121C216.06 27.5084 216.452 27.2774 216.826 27.3967C217.199 27.516 217.413 27.94 217.303 28.3412C217.214 28.6738 216.932 28.8896 216.626 28.8896C216.56 28.8896 216.494 28.8794 216.426 28.8591ZM194.593 25.2691C194.572 24.8477 194.868 24.4897 195.256 24.4669C195.646 24.4415 195.979 24.7639 196.001 25.1828C196.022 25.6043 195.723 25.9648 195.335 25.9876H195.296C194.924 25.9876 194.614 25.6754 194.593 25.2691ZM217.051 25.9343C216.664 25.9115 216.363 25.5535 216.384 25.1346C216.405 24.7131 216.737 24.3907 217.124 24.4136C217.512 24.4339 217.813 24.7918 217.792 25.2133C217.773 25.6195 217.46 25.9343 217.089 25.9343H217.051ZM195.331 22.9842C194.945 22.9156 194.687 22.5221 194.753 22.1083C194.818 21.6919 195.183 21.4126 195.566 21.4837C195.949 21.5548 196.207 21.9458 196.142 22.3622C196.085 22.7328 195.787 22.9969 195.448 22.9969C195.408 22.9969 195.371 22.9918 195.331 22.9842ZM216.231 22.3114C216.163 21.8975 216.422 21.504 216.805 21.4304C217.188 21.3593 217.554 21.636 217.62 22.0524C217.686 22.4662 217.43 22.8598 217.047 22.9334C217.004 22.941 216.964 22.9436 216.925 22.9436C216.588 22.9436 216.29 22.682 216.231 22.3114ZM195.954 20.0619C195.596 19.8918 195.434 19.4425 195.589 19.0566C195.747 18.6732 196.16 18.4955 196.518 18.6656C196.875 18.8331 197.037 19.2825 196.882 19.6684C196.767 19.9528 196.506 20.1254 196.236 20.1254C196.142 20.1254 196.045 20.1051 195.954 20.0619ZM215.482 19.6227H215.479C215.322 19.2368 215.484 18.7874 215.841 18.6173C216.196 18.4472 216.612 18.6173 216.769 19.0058C216.927 19.3917 216.769 19.8411 216.41 20.0112C216.318 20.0543 216.222 20.0772 216.126 20.0772C215.855 20.0746 215.597 19.9071 215.482 19.6227ZM197.225 17.3911C196.919 17.1296 196.87 16.6497 197.112 16.3222C197.354 15.9922 197.798 15.9363 198.101 16.1978C198.407 16.4618 198.459 16.9391 198.217 17.2692C198.076 17.4596 197.871 17.5561 197.662 17.5561C197.509 17.5561 197.354 17.5028 197.225 17.3911ZM214.137 17.2311C213.893 16.9036 213.942 16.4238 214.246 16.1597C214.549 15.8957 214.993 15.949 215.237 16.2765C215.482 16.6066 215.432 17.0839 215.129 17.3479C214.998 17.4622 214.842 17.5155 214.687 17.5155C214.481 17.5155 214.276 17.419 214.137 17.2311ZM199.093 15.1696C198.86 14.8319 198.929 14.3546 199.243 14.1058C199.556 13.857 199.998 13.9281 200.228 14.2683C200.458 14.6059 200.39 15.0832 200.078 15.332C199.951 15.4336 199.805 15.4818 199.662 15.4818C199.443 15.4818 199.229 15.3727 199.093 15.1696ZM212.267 15.3041C211.952 15.0579 211.884 14.5805 212.112 14.2403C212.342 13.9001 212.782 13.824 213.096 14.0728C213.411 14.319 213.482 14.7963 213.254 15.1366C213.115 15.3422 212.899 15.4514 212.683 15.4514C212.537 15.4514 212.394 15.4031 212.267 15.3041ZM201.434 13.5548C201.293 13.1639 201.471 12.7221 201.835 12.5698C202.197 12.4174 202.606 12.6104 202.747 13.0039C202.888 13.3949 202.707 13.8367 202.345 13.989C202.261 14.0245 202.176 14.0423 202.092 14.0423C201.807 14.0423 201.542 13.857 201.434 13.5548ZM209.992 13.9712C209.63 13.8214 209.447 13.3797 209.588 12.9887C209.727 12.5952 210.136 12.3997 210.497 12.5495C210.862 12.6993 211.043 13.141 210.904 13.5345C210.796 13.8367 210.53 14.022 210.246 14.022C210.161 14.022 210.077 14.0068 209.992 13.9712ZM204.08 12.6485C204.033 12.2296 204.31 11.8513 204.695 11.8005C205.083 11.7497 205.433 12.0468 205.48 12.4657C205.527 12.882 205.25 13.2629 204.865 13.3111C204.836 13.3162 204.808 13.3187 204.78 13.3187C204.427 13.3187 204.124 13.0344 204.08 12.6485ZM207.471 13.306C207.085 13.2578 206.808 12.8795 206.853 12.4631C206.897 12.0442 207.247 11.7446 207.635 11.7929C208.021 11.8411 208.298 12.2194 208.253 12.6383C208.211 13.0268 207.905 13.3111 207.553 13.3111C207.527 13.3111 207.499 13.3111 207.471 13.306Z" fill="url(#paint4_linear_2_355)"/>
<path d="M206.209 33.9751H206.19C205.931 33.9751 205.72 33.7492 205.72 33.4673C205.72 33.1881 205.931 32.9596 206.19 32.9596H206.228C206.486 32.9596 206.698 33.1855 206.698 33.4648C206.7 33.7466 206.491 33.9751 206.23 33.9751H206.209ZM203.194 33.4267C202.949 33.3328 202.82 33.0433 202.907 32.7793C202.994 32.5153 203.262 32.3756 203.506 32.4696C203.751 32.5635 203.878 32.8555 203.791 33.1195C203.723 33.3277 203.542 33.4572 203.349 33.4572C203.295 33.4572 203.243 33.447 203.191 33.4267H203.194ZM208.625 33.1068C208.538 32.8428 208.664 32.5508 208.909 32.4569C209.153 32.3604 209.424 32.4975 209.513 32.7615C209.6 33.0256 209.473 33.3175 209.228 33.4115C209.177 33.4318 209.123 33.4419 209.069 33.4419C208.876 33.4419 208.697 33.3125 208.627 33.1068H208.625ZM200.55 31.7815C200.353 31.6013 200.329 31.2788 200.498 31.0656C200.665 30.8523 200.964 30.8269 201.161 31.0097C201.358 31.19 201.382 31.5124 201.213 31.7257C201.121 31.8425 200.987 31.9034 200.856 31.9034C200.747 31.9034 200.639 31.8628 200.55 31.7815ZM211.2 31.7003C211.029 31.487 211.052 31.1671 211.249 30.9843C211.444 30.8015 211.743 30.8244 211.912 31.0376C212.081 31.2509 212.058 31.5708 211.863 31.7536C211.773 31.8374 211.663 31.8755 211.555 31.8755C211.423 31.8755 211.292 31.8171 211.2 31.7003ZM198.628 29.2249C198.503 28.9786 198.588 28.6689 198.816 28.5343C199.044 28.3998 199.328 28.4912 199.453 28.7374C199.577 28.9837 199.495 29.2909 199.267 29.4255C199.194 29.4686 199.117 29.4889 199.041 29.4889C198.875 29.4889 198.715 29.3925 198.628 29.2249ZM213.134 29.3899C212.906 29.2579 212.822 28.9482 212.944 28.7019C213.068 28.4556 213.353 28.3642 213.583 28.4962C213.811 28.6308 213.895 28.938 213.771 29.1868C213.686 29.3544 213.524 29.4509 213.357 29.4509C213.282 29.4509 213.207 29.4331 213.134 29.3899ZM197.655 26.1123C197.613 25.8355 197.789 25.574 198.045 25.5309C198.301 25.4877 198.541 25.6756 198.583 25.9523C198.625 26.229 198.452 26.4905 198.193 26.5337C198.17 26.5388 198.144 26.5388 198.12 26.5388C197.892 26.5388 197.693 26.3611 197.657 26.1123H197.655ZM214.199 26.4931C213.94 26.4499 213.764 26.191 213.804 25.9142C213.844 25.6375 214.086 25.4471 214.342 25.4902C214.598 25.5334 214.774 25.7924 214.734 26.0691C214.699 26.3204 214.497 26.4982 214.269 26.4982C214.246 26.4982 214.222 26.4982 214.199 26.4931ZM198.043 23.4185C197.787 23.3754 197.61 23.1164 197.65 22.8397C197.69 22.5629 197.932 22.3725 198.188 22.4157C198.445 22.4588 198.618 22.7178 198.578 22.9945C198.543 23.2459 198.343 23.4261 198.116 23.4261C198.092 23.4261 198.066 23.4236 198.043 23.4185ZM213.797 22.9565C213.754 22.6797 213.931 22.4182 214.187 22.3751C214.443 22.3294 214.683 22.5198 214.725 22.7965C214.765 23.0732 214.591 23.3322 214.335 23.3779C214.309 23.383 214.286 23.383 214.26 23.383C214.034 23.383 213.834 23.2053 213.797 22.9565ZM198.804 20.4125C198.576 20.278 198.492 19.9708 198.616 19.7245C198.741 19.4757 199.025 19.3843 199.253 19.5188C199.481 19.6534 199.565 19.9606 199.443 20.2069C199.356 20.377 199.197 20.4735 199.03 20.4735C198.952 20.4735 198.877 20.4531 198.804 20.4125ZM212.92 20.1739C212.796 19.9276 212.88 19.6204 213.108 19.4833C213.334 19.3487 213.621 19.4376 213.745 19.6839C213.87 19.9301 213.787 20.2399 213.559 20.3744C213.487 20.4176 213.409 20.4379 213.334 20.4379C213.167 20.4379 213.007 20.3414 212.92 20.1739ZM200.482 17.8762C200.313 17.6629 200.336 17.343 200.534 17.1602C200.731 16.9774 201.027 17.0028 201.196 17.2161C201.366 17.4294 201.342 17.7493 201.145 17.9321C201.055 18.0133 200.947 18.0539 200.839 18.0539C200.705 18.0539 200.574 17.993 200.482 17.8762ZM211.21 17.9067C211.012 17.7264 210.986 17.404 211.155 17.1907C211.322 16.9774 211.618 16.9495 211.818 17.1323C212.016 17.3126 212.039 17.6325 211.872 17.8483C211.781 17.9651 211.647 18.026 211.513 18.026C211.407 18.026 211.299 17.9879 211.21 17.9067ZM202.888 16.1599C202.801 15.8959 202.928 15.6065 203.173 15.5125H203.175C203.419 15.4186 203.687 15.5557 203.774 15.8197C203.861 16.0838 203.734 16.3732 203.49 16.4697C203.438 16.4874 203.384 16.4976 203.332 16.4976C203.14 16.4976 202.956 16.3681 202.888 16.1599ZM208.857 16.4544C208.613 16.363 208.484 16.0736 208.57 15.807C208.655 15.543 208.923 15.4033 209.17 15.4973C209.414 15.5887 209.543 15.8807 209.456 16.1447C209.388 16.3529 209.207 16.4849 209.012 16.4849C208.961 16.4849 208.909 16.4747 208.857 16.4544ZM206.171 15.9746C205.913 15.9746 205.701 15.7486 205.701 15.4668C205.701 15.1875 205.91 14.959 206.171 14.959H206.169C206.43 14.959 206.641 15.185 206.641 15.4643C206.641 15.7461 206.432 15.9746 206.174 15.9746H206.171Z" fill="url(#paint5_linear_2_355)"/>
<path d="M206.204 30.7201H206.19C206.061 30.7201 205.955 30.6084 205.955 30.4662C205.955 30.3266 206.061 30.2123 206.19 30.2123H206.216C206.345 30.2123 206.451 30.3266 206.451 30.4662C206.451 30.6059 206.347 30.7201 206.218 30.7201H206.204ZM203.304 29.9051C203.191 29.8366 203.152 29.6792 203.217 29.5599C203.283 29.438 203.426 29.3948 203.539 29.4659C203.652 29.5345 203.69 29.6893 203.624 29.8112C203.582 29.8924 203.502 29.9381 203.422 29.9381C203.382 29.9381 203.342 29.928 203.304 29.9051ZM208.78 29.7985C208.714 29.6792 208.751 29.5218 208.864 29.4532C208.975 29.3821 209.12 29.4228 209.184 29.5446C209.25 29.6639 209.212 29.8214 209.099 29.8899C209.064 29.9153 209.022 29.9254 208.982 29.9254C208.902 29.9254 208.822 29.8797 208.78 29.7985ZM201.217 27.5973C201.156 27.4729 201.199 27.3206 201.311 27.252C201.427 27.186 201.568 27.2292 201.631 27.3536C201.692 27.4754 201.652 27.6303 201.537 27.6989C201.502 27.7192 201.464 27.7293 201.424 27.7293C201.342 27.7293 201.262 27.6811 201.217 27.5973ZM210.857 27.676C210.742 27.6075 210.7 27.4551 210.763 27.3307C210.824 27.2063 210.967 27.1606 211.08 27.2266C211.195 27.2952 211.238 27.4501 211.177 27.5719C211.132 27.6582 211.052 27.7065 210.967 27.7065C210.93 27.7065 210.892 27.6963 210.857 27.676ZM200.498 24.472C200.498 24.3323 200.604 24.2181 200.733 24.2181C200.865 24.2181 200.968 24.3298 200.968 24.472C200.968 24.6116 200.865 24.7259 200.733 24.7259C200.604 24.7259 200.498 24.6116 200.498 24.472ZM211.412 24.4466C211.412 24.3044 211.517 24.1902 211.647 24.1902C211.776 24.1902 211.882 24.3044 211.882 24.444C211.882 24.5837 211.778 24.6979 211.649 24.6979C211.517 24.6979 211.412 24.5862 211.412 24.4466ZM201.304 21.6894C201.192 21.6208 201.149 21.4685 201.21 21.3441C201.272 21.2222 201.415 21.1765 201.53 21.2425C201.643 21.3086 201.685 21.4634 201.624 21.5878C201.582 21.6716 201.499 21.7199 201.417 21.7199C201.38 21.7199 201.34 21.7097 201.304 21.6894ZM210.747 21.565C210.683 21.4406 210.725 21.2857 210.838 21.2197C210.953 21.1511 211.097 21.1968 211.158 21.3187C211.221 21.4431 211.179 21.598 211.066 21.664C211.029 21.6868 210.991 21.697 210.953 21.697C210.869 21.697 210.789 21.6488 210.747 21.565ZM203.206 19.379C203.142 19.2572 203.18 19.1023 203.293 19.0312C203.405 18.9626 203.549 19.0033 203.612 19.1251C203.678 19.247 203.64 19.4019 203.528 19.473C203.49 19.4958 203.45 19.506 203.41 19.506C203.328 19.506 203.25 19.4603 203.206 19.379ZM208.834 19.4603C208.721 19.3892 208.681 19.2343 208.744 19.1124C208.81 18.9906 208.954 18.9474 209.066 19.0185C209.179 19.0871 209.217 19.2419 209.153 19.3638C209.111 19.4476 209.031 19.4933 208.949 19.4933C208.909 19.4933 208.869 19.4806 208.834 19.4603ZM205.943 18.4676C205.943 18.3279 206.047 18.2137 206.176 18.2137C206.305 18.2137 206.411 18.3254 206.411 18.465C206.411 18.6072 206.305 18.7215 206.176 18.7215C206.047 18.7215 205.941 18.6072 205.941 18.4676H205.943Z" fill="url(#paint6_linear_2_355)"/>
</g>
</g>
<defs>
<linearGradient id="paint0_linear_2_355" x1="206.192" y1="3.53637e-05" x2="206.192" y2="48.9797" gradientUnits="userSpaceOnUse">
<stop stop-color="#00BDB5"/>
<stop offset="0.07" stop-color="#02A6A4"/>
<stop offset="0.2" stop-color="#068188"/>
<stop offset="0.33" stop-color="#096271"/>
<stop offset="0.48" stop-color="#0B4B5F"/>
<stop offset="0.63" stop-color="#0D3A52"/>
<stop offset="0.79" stop-color="#0E304B"/>
<stop offset="1" stop-color="#0F2D49"/>
</linearGradient>
<linearGradient id="paint1_linear_2_355" x1="197.467" y1="4.82124" x2="217.284" y2="42.911" gradientUnits="userSpaceOnUse">
<stop stop-color="#00BDB5"/>
<stop offset="0.07" stop-color="#02A6A4"/>
<stop offset="0.2" stop-color="#068188"/>
<stop offset="0.33" stop-color="#096271"/>
<stop offset="0.48" stop-color="#0B4B5F"/>
<stop offset="0.63" stop-color="#0D3A52"/>
<stop offset="0.79" stop-color="#0E304B"/>
<stop offset="1" stop-color="#0F2D49"/>
</linearGradient>
<linearGradient id="paint2_linear_2_355" x1="192.455" y1="12.6587" x2="221.528" y2="34.1195" gradientUnits="userSpaceOnUse">
<stop stop-color="#00BDB5"/>
<stop offset="0.07" stop-color="#02A6A4"/>
<stop offset="0.2" stop-color="#068188"/>
<stop offset="0.33" stop-color="#096271"/>
<stop offset="0.48" stop-color="#0B4B5F"/>
<stop offset="0.63" stop-color="#0D3A52"/>
<stop offset="0.79" stop-color="#0E304B"/>
<stop offset="1" stop-color="#0F2D49"/>
</linearGradient>
<linearGradient id="paint3_linear_2_355" x1="191.923" y1="20.9634" x2="220.589" y2="27.0183" gradientUnits="userSpaceOnUse">
<stop stop-color="#00BDB5"/>
<stop offset="0.07" stop-color="#02A6A4"/>
<stop offset="0.2" stop-color="#068188"/>
<stop offset="0.33" stop-color="#096271"/>
<stop offset="0.48" stop-color="#0B4B5F"/>
<stop offset="0.63" stop-color="#0D3A52"/>
<stop offset="0.79" stop-color="#0E304B"/>
<stop offset="1" stop-color="#0F2D49"/>
</linearGradient>
<linearGradient id="paint4_linear_2_355" x1="194.858" y1="27.2926" x2="217.709" y2="22.4666" gradientUnits="userSpaceOnUse">
<stop stop-color="#00BDB5"/>
<stop offset="0.07" stop-color="#02A6A4"/>
<stop offset="0.2" stop-color="#068188"/>
<stop offset="0.33" stop-color="#096271"/>
<stop offset="0.48" stop-color="#0B4B5F"/>
<stop offset="0.63" stop-color="#0D3A52"/>
<stop offset="0.79" stop-color="#0E304B"/>
<stop offset="1" stop-color="#0F2D49"/>
</linearGradient>
<linearGradient id="paint5_linear_2_355" x1="199.415" y1="30.3014" x2="213.769" y2="19.7057" gradientUnits="userSpaceOnUse">
<stop stop-color="#00BDB5"/>
<stop offset="0.07" stop-color="#02A6A4"/>
<stop offset="0.2" stop-color="#068188"/>
<stop offset="0.33" stop-color="#096271"/>
<stop offset="0.48" stop-color="#0B4B5F"/>
<stop offset="0.63" stop-color="#0D3A52"/>
<stop offset="0.79" stop-color="#0E304B"/>
<stop offset="1" stop-color="#0F2D49"/>
</linearGradient>
<linearGradient id="paint6_linear_2_355" x1="203.678" y1="30.1006" x2="209.363" y2="19.1721" gradientUnits="userSpaceOnUse">
<stop stop-color="#00BDB5"/>
<stop offset="0.07" stop-color="#02A6A4"/>
<stop offset="0.2" stop-color="#068188"/>
<stop offset="0.33" stop-color="#096271"/>
<stop offset="0.48" stop-color="#0B4B5F"/>
<stop offset="0.63" stop-color="#0D3A52"/>
<stop offset="0.79" stop-color="#0E304B"/>
<stop offset="1" stop-color="#0F2D49"/>
</linearGradient>
<clipPath id="clip0_2_355">
<rect width="278" height="49" fill="white"/>
</clipPath>
</defs>
</svg>
